EngravingUnshadedCC.ufo
<glyph name="exclam" format="2">
  <advance width="880"/>
  <unicode hex="0021"/>
  <outline>
    <contour>
      <point x="210" y="220" type="curve" smooth="yes"/>
      <point x="210" y="104"/>
      <point x="300" y="5"/>
      <point x="395" y="5" type="curve" smooth="yes"/>
      <point x="497" y="5"/>
      <point x="550" y="78"/>
      <point x="550" y="220" type="curve" smooth="yes"/>
      <point x="550" y="362"/>
      <point x="497" y="435"/>
      <point x="395" y="435" type="curve" smooth="yes"/>
      <point x="293" y="435"/>
      <point x="210" y="326"/>
    </contour>
    <contour>
      <point x="150" y="1370" type="curve"/>
      <point x="350" y="1080"/>
      <point x="393" y="965"/>
      <point x="425" y="730" type="curve"/>
      <point x="435" y="1080"/>
      <point x="460" y="1220"/>
      <point x="590" y="1370" type="curve"/>
      <point x="390" y="1370"/>
      <point x="350" y="1370"/>
    </contour>
    <contour>
      <point x="200" y="220" type="curve" smooth="yes"/>
      <point x="200" y="352"/>
      <point x="308" y="460"/>
      <point x="440" y="460" type="curve" smooth="yes"/>
      <point x="572" y="460"/>
      <point x="680" y="352"/>
      <point x="680" y="220" type="curve" smooth="yes"/>
      <point x="680" y="88"/>
      <point x="572" y="-20"/>
      <point x="440" y="-20" type="curve" smooth="yes"/>
      <point x="308" y="-20"/>
      <point x="200" y="88"/>
    </contour>
    <contour>
      <point x="140" y="1400" type="line"/>
      <point x="740" y="1400" type="line"/>
      <point x="740" y="1370" type="line"/>
      <point x="540" y="1140"/>
      <point x="455" y="920"/>
      <point x="455" y="560" type="curve"/>
      <point x="425" y="560" type="line"/>
      <point x="425" y="920"/>
      <point x="340" y="1090"/>
      <point x="140" y="1370" type="curve"/>
    </contour>
  </outline>
</glyph>
<glyph name="dollar" format="2">
  <advance width="1666"/>
  <unicode hex="0024"/>
  <outline>
    <contour>
      <point x="1032" y="1112" type="curve" smooth="yes"/>
      <point x="1032" y="1036"/>
      <point x="1110" y="964"/>
      <point x="1176" y="964" type="curve" smooth="yes"/>
      <point x="1254" y="964"/>
      <point x="1320" y="1037"/>
      <point x="1320" y="1114" type="curve" smooth="yes"/>
      <point x="1320" y="1231"/>
      <point x="1280" y="1323"/>
      <point x="1140" y="1354" type="curve"/>
      <point x="1138" y="1352" type="line"/>
      <point x="1169" y="1338"/>
      <point x="1180" y="1310"/>
      <point x="1180" y="1299" type="curve" smooth="yes"/>
      <point x="1180" y="1242.99"/>
      <point x="1032" y="1276.99"/>
    </contour>
    <contour>
      <point x="377" y="325" type="curve" smooth="yes"/>
      <point x="377" y="401"/>
      <point x="330" y="443"/>
      <point x="264" y="443" type="curve" smooth="yes"/>
      <point x="166" y="443"/>
      <point x="90" y="395"/>
      <point x="90" y="298" type="curve" smooth="yes"/>
      <point x="90" y="181"/>
      <point x="189" y="124"/>
      <point x="239" y="94" type="curve"/>
      <point x="241" y="96" type="line"/>
      <point x="211" y="138"/>
      <point x="198" y="158"/>
      <point x="198" y="177" type="curve" smooth="yes"/>
      <point x="198" y="205.39"/>
      <point x="239.04" y="209"/>
      <point x="281" y="214" type="curve" smooth="yes"/>
      <point x="336.606" y="220.626"/>
      <point x="377" y="257"/>
    </contour>
    <contour>
      <point x="817" y="1390" type="line"/>
      <point x="525" y="1390"/>
      <point x="358" y="1298"/>
      <point x="358" y="1190" type="curve" smooth="yes"/>
      <point x="358" y="1038"/>
      <point x="466.216" y="937.522"/>
      <point x="864" y="900" type="curve" smooth="yes"/>
      <point x="1367.26" y="852.528"/>
      <point x="1616" y="722"/>
      <point x="1616" y="440" type="curve" smooth="yes"/>
      <point x="1616" y="130"/>
      <point x="1235" y="-28"/>
      <point x="873" y="-28" type="curve"/>
      <point x="873" y="2" type="line"/>
      <point x="1095" y="2"/>
      <point x="1388" y="62"/>
      <point x="1388" y="250" type="curve" smooth="yes"/>
      <point x="1388" y="414"/>
      <point x="1207.52" y="460.075"/>
      <point x="768" y="505" type="curve" smooth="yes"/>
      <point x="285.458" y="554.322"/>
      <point x="98" y="691"/>
      <point x="98" y="970" type="curve" smooth="yes"/>
      <point x="98" y="1260"/>
      <point x="425" y="1420"/>
      <point x="817" y="1420" type="curve"/>
    </contour>
    <contour>
      <point x="817" y="1420" type="line"/>
      <point x="1176" y="1420"/>
      <point x="1470" y="1318"/>
      <point x="1470" y="1114" type="curve" smooth="yes"/>
      <point x="1470" y="1000"/>
      <point x="1377" y="934"/>
      <point x="1247" y="934" type="curve" smooth="yes"/>
      <point x="1127" y="934"/>
      <point x="1022" y="1012"/>
      <point x="1022" y="1112" type="curve" smooth="yes"/>
      <point x="1022" y="1282"/>
      <point x="1170" y="1255.85"/>
      <point x="1170" y="1299" type="curve" smooth="yes"/>
      <point x="1170" y="1347.46"/>
      <point x="1063.98" y="1390"/>
      <point x="817" y="1390" type="curve"/>
    </contour>
    <contour>
      <point x="873" y="-28" type="line"/>
      <point x="434" y="-28"/>
      <point x="80" y="74"/>
      <point x="80" y="298" type="curve" smooth="yes"/>
      <point x="80" y="412"/>
      <point x="183" y="468"/>
      <point x="313" y="468" type="curve" smooth="yes"/>
      <point x="433" y="468"/>
      <point x="528" y="390"/>
      <point x="528" y="290" type="curve" smooth="yes"/>
      <point x="528" y="119.997"/>
      <point x="370" y="156.147"/>
      <point x="370" y="113" type="curve" smooth="yes"/>
      <point x="370" y="54.5352"/>
      <point x="616.02" y="2"/>
      <point x="873" y="2" type="curve"/>
    </contour>
    <contour>
      <point x="702" y="1500" type="line"/>
      <point x="732" y="1500" type="line"/>
      <point x="732" y="-190" type="line"/>
      <point x="702" y="-190" type="line"/>
    </contour>
    <contour>
      <point x="872" y="1500" type="line"/>
      <point x="902" y="1500" type="line"/>
      <point x="902" y="-190" type="line"/>
      <point x="872" y="-190" type="line"/>
    </contour>
    <contour>
      <point x="376" y="1316" type="curve"/>
      <point x="244" y="1275"/>
      <point x="110" y="1130"/>
      <point x="110" y="970" type="curve" smooth="yes"/>
      <point x="110" y="700"/>
      <point x="288.442" y="564.972"/>
      <point x="830" y="512" type="curve" smooth="yes"/>
      <point x="1260.84" y="469.857"/>
      <point x="1400" y="413"/>
      <point x="1400" y="250" type="curve" smooth="yes"/>
      <point x="1400" y="184.086"/>
      <point x="1364.66" y="128.271"/>
      <point x="1312.45" y="93.4802" type="curve"/>
      <point x="1431.36" y="156.84"/>
      <point x="1518" y="228.162"/>
      <point x="1518" y="370" type="curve" smooth="yes"/>
      <point x="1518" y="622"/>
      <point x="1270" y="700"/>
      <point x="856" y="750" type="curve" smooth="yes"/>
      <point x="400.385" y="805.026"/>
      <point x="270" y="898"/>
      <point x="270" y="1100" type="curve" smooth="yes"/>
      <point x="270" y="1188"/>
      <point x="304" y="1266"/>
    </contour>
  </outline>
</glyph>
<glyph name="ampersand" format="2">
  <advance width="2222"/>
  <unicode hex="0026"/>
  <outline>
    <contour>
      <point x="1080" y="848" type="curve"/>
      <point x="1050" y="878" type="line"/>
      <point x="1198" y="929"/>
      <point x="1324" y="1036"/>
      <point x="1324" y="1174" type="curve" smooth="yes"/>
      <point x="1324" y="1292"/>
      <point x="1186" y="1390"/>
      <point x="992" y="1390" type="curve" smooth="yes"/>
      <point x="848" y="1390"/>
      <point x="796" y="1332"/>
      <point x="796" y="1260" type="curve" smooth="yes"/>
      <point x="796" y="1160"/>
      <point x="860" y="1103"/>
      <point x="952" y="1020" type="curve" smooth="yes"/>
      <point x="1500" y="523" type="line" smooth="yes"/>
      <point x="1604" y="429"/>
      <point x="1745" y="385"/>
      <point x="1840" y="385" type="curve" smooth="yes"/>
      <point x="1933" y="385"/>
      <point x="2028" y="422"/>
      <point x="2092" y="502" type="curve"/>
      <point x="2106" y="470"/>
      <point x="2122" y="405"/>
      <point x="2122" y="330" type="curve" smooth="yes"/>
      <point x="2122" y="98"/>
      <point x="1892" y="-20"/>
      <point x="1721" y="-20" type="curve" smooth="yes"/>
      <point x="1542" y="-20"/>
      <point x="1398" y="54"/>
      <point x="1278" y="167" type="curve"/>
      <point x="612" y="880" type="line" smooth="yes"/>
      <point x="554" y="942"/>
      <point x="495" y="996"/>
      <point x="495" y="1126" type="curve" smooth="yes"/>
      <point x="495" y="1306"/>
      <point x="660" y="1420"/>
      <point x="992" y="1420" type="curve" smooth="yes"/>
      <point x="1216" y="1420"/>
      <point x="1354" y="1314"/>
      <point x="1354" y="1174" type="curve" smooth="yes"/>
      <point x="1354" y="1020"/>
      <point x="1252" y="934"/>
    </contour>
    <contour>
      <point x="678" y="812" type="curve"/>
      <point x="711" y="783" type="line"/>
      <point x="627" y="765"/>
      <point x="490" y="678"/>
      <point x="490" y="504" type="curve" smooth="yes"/>
      <point x="490" y="278"/>
      <point x="610" y="67"/>
      <point x="842" y="67" type="curve" smooth="yes"/>
      <point x="999" y="67"/>
      <point x="1110" y="168"/>
      <point x="1197" y="265" type="curve"/>
      <point x="1220" y="238" type="line"/>
      <point x="1100" y="101"/>
      <point x="947" y="-20"/>
      <point x="652" y="-20" type="curve" smooth="yes"/>
      <point x="256" y="-20"/>
      <point x="100" y="144"/>
      <point x="100" y="370" type="curve" smooth="yes"/>
      <point x="100" y="628"/>
      <point x="432" y="768"/>
    </contour>
    <contour>
      <point x="1425" y="515" type="line"/>
      <point x="1568" y="697" type="line" smooth="yes"/>
      <point x="1592" y="727"/>
      <point x="1570" y="756"/>
      <point x="1524" y="788" type="curve" smooth="yes"/>
      <point x="1482" y="817"/>
      <point x="1435" y="841"/>
      <point x="1351" y="850" type="curve"/>
      <point x="1351" y="870" type="line"/>
      <point x="1985" y="870" type="line"/>
      <point x="1985" y="850" type="line"/>
      <point x="1939" y="846"/>
      <point x="1897" y="832"/>
      <point x="1815" y="805" type="curve" smooth="yes"/>
      <point x="1755" y="785"/>
      <point x="1654" y="751"/>
      <point x="1596" y="680" type="curve" smooth="yes"/>
      <point x="1442" y="491" type="line"/>
    </contour>
    <contour>
      <point x="832" y="1390" type="curve"/>
      <point x="660" y="1390"/>
      <point x="505" y="1286"/>
      <point x="505" y="1126" type="curve" smooth="yes"/>
      <point x="505" y="996"/>
      <point x="564" y="947"/>
      <point x="622" y="885" type="curve" smooth="yes"/>
      <point x="1287" y="177" type="line"/>
      <point x="1407" y="64"/>
      <point x="1542" y="-10"/>
      <point x="1721" y="-10" type="curve" smooth="yes"/>
      <point x="1882" y="-10"/>
      <point x="2112" y="108"/>
      <point x="2112" y="330" type="curve" smooth="yes"/>
      <point x="2112" y="405"/>
      <point x="2096" y="440"/>
      <point x="2082" y="472" type="curve"/>
      <point x="2018" y="392"/>
      <point x="1903" y="315"/>
      <point x="1770" y="315" type="curve" smooth="yes"/>
      <point x="1675" y="315"/>
      <point x="1534" y="359"/>
      <point x="1430" y="453" type="curve" smooth="yes"/>
      <point x="882" y="950" type="line" smooth="yes"/>
      <point x="790" y="1033"/>
      <point x="726" y="1090"/>
      <point x="726" y="1190" type="curve" smooth="yes"/>
      <point x="726" y="1262"/>
      <point x="758" y="1330"/>
    </contour>
    <contour>
      <point x="568" y="776" type="curve"/>
      <point x="332" y="719"/>
      <point x="110" y="568"/>
      <point x="110" y="370" type="curve" smooth="yes"/>
      <point x="110" y="144"/>
      <point x="276" y="-10"/>
      <point x="652" y="-10" type="curve" smooth="yes"/>
      <point x="797" y="-10"/>
      <point x="921" y="27"/>
      <point x="960" y="58" type="curve"/>
      <point x="940" y="44"/>
      <point x="869" y="37"/>
      <point x="802" y="37" type="curve" smooth="yes"/>
      <point x="500" y="37"/>
      <point x="340" y="208"/>
      <point x="340" y="444" type="curve" smooth="yes"/>
      <point x="340" y="618"/>
      <point x="468" y="712"/>
    </contour>
  </outline>
</glyph>
<glyph name="quotesingle" format="2">
  <advance width="840"/>
  <unicode hex="0027"/>
  <outline>
    <contour>
      <point x="488" y="1192" type="curve" smooth="yes"/>
      <point x="489.869" y="1206.02"/>
      <point x="490" y="1216"/>
      <point x="490" y="1228" type="curve" smooth="yes"/>
      <point x="490" y="1326"/>
      <point x="442" y="1400"/>
      <point x="364" y="1400" type="curve" smooth="yes"/>
      <point x="276" y="1400"/>
      <point x="210" y="1316"/>
      <point x="210" y="1228" type="curve" smooth="yes"/>
      <point x="210" y="1216"/>
      <point x="210.562" y="1205.93"/>
      <point x="213" y="1192" type="curve" smooth="yes"/>
      <point x="234" y="1072"/>
      <point x="355" y="986"/>
      <point x="385" y="886" type="curve"/>
      <point x="385" y="886" type="line"/>
      <point x="425" y="1016"/>
      <point x="468" y="1042"/>
    </contour>
    <contour>
      <point x="638" y="1192" type="curve" smooth="yes"/>
      <point x="618" y="1042"/>
      <point x="435" y="966"/>
      <point x="435" y="746" type="curve"/>
      <point x="405" y="746" type="line"/>
      <point x="405" y="966"/>
      <point x="222" y="1042"/>
      <point x="202" y="1192" type="curve" smooth="yes"/>
      <point x="200" y="1206"/>
      <point x="200" y="1216"/>
      <point x="200" y="1228" type="curve" smooth="yes"/>
      <point x="200" y="1346"/>
      <point x="302" y="1430"/>
      <point x="420" y="1430" type="curve" smooth="yes"/>
      <point x="538" y="1430"/>
      <point x="640" y="1346"/>
      <point x="640" y="1228" type="curve" smooth="yes"/>
      <point x="640" y="1216"/>
      <point x="640" y="1206"/>
    </contour>
  </outline>
</glyph>
<glyph name="parenleft" format="2">
  <advance width="910"/>
  <unicode hex="0028"/>
  <outline>
    <contour>
      <point x="780" y="-208" type="curve"/>
      <point x="552" y="-58"/>
      <point x="382" y="291"/>
      <point x="382" y="675" type="curve" smooth="yes"/>
      <point x="382" y="1059"/>
      <point x="552" y="1368"/>
      <point x="780" y="1518" type="curve"/>
      <point x="354" y="1366"/>
      <point x="140" y="1091"/>
      <point x="140" y="675" type="curve" smooth="yes"/>
      <point x="140" y="259"/>
      <point x="354" y="-48"/>
    </contour>
    <contour>
      <point x="890" y="-238" type="curve"/>
      <point x="880" y="-253" type="line"/>
      <point x="394" y="-113"/>
      <point x="130" y="209"/>
      <point x="130" y="675" type="curve" smooth="yes"/>
      <point x="130" y="1141"/>
      <point x="394" y="1423"/>
      <point x="880" y="1563" type="curve"/>
      <point x="890" y="1548" type="line"/>
      <point x="662" y="1448"/>
      <point x="532" y="1059"/>
      <point x="532" y="675" type="curve" smooth="yes"/>
      <point x="532" y="291"/>
      <point x="662" y="-138"/>
    </contour>
  </outline>
</glyph>
<glyph name="parenright" format="2">
  <advance width="910"/>
  <unicode hex="0029"/>
  <outline>
    <contour>
      <point x="100" y="1518" type="curve"/>
      <point x="278" y="1368"/>
      <point x="388" y="1019"/>
      <point x="388" y="635" type="curve" smooth="yes"/>
      <point x="388" y="251"/>
      <point x="278" y="-58"/>
      <point x="100" y="-208" type="curve"/>
      <point x="476" y="-48"/>
      <point x="630" y="219"/>
      <point x="630" y="635" type="curve" smooth="yes"/>
      <point x="630" y="1051"/>
      <point x="476" y="1358"/>
    </contour>
    <contour>
      <point x="20" y="1548" type="curve"/>
      <point x="30" y="1563" type="line"/>
      <point x="516" y="1423"/>
      <point x="780" y="1101"/>
      <point x="780" y="635" type="curve" smooth="yes"/>
      <point x="780" y="169"/>
      <point x="516" y="-113"/>
      <point x="30" y="-253" type="curve"/>
      <point x="20" y="-238" type="line"/>
      <point x="248" y="-138"/>
      <point x="378" y="251"/>
      <point x="378" y="635" type="curve" smooth="yes"/>
      <point x="378" y="1019"/>
      <point x="248" y="1448"/>
    </contour>
  </outline>
</glyph>
<glyph name="asterisk" format="2">
  <advance width="1443"/>
  <unicode hex="002A"/>
  <outline>
    <contour>
      <point x="529" y="941" type="curve"/>
      <point x="474.737" y="1068.68"/>
      <point x="447.114" y="1225.78"/>
      <point x="345" y="1260" type="curve" smooth="yes"/>
      <point x="277.194" y="1282.72"/>
      <point x="185.746" y="1262.05"/>
      <point x="138" y="1173" type="curve" smooth="yes"/>
      <point x="87.1461" y="1078.16"/>
      <point x="117.29" y="977.659"/>
      <point x="190" y="930" type="curve" smooth="yes"/>
      <point x="272.713" y="875.784"/>
      <point x="413.139" y="909.686"/>
    </contour>
    <contour>
      <point x="773" y="806" type="curve"/>
      <point x="914" y="666"/>
      <point x="904.036" y="582.012"/>
      <point x="972" y="497" type="curve" smooth="yes"/>
      <point x="1028.93" y="425.785"/>
      <point x="1156.96" y="457.423"/>
      <point x="1208" y="541" type="curve" smooth="yes"/>
      <point x="1268.11" y="639.423"/>
      <point x="1232.74" y="763.199"/>
      <point x="1130" y="786" type="curve" smooth="yes"/>
      <point x="1027.9" y="808.658"/>
      <point x="994" y="756"/>
    </contour>
    <contour>
      <point x="769" y="863" type="curve"/>
      <point x="990" y="913"/>
      <point x="1023.9" y="860.342"/>
      <point x="1126" y="883" type="curve" smooth="yes"/>
      <point x="1228.74" y="905.801"/>
      <point x="1264.11" y="1029.58"/>
      <point x="1204" y="1128" type="curve" smooth="yes"/>
      <point x="1152.96" y="1211.58"/>
      <point x="1024.93" y="1243.21"/>
      <point x="968" y="1172" type="curve" smooth="yes"/>
      <point x="900.036" y="1086.99"/>
      <point x="910" y="1003"/>
    </contour>
    <contour>
      <point x="809" y="390" type="curve" smooth="yes"/>
      <point x="789" y="540"/>
      <point x="741" y="586"/>
      <point x="701" y="716" type="curve"/>
      <point x="681" y="616"/>
      <point x="555" y="510"/>
      <point x="534" y="390" type="curve" smooth="yes"/>
      <point x="531.562" y="376.069"/>
      <point x="531" y="366"/>
      <point x="531" y="354" type="curve" smooth="yes"/>
      <point x="531" y="266"/>
      <point x="597" y="182"/>
      <point x="685" y="182" type="curve" smooth="yes"/>
      <point x="763" y="182"/>
      <point x="811" y="256"/>
      <point x="811" y="354" type="curve" smooth="yes"/>
      <point x="811" y="366"/>
      <point x="810.869" y="375.981"/>
    </contour>
    <contour>
      <point x="810" y="1282" type="curve" smooth="yes"/>
      <point x="811.869" y="1296.02"/>
      <point x="812" y="1306"/>
      <point x="812" y="1318" type="curve" smooth="yes"/>
      <point x="812" y="1416"/>
      <point x="764" y="1490"/>
      <point x="686" y="1490" type="curve" smooth="yes"/>
      <point x="598" y="1490"/>
      <point x="532" y="1406"/>
      <point x="532" y="1318" type="curve" smooth="yes"/>
      <point x="532" y="1306"/>
      <point x="532.562" y="1295.93"/>
      <point x="535" y="1282" type="curve" smooth="yes"/>
      <point x="556" y="1162"/>
      <point x="682" y="1056"/>
      <point x="702" y="956" type="curve"/>
      <point x="742" y="1086"/>
      <point x="790" y="1132"/>
    </contour>
    <contour>
      <point x="715" y="849" type="curve" smooth="yes"/>
      <point x="906" y="959"/>
      <point x="889" y="1138"/>
      <point x="1009" y="1230" type="curve" smooth="yes"/>
      <point x="1020" y="1239"/>
      <point x="1029" y="1244"/>
      <point x="1039" y="1250" type="curve" smooth="yes"/>
      <point x="1141" y="1309"/>
      <point x="1255" y="1280"/>
      <point x="1314" y="1178" type="curve" smooth="yes"/>
      <point x="1373" y="1076"/>
      <point x="1341" y="963"/>
      <point x="1239" y="904" type="curve" smooth="yes"/>
      <point x="1229" y="898"/>
      <point x="1220" y="893"/>
      <point x="1207" y="888" type="curve" smooth="yes"/>
      <point x="1067" y="830"/>
      <point x="920" y="933"/>
      <point x="729" y="823" type="curve" smooth="yes"/>
      <point x="538" y="713"/>
      <point x="555" y="534"/>
      <point x="435" y="442" type="curve" smooth="yes"/>
      <point x="424" y="433"/>
      <point x="415" y="428"/>
      <point x="405" y="422" type="curve" smooth="yes"/>
      <point x="303" y="363"/>
      <point x="189" y="392"/>
      <point x="130" y="494" type="curve" smooth="yes"/>
      <point x="71" y="596"/>
      <point x="103" y="709"/>
      <point x="205" y="768" type="curve" smooth="yes"/>
      <point x="215" y="774"/>
      <point x="224" y="779"/>
      <point x="237" y="784" type="curve" smooth="yes"/>
      <point x="377" y="842"/>
      <point x="524" y="739"/>
    </contour>
    <contour>
      <point x="729" y="849" type="curve" smooth="yes"/>
      <point x="920" y="739"/>
      <point x="1067" y="842"/>
      <point x="1207" y="784" type="curve" smooth="yes"/>
      <point x="1220" y="779"/>
      <point x="1229" y="774"/>
      <point x="1239" y="768" type="curve" smooth="yes"/>
      <point x="1341" y="709"/>
      <point x="1373" y="596"/>
      <point x="1314" y="494" type="curve" smooth="yes"/>
      <point x="1255" y="392"/>
      <point x="1141" y="363"/>
      <point x="1039" y="422" type="curve" smooth="yes"/>
      <point x="1029" y="428"/>
      <point x="1020" y="433"/>
      <point x="1009" y="442" type="curve" smooth="yes"/>
      <point x="889" y="534"/>
      <point x="906" y="713"/>
      <point x="715" y="823" type="curve" smooth="yes"/>
      <point x="524" y="933"/>
      <point x="377" y="830"/>
      <point x="237" y="888" type="curve" smooth="yes"/>
      <point x="224" y="893"/>
      <point x="215" y="898"/>
      <point x="205" y="904" type="curve" smooth="yes"/>
      <point x="103" y="963"/>
      <point x="71" y="1076"/>
      <point x="130" y="1178" type="curve" smooth="yes"/>
      <point x="189" y="1280"/>
      <point x="303" y="1309"/>
      <point x="405" y="1250" type="curve" smooth="yes"/>
      <point x="415" y="1244"/>
      <point x="424" y="1239"/>
      <point x="435" y="1230" type="curve" smooth="yes"/>
      <point x="555" y="1138"/>
      <point x="538" y="959"/>
    </contour>
    <contour>
      <point x="737" y="836" type="curve" smooth="yes"/>
      <point x="737" y="616"/>
      <point x="900" y="540"/>
      <point x="920" y="390" type="curve" smooth="yes"/>
      <point x="922" y="376"/>
      <point x="922" y="366"/>
      <point x="922" y="354" type="curve" smooth="yes"/>
      <point x="922" y="236"/>
      <point x="840" y="152"/>
      <point x="722" y="152" type="curve" smooth="yes"/>
      <point x="604" y="152"/>
      <point x="522" y="236"/>
      <point x="522" y="354" type="curve" smooth="yes"/>
      <point x="522" y="366"/>
      <point x="522" y="376"/>
      <point x="524" y="390" type="curve" smooth="yes"/>
      <point x="544" y="540"/>
      <point x="707" y="616"/>
      <point x="707" y="836" type="curve" smooth="yes"/>
      <point x="707" y="1056"/>
      <point x="544" y="1132"/>
      <point x="524" y="1282" type="curve" smooth="yes"/>
      <point x="522" y="1296"/>
      <point x="522" y="1306"/>
      <point x="522" y="1318" type="curve" smooth="yes"/>
      <point x="522" y="1436"/>
      <point x="604" y="1520"/>
      <point x="722" y="1520" type="curve" smooth="yes"/>
      <point x="840" y="1520"/>
      <point x="922" y="1436"/>
      <point x="922" y="1318" type="curve" smooth="yes"/>
      <point x="922" y="1306"/>
      <point x="922" y="1296"/>
      <point x="920" y="1282" type="curve" smooth="yes"/>
      <point x="900" y="1132"/>
      <point x="737" y="1056"/>
    </contour>
    <contour>
      <point x="532" y="721" type="curve"/>
      <point x="416.139" y="752.314"/>
      <point x="275.713" y="799.216"/>
      <point x="193" y="745" type="curve" smooth="yes"/>
      <point x="120.29" y="697.341"/>
      <point x="90.1465" y="596.845"/>
      <point x="141" y="502" type="curve" smooth="yes"/>
      <point x="188.746" y="412.951"/>
      <point x="280.194" y="392.276"/>
      <point x="348" y="415" type="curve" smooth="yes"/>
      <point x="450.114" y="449.222"/>
      <point x="477.737" y="593.324"/>
    </contour>
  </outline>
</glyph>
<glyph name="plus" format="2">
  <advance width="1350"/>
  <unicode hex="002B"/>
  <outline>
    <contour>
      <point x="570" y="1000" type="line"/>
      <point x="770" y="1000" type="line"/>
      <point x="770" y="600" type="line"/>
      <point x="1170" y="600" type="line"/>
      <point x="1170" y="420" type="line"/>
      <point x="770" y="420" type="line"/>
      <point x="770" y="20" type="line"/>
      <point x="570" y="20" type="line"/>
      <point x="570" y="420" type="line"/>
      <point x="180" y="420" type="line"/>
      <point x="180" y="600" type="line"/>
      <point x="570" y="600" type="line"/>
    </contour>
    <contour>
      <point x="580" y="590" type="line"/>
      <point x="190" y="590" type="line"/>
      <point x="190" y="430" type="line"/>
      <point x="580" y="430" type="line"/>
      <point x="580" y="30" type="line"/>
      <point x="690" y="30" type="line"/>
      <point x="690" y="430" type="line"/>
      <point x="800" y="430"/>
      <point x="910" y="430"/>
      <point x="1020" y="430" type="curve"/>
      <point x="1020" y="590" type="line"/>
      <point x="910" y="590"/>
      <point x="800" y="590"/>
      <point x="690" y="590" type="curve"/>
      <point x="690" y="990" type="line"/>
      <point x="580" y="990" type="line"/>
    </contour>
  </outline>
</glyph>
<glyph name="comma" format="2">
  <advance width="918"/>
  <unicode hex="002C"/>
  <outline>
    <contour>
      <point x="214" y="218" type="curve" smooth="yes"/>
      <point x="214" y="100"/>
      <point x="295" y="-10"/>
      <point x="440" y="-10" type="curve" smooth="yes"/>
      <point x="517" y="-10"/>
      <point x="540" y="26"/>
      <point x="563" y="26" type="curve" smooth="yes"/>
      <point x="572" y="26"/>
      <point x="585" y="20"/>
      <point x="585" y="1" type="curve" smooth="yes"/>
      <point x="585" y="-20"/>
      <point x="577" y="-58"/>
      <point x="569" y="-73" type="curve"/>
      <point x="571" y="-75" type="line"/>
      <point x="602" y="-44"/>
      <point x="628" y="31"/>
      <point x="628" y="98" type="curve" smooth="yes"/>
      <point x="628" y="245"/>
      <point x="516" y="371"/>
      <point x="398" y="371" type="curve" smooth="yes"/>
      <point x="282" y="371"/>
      <point x="214" y="324"/>
    </contour>
    <contour>
      <point x="204" y="218" type="curve" smooth="yes"/>
      <point x="204" y="344"/>
      <point x="312" y="456"/>
      <point x="458" y="456" type="curve" smooth="yes"/>
      <point x="606" y="456"/>
      <point x="718" y="334"/>
      <point x="718" y="148" type="curve" smooth="yes"/>
      <point x="718" y="-123"/>
      <point x="510" y="-312"/>
      <point x="200" y="-312" type="curve"/>
      <point x="200" y="-292" type="line"/>
      <point x="438" y="-282"/>
      <point x="575" y="-128"/>
      <point x="575" y="1" type="curve" smooth="yes"/>
      <point x="575" y="6"/>
      <point x="573" y="18"/>
      <point x="561" y="18" type="curve" smooth="yes"/>
      <point x="544" y="18"/>
      <point x="519" y="-20"/>
      <point x="440" y="-20" type="curve" smooth="yes"/>
      <point x="294" y="-20"/>
      <point x="204" y="92"/>
    </contour>
  </outline>
</glyph>
<glyph name="hyphen" format="2">
  <advance width="560"/>
  <unicode hex="002D"/>
  <outline>
    <contour>
      <point x="50" y="460" type="line"/>
      <point x="370" y="460" type="line"/>
      <point x="370" y="620" type="line"/>
      <point x="50" y="620" type="line"/>
    </contour>
    <contour>
      <point x="40" y="450" type="line"/>
      <point x="40" y="650" type="line"/>
      <point x="520" y="650" type="line"/>
      <point x="520" y="450" type="line"/>
    </contour>
  </outline>
</glyph>
<glyph name="period" format="2">
  <advance width="880"/>
  <unicode hex="002E"/>
  <outline>
    <contour>
      <point x="210" y="220" type="curve" smooth="yes"/>
      <point x="210" y="104"/>
      <point x="300" y="5"/>
      <point x="395" y="5" type="curve" smooth="yes"/>
      <point x="497" y="5"/>
      <point x="550" y="78"/>
      <point x="550" y="220" type="curve" smooth="yes"/>
      <point x="550" y="362"/>
      <point x="497" y="435"/>
      <point x="395" y="435" type="curve" smooth="yes"/>
      <point x="293" y="435"/>
      <point x="210" y="326"/>
    </contour>
    <contour>
      <point x="200" y="220" type="curve" smooth="yes"/>
      <point x="200" y="352"/>
      <point x="308" y="460"/>
      <point x="440" y="460" type="curve" smooth="yes"/>
      <point x="572" y="460"/>
      <point x="680" y="352"/>
      <point x="680" y="220" type="curve" smooth="yes"/>
      <point x="680" y="88"/>
      <point x="572" y="-20"/>
      <point x="440" y="-20" type="curve" smooth="yes"/>
      <point x="308" y="-20"/>
      <point x="200" y="88"/>
    </contour>
  </outline>
</glyph>
<glyph name="slash" format="2">
  <advance width="1330"/>
  <unicode hex="002F"/>
  <outline>
    <contour>
      <point x="1220" y="1400" type="line"/>
      <point x="150" y="0" type="line"/>
      <point x="110" y="0" type="line"/>
      <point x="1180" y="1400" type="line"/>
    </contour>
  </outline>
</glyph>
<glyph name="zero" format="2">
  <advance width="1960"/>
  <unicode hex="0030"/>
  <outline>
    <contour>
      <point x="980" y="-20" type="curve" smooth="yes"/>
      <point x="614" y="-20"/>
      <point x="160" y="256"/>
      <point x="160" y="700" type="curve" smooth="yes"/>
      <point x="160" y="1144"/>
      <point x="634" y="1420"/>
      <point x="980" y="1420" type="curve" smooth="yes"/>
      <point x="1326" y="1420"/>
      <point x="1800" y="1144"/>
      <point x="1800" y="700" type="curve" smooth="yes"/>
      <point x="1800" y="256"/>
      <point x="1346" y="-20"/>
    </contour>
    <contour>
      <point x="980" y="1390" type="curve" smooth="yes"/>
      <point x="702" y="1390"/>
      <point x="630" y="1264"/>
      <point x="630" y="700" type="curve" smooth="yes"/>
      <point x="630" y="136"/>
      <point x="682" y="0"/>
      <point x="980" y="0" type="curve" smooth="yes"/>
      <point x="1278" y="0"/>
      <point x="1330" y="136"/>
      <point x="1330" y="700" type="curve" smooth="yes"/>
      <point x="1330" y="1264"/>
      <point x="1278" y="1390"/>
    </contour>
    <contour>
      <point x="470" y="700" type="curve" smooth="yes"/>
      <point x="470" y="974"/>
      <point x="542" y="1269"/>
      <point x="710" y="1359" type="curve"/>
      <point x="406" y="1248"/>
      <point x="170" y="1014"/>
      <point x="170" y="700" type="curve" smooth="yes"/>
      <point x="170" y="376"/>
      <point x="406" y="147"/>
      <point x="710" y="36" type="curve"/>
      <point x="542" y="136"/>
      <point x="470" y="426"/>
    </contour>
    <contour>
      <point x="1136.49" y="7.34356" type="curve"/>
      <point x="1461.03" y="95.1199"/>
      <point x="1650" y="346.064"/>
      <point x="1650" y="700" type="curve" smooth="yes"/>
      <point x="1650" y="1074"/>
      <point x="1434" y="1351"/>
      <point x="1080" y="1394" type="curve"/>
      <point x="1328" y="1356"/>
      <point x="1340" y="1134"/>
      <point x="1340" y="700" type="curve" smooth="yes"/>
      <point x="1340" y="301.67"/>
      <point x="1329.89" y="71.8151"/>
    </contour>
  </outline>
</glyph>
<glyph name="one" format="2">
  <advance width="1496"/>
  <unicode hex="0031"/>
  <outline>
    <contour>
      <point x="266" y="13" type="curve"/>
      <point x="266" y="10" type="line"/>
      <point x="580" y="10" type="line"/>
      <point x="822" y="10" type="line"/>
      <point x="1066" y="10" type="line"/>
      <point x="1066" y="13" type="line"/>
      <point x="1013.98" y="31"/>
      <point x="982.164" y="40.9365"/>
      <point x="943.708" y="56" type="curve" smooth="yes"/>
      <point x="865.731" y="86.5439"/>
      <point x="822" y="113"/>
      <point x="822" y="175" type="curve" smooth="yes"/>
      <point x="822" y="1376" type="line"/>
      <point x="580" y="1241" type="line"/>
      <point x="580" y="175" type="line" smooth="yes"/>
      <point x="580" y="113"/>
      <point x="545.861" y="95.9707"/>
      <point x="447.292" y="57" type="curve" smooth="yes"/>
      <point x="389.182" y="34.0254"/>
      <point x="338.024" y="21"/>
    </contour>
    <contour>
      <point x="200" y="1080" type="line"/>
      <point x="972" y="1490" type="line"/>
      <point x="972" y="175" type="line" smooth="yes"/>
      <point x="972" y="120"/>
      <point x="1000" y="104"/>
      <point x="1100" y="65" type="curve" smooth="yes"/>
      <point x="1165" y="39"/>
      <point x="1215" y="29"/>
      <point x="1296" y="20" type="curve"/>
      <point x="1296" y="0" type="line"/>
      <point x="246" y="0" type="line"/>
      <point x="246" y="20" type="line"/>
      <point x="327" y="29"/>
      <point x="377" y="39"/>
      <point x="442" y="65" type="curve" smooth="yes"/>
      <point x="542" y="104"/>
      <point x="570" y="120"/>
      <point x="570" y="175" type="curve" smooth="yes"/>
      <point x="570" y="1237" type="line"/>
      <point x="200" y="1044" type="line"/>
    </contour>
  </outline>
</glyph>
<glyph name="two" format="2">
  <advance width="1848"/>
  <unicode hex="0032"/>
  <outline>
    <contour>
      <point x="549" y="1049" type="curve" smooth="yes"/>
      <point x="549" y="1167"/>
      <point x="459" y="1194"/>
      <point x="403" y="1194" type="curve" smooth="yes"/>
      <point x="371.04" y="1194"/>
      <point x="308" y="1168.61"/>
      <point x="308" y="1211" type="curve" smooth="yes"/>
      <point x="308" y="1232"/>
      <point x="315" y="1260"/>
      <point x="323" y="1275" type="curve"/>
      <point x="321" y="1277" type="line"/>
      <point x="270" y="1236"/>
      <point x="189" y="1167"/>
      <point x="189" y="1050" type="curve" smooth="yes"/>
      <point x="189" y="903"/>
      <point x="317" y="886"/>
      <point x="395" y="886" type="curve" smooth="yes"/>
      <point x="491" y="886"/>
      <point x="549" y="953"/>
    </contour>
    <contour>
      <point x="1478" y="1010" type="curve" smooth="yes"/>
      <point x="1478" y="1264"/>
      <point x="1182" y="1375"/>
      <point x="928" y="1388" type="curve"/>
      <point x="1083" y="1344"/>
      <point x="1178" y="1246"/>
      <point x="1178" y="1030" type="curve" smooth="yes"/>
      <point x="1178" y="816"/>
      <point x="1086" y="723"/>
      <point x="928" y="639" type="curve"/>
      <point x="1162" y="712"/>
      <point x="1478" y="746"/>
    </contour>
    <contour>
      <point x="304" y="204" type="curve"/>
      <point x="359" y="226"/>
      <point x="402" y="234"/>
      <point x="448" y="234" type="curve" smooth="yes"/>
      <point x="746" y="234"/>
      <point x="767" y="-40"/>
      <point x="1221" y="-40" type="curve" smooth="yes"/>
      <point x="1449" y="-40"/>
      <point x="1628" y="45"/>
      <point x="1680" y="264" type="curve"/>
      <point x="1640" y="168"/>
      <point x="1528" y="100"/>
      <point x="1392" y="100" type="curve" smooth="yes"/>
      <point x="1059" y="100"/>
      <point x="1016" y="354"/>
      <point x="688" y="354" type="curve" smooth="yes"/>
      <point x="522" y="354"/>
      <point x="393" y="302"/>
    </contour>
    <contour>
      <point x="160" y="-20" type="line"/>
      <point x="160" y="293"/>
      <point x="410" y="508"/>
      <point x="680" y="582" type="curve" smooth="yes"/>
      <point x="1033" y="678"/>
      <point x="1168" y="766"/>
      <point x="1168" y="1030" type="curve" smooth="yes"/>
      <point x="1168" y="1283"/>
      <point x="1032" y="1387"/>
      <point x="800" y="1387" type="curve" smooth="yes"/>
      <point x="553" y="1387"/>
      <point x="327" y="1292"/>
      <point x="327" y="1224" type="curve" smooth="yes"/>
      <point x="327" y="1215"/>
      <point x="330" y="1209"/>
      <point x="337" y="1209" type="curve" smooth="yes"/>
      <point x="363" y="1209"/>
      <point x="390" y="1224"/>
      <point x="448" y="1224" type="curve" smooth="yes"/>
      <point x="567" y="1224"/>
      <point x="675" y="1152"/>
      <point x="675" y="1022" type="curve" smooth="yes"/>
      <point x="675" y="882"/>
      <point x="560" y="804"/>
      <point x="430" y="804" type="curve" smooth="yes"/>
      <point x="300" y="804"/>
      <point x="177" y="890"/>
      <point x="177" y="1054" type="curve" smooth="yes"/>
      <point x="177" y="1258"/>
      <point x="451" y="1420"/>
      <point x="810" y="1420" type="curve" smooth="yes"/>
      <point x="1272" y="1420"/>
      <point x="1638" y="1261"/>
      <point x="1638" y="1001" type="curve" smooth="yes"/>
      <point x="1638" y="710"/>
      <point x="1090" y="661"/>
      <point x="692" y="553" type="curve" smooth="yes"/>
      <point x="463" y="491"/>
      <point x="260" y="336"/>
      <point x="205" y="106" type="curve"/>
      <point x="276" y="285"/>
      <point x="497" y="424"/>
      <point x="798" y="424" type="curve" smooth="yes"/>
      <point x="1115" y="424"/>
      <point x="1230" y="240"/>
      <point x="1491" y="240" type="curve" smooth="yes"/>
      <point x="1629" y="240"/>
      <point x="1678" y="312"/>
      <point x="1688" y="456" type="curve"/>
      <point x="1708" y="456" type="line"/>
      <point x="1708" y="158"/>
      <point x="1591" y="-50"/>
      <point x="1221" y="-50" type="curve" smooth="yes"/>
      <point x="758" y="-50"/>
      <point x="737" y="224"/>
      <point x="448" y="224" type="curve" smooth="yes"/>
      <point x="326" y="224"/>
      <point x="210" y="160"/>
      <point x="200" y="-20" type="curve"/>
    </contour>
  </outline>
</glyph>
<glyph name="three" format="2">
  <advance width="1852"/>
  <unicode hex="0033"/>
  <outline>
    <contour>
      <point x="470" y="399" type="curve" smooth="yes"/>
      <point x="470" y="495"/>
      <point x="412" y="542"/>
      <point x="316" y="542" type="curve" smooth="yes"/>
      <point x="238" y="542"/>
      <point x="110" y="484"/>
      <point x="110" y="337" type="curve" smooth="yes"/>
      <point x="110" y="220"/>
      <point x="192" y="164"/>
      <point x="242" y="124" type="curve"/>
      <point x="244" y="126" type="line"/>
      <point x="206" y="178"/>
      <point x="201" y="188"/>
      <point x="201" y="207" type="curve" smooth="yes"/>
      <point x="201" y="225.39"/>
      <point x="212.04" y="244"/>
      <point x="294" y="244" type="curve" smooth="yes"/>
      <point x="350" y="244"/>
      <point x="470" y="251"/>
    </contour>
    <contour>
      <point x="509" y="1089" type="curve" smooth="yes"/>
      <point x="509" y="1207"/>
      <point x="419" y="1234"/>
      <point x="363" y="1234" type="curve" smooth="yes"/>
      <point x="331.04" y="1234"/>
      <point x="290" y="1221.61"/>
      <point x="290" y="1254" type="curve" smooth="yes"/>
      <point x="290" y="1265"/>
      <point x="292" y="1265"/>
      <point x="323" y="1315" type="curve"/>
      <point x="321" y="1317" type="line"/>
      <point x="241" y="1276"/>
      <point x="149" y="1207"/>
      <point x="149" y="1090" type="curve" smooth="yes"/>
      <point x="149" y="943"/>
      <point x="277" y="926"/>
      <point x="355" y="926" type="curve" smooth="yes"/>
      <point x="451" y="926"/>
      <point x="509" y="993"/>
    </contour>
    <contour>
      <point x="1541" y="364" type="curve" smooth="yes"/>
      <point x="1541" y="588"/>
      <point x="1304" y="715"/>
      <point x="940" y="728" type="curve"/>
      <point x="1149" y="696"/>
      <point x="1270" y="625"/>
      <point x="1270" y="366" type="curve" smooth="yes"/>
      <point x="1270" y="111"/>
      <point x="1008" y="39"/>
      <point x="870" y="15" type="curve"/>
      <point x="1154" y="18"/>
      <point x="1541" y="80"/>
    </contour>
    <contour>
      <point x="1491" y="1080" type="curve" smooth="yes"/>
      <point x="1491" y="1324"/>
      <point x="1134" y="1378"/>
      <point x="870" y="1391" type="curve"/>
      <point x="1001" y="1365"/>
      <point x="1220" y="1314"/>
      <point x="1220" y="1070" type="curve" smooth="yes"/>
      <point x="1220" y="856"/>
      <point x="1029" y="793"/>
      <point x="930" y="771" type="curve"/>
      <point x="1164" y="784"/>
      <point x="1491" y="836"/>
    </contour>
    <contour>
      <point x="726" y="734" type="curve"/>
      <point x="726" y="744"/>
      <point x="726" y="754"/>
      <point x="726" y="764" type="curve"/>
      <point x="944" y="764"/>
      <point x="1210" y="824"/>
      <point x="1210" y="1072" type="curve" smooth="yes"/>
      <point x="1210" y="1310"/>
      <point x="980" y="1383"/>
      <point x="762" y="1383" type="curve" smooth="yes"/>
      <point x="515" y="1383"/>
      <point x="319" y="1300"/>
      <point x="319" y="1266" type="curve" smooth="yes"/>
      <point x="319" y="1259"/>
      <point x="322" y="1255"/>
      <point x="329" y="1255" type="curve" smooth="yes"/>
      <point x="345" y="1255"/>
      <point x="362" y="1270"/>
      <point x="410" y="1270" type="curve" smooth="yes"/>
      <point x="529" y="1270"/>
      <point x="627" y="1198"/>
      <point x="627" y="1068" type="curve" smooth="yes"/>
      <point x="627" y="928"/>
      <point x="522" y="860"/>
      <point x="392" y="860" type="curve" smooth="yes"/>
      <point x="262" y="860"/>
      <point x="139" y="946"/>
      <point x="139" y="1090" type="curve" smooth="yes"/>
      <point x="139" y="1324"/>
      <point x="473" y="1418"/>
      <point x="842" y="1418" type="curve" smooth="yes"/>
      <point x="1315" y="1418"/>
      <point x="1642" y="1293"/>
      <point x="1642" y="1072" type="curve" smooth="yes"/>
      <point x="1642" y="870"/>
      <point x="1368" y="769"/>
      <point x="920" y="748" type="curve"/>
      <point x="1392" y="719"/>
      <point x="1692" y="582"/>
      <point x="1692" y="360" type="curve" smooth="yes"/>
      <point x="1692" y="70"/>
      <point x="1164" y="-20"/>
      <point x="832" y="-20" type="curve" smooth="yes"/>
      <point x="448" y="-20"/>
      <point x="100" y="103"/>
      <point x="100" y="338" type="curve" smooth="yes"/>
      <point x="100" y="470"/>
      <point x="200" y="556"/>
      <point x="350" y="556" type="curve" smooth="yes"/>
      <point x="461" y="556"/>
      <point x="597" y="477"/>
      <point x="597" y="345" type="curve" smooth="yes"/>
      <point x="597" y="211"/>
      <point x="483" y="150"/>
      <point x="384" y="150" type="curve" smooth="yes"/>
      <point x="316" y="150"/>
      <point x="306" y="173"/>
      <point x="288" y="173" type="curve" smooth="yes"/>
      <point x="284" y="173"/>
      <point x="281" y="171"/>
      <point x="281" y="167" type="curve" smooth="yes"/>
      <point x="281" y="117"/>
      <point x="480" y="20"/>
      <point x="752" y="20" type="curve" smooth="yes"/>
      <point x="1020" y="20"/>
      <point x="1260" y="142"/>
      <point x="1260" y="360" type="curve" smooth="yes"/>
      <point x="1260" y="588"/>
      <point x="1194" y="734"/>
    </contour>
  </outline>
</glyph>
<glyph name="four" format="2">
  <advance width="1665"/>
  <unicode hex="0034"/>
  <outline>
    <contour>
      <point x="90" y="448" type="line"/>
      <point x="206" y="448" type="line"/>
      <point x="206" y="647" type="line"/>
      <point x="90" y="553" type="line"/>
    </contour>
    <contour>
      <point x="1420" y="433" type="curve"/>
      <point x="1460" y="422"/>
      <point x="1477" y="418"/>
      <point x="1515" y="336" type="curve"/>
      <point x="1515" y="531" type="line"/>
      <point x="1471" y="439"/>
      <point x="1450" y="438"/>
    </contour>
    <contour>
      <point x="510" y="13" type="curve"/>
      <point x="510" y="10" type="line"/>
      <point x="824" y="10" type="line"/>
      <point x="1066" y="10" type="line"/>
      <point x="1310" y="10" type="line"/>
      <point x="1310" y="13" type="line"/>
      <point x="1257.98" y="31"/>
      <point x="1226.16" y="40.9365"/>
      <point x="1187.71" y="56" type="curve" smooth="yes"/>
      <point x="1109.73" y="86.5439"/>
      <point x="1066" y="113"/>
      <point x="1066" y="175" type="curve" smooth="yes"/>
      <point x="1066" y="1349" type="line"/>
      <point x="824" y="1146" type="line"/>
      <point x="824" y="175" type="line" smooth="yes"/>
      <point x="824" y="113"/>
      <point x="789.861" y="95.9707"/>
      <point x="691.292" y="57" type="curve" smooth="yes"/>
      <point x="633.182" y="34.0254"/>
      <point x="582.024" y="21"/>
    </contour>
    <contour>
      <point x="814" y="448" type="line"/>
      <point x="814" y="1138" type="line"/>
      <point x="286" y="708" type="line"/>
      <point x="286" y="448" type="line"/>
    </contour>
    <contour>
      <point x="1540" y="20" type="curve"/>
      <point x="1540" y="0" type="line"/>
      <point x="490" y="0" type="line"/>
      <point x="490" y="20" type="line"/>
      <point x="571" y="29"/>
      <point x="621" y="39"/>
      <point x="686" y="65" type="curve" smooth="yes"/>
      <point x="786" y="104"/>
      <point x="814" y="120"/>
      <point x="814" y="175" type="curve" smooth="yes"/>
      <point x="814" y="418" type="line"/>
      <point x="80" y="418" type="line"/>
      <point x="80" y="576" type="line"/>
      <point x="1216" y="1500" type="line"/>
      <point x="1216" y="448" type="line"/>
      <point x="1420" y="448" type="line" smooth="yes"/>
      <point x="1456" y="448"/>
      <point x="1477" y="467"/>
      <point x="1500" y="516" type="curve" smooth="yes"/>
      <point x="1526" y="571"/>
      <point x="1538" y="591"/>
      <point x="1545" y="622" type="curve"/>
      <point x="1565" y="622" type="line"/>
      <point x="1565" y="244" type="line"/>
      <point x="1545" y="244" type="line"/>
      <point x="1538" y="275"/>
      <point x="1526" y="295"/>
      <point x="1500" y="350" type="curve" smooth="yes"/>
      <point x="1477" y="399"/>
      <point x="1456" y="418"/>
      <point x="1420" y="418" type="curve" smooth="yes"/>
      <point x="1216" y="418" type="line"/>
      <point x="1216" y="175" type="line" smooth="yes"/>
      <point x="1216" y="120"/>
      <point x="1244" y="104"/>
      <point x="1344" y="65" type="curve" smooth="yes"/>
      <point x="1409" y="39"/>
      <point x="1459" y="29"/>
    </contour>
  </outline>
</glyph>
<glyph name="five" format="2">
  <advance width="1772"/>
  <unicode hex="0035"/>
  <outline>
    <contour>
      <point x="1501" y="388" type="curve" smooth="yes"/>
      <point x="1501" y="612"/>
      <point x="1264" y="799"/>
      <point x="900" y="812" type="curve"/>
      <point x="1109" y="780"/>
      <point x="1230" y="649"/>
      <point x="1230" y="390" type="curve" smooth="yes"/>
      <point x="1230" y="135"/>
      <point x="993" y="25"/>
      <point x="830" y="1" type="curve"/>
      <point x="1139" y="4"/>
      <point x="1501" y="104"/>
    </contour>
    <contour>
      <point x="297" y="1330" type="line"/>
      <point x="297" y="1040" type="line"/>
      <point x="1200" y="1040" type="line"/>
      <point x="1343" y="1330" type="line"/>
    </contour>
    <contour>
      <point x="470" y="399" type="curve" smooth="yes"/>
      <point x="470" y="495"/>
      <point x="412" y="542"/>
      <point x="316" y="542" type="curve" smooth="yes"/>
      <point x="238" y="542"/>
      <point x="110" y="484"/>
      <point x="110" y="337" type="curve" smooth="yes"/>
      <point x="110" y="220"/>
      <point x="192" y="164"/>
      <point x="242" y="124" type="curve"/>
      <point x="244" y="126" type="line"/>
      <point x="206" y="178"/>
      <point x="201" y="188"/>
      <point x="201" y="207" type="curve" smooth="yes"/>
      <point x="201" y="225.39"/>
      <point x="212.04" y="244"/>
      <point x="294" y="244" type="curve" smooth="yes"/>
      <point x="350" y="244"/>
      <point x="470" y="251"/>
    </contour>
    <contour>
      <point x="315" y="674" type="curve"/>
      <point x="299" y="674"/>
      <point x="283" y="674"/>
      <point x="267" y="674" type="curve"/>
      <point x="267" y="1390" type="line"/>
      <point x="1577" y="1390" type="line"/>
      <point x="1400" y="1030" type="line"/>
      <point x="297" y="1030" type="line"/>
      <point x="297" y="694" type="line"/>
      <point x="379" y="772"/>
      <point x="604" y="849"/>
      <point x="864" y="849" type="curve" smooth="yes"/>
      <point x="1226" y="849"/>
      <point x="1652" y="690"/>
      <point x="1652" y="390" type="curve" smooth="yes"/>
      <point x="1652" y="100"/>
      <point x="1164" y="-20"/>
      <point x="832" y="-20" type="curve" smooth="yes"/>
      <point x="448" y="-20"/>
      <point x="100" y="103"/>
      <point x="100" y="338" type="curve" smooth="yes"/>
      <point x="100" y="470"/>
      <point x="200" y="556"/>
      <point x="350" y="556" type="curve" smooth="yes"/>
      <point x="461" y="556"/>
      <point x="597" y="477"/>
      <point x="597" y="345" type="curve" smooth="yes"/>
      <point x="597" y="211"/>
      <point x="483" y="150"/>
      <point x="384" y="150" type="curve" smooth="yes"/>
      <point x="316" y="150"/>
      <point x="306" y="173"/>
      <point x="288" y="173" type="curve" smooth="yes"/>
      <point x="284" y="173"/>
      <point x="281" y="171"/>
      <point x="281" y="167" type="curve" smooth="yes"/>
      <point x="281" y="107"/>
      <point x="480" y="15"/>
      <point x="752" y="15" type="curve" smooth="yes"/>
      <point x="1020" y="15"/>
      <point x="1220" y="172"/>
      <point x="1220" y="390" type="curve" smooth="yes"/>
      <point x="1220" y="659"/>
      <point x="1092" y="808"/>
      <point x="794" y="808" type="curve" smooth="yes"/>
      <point x="589" y="808"/>
      <point x="404" y="750"/>
    </contour>
  </outline>
</glyph>
<glyph name="six" format="2">
  <advance width="1860"/>
  <unicode hex="0036"/>
  <outline>
    <contour>
      <point x="1591" y="418" type="curve" smooth="yes"/>
      <point x="1591" y="642"/>
      <point x="1444" y="799"/>
      <point x="1080" y="812" type="curve"/>
      <point x="1279" y="799"/>
      <point x="1350" y="659"/>
      <point x="1350" y="400" type="curve" smooth="yes"/>
      <point x="1350" y="105"/>
      <point x="1228" y="19"/>
      <point x="1050" y="-5" type="curve"/>
      <point x="1374" y="-2"/>
      <point x="1591" y="134"/>
    </contour>
    <contour>
      <point x="1143" y="1152" type="curve" smooth="yes"/>
      <point x="1143" y="1036"/>
      <point x="1221" y="979"/>
      <point x="1337" y="979" type="curve" smooth="yes"/>
      <point x="1415" y="979"/>
      <point x="1503" y="1016"/>
      <point x="1503" y="1153" type="curve" smooth="yes"/>
      <point x="1503" y="1270"/>
      <point x="1391" y="1369"/>
      <point x="1251" y="1390" type="curve"/>
      <point x="1249" y="1388" type="line"/>
      <point x="1300" y="1372"/>
      <point x="1311" y="1355"/>
      <point x="1311" y="1344" type="curve" smooth="yes"/>
      <point x="1311" y="1287.99"/>
      <point x="1143" y="1316.99"/>
    </contour>
    <contour>
      <point x="480" y="700" type="curve" smooth="yes"/>
      <point x="480" y="974"/>
      <point x="562" y="1269"/>
      <point x="720" y="1359" type="curve"/>
      <point x="426" y="1299"/>
      <point x="180" y="1054"/>
      <point x="180" y="670" type="curve" smooth="yes"/>
      <point x="180" y="246"/>
      <point x="519" y="78"/>
      <point x="720" y="26" type="curve"/>
      <point x="572" y="106"/>
      <point x="480" y="426"/>
    </contour>
    <contour>
      <point x="1340" y="400" type="curve" smooth="yes"/>
      <point x="1340" y="734"/>
      <point x="1210" y="800"/>
      <point x="1032" y="800" type="curve" smooth="yes"/>
      <point x="866" y="800"/>
      <point x="630" y="736"/>
      <point x="630" y="560" type="curve" smooth="yes"/>
      <point x="630" y="116"/>
      <point x="770" y="5"/>
      <point x="1008" y="5" type="curve" smooth="yes"/>
      <point x="1206" y="5"/>
      <point x="1340" y="106"/>
    </contour>
    <contour>
      <point x="620" y="647" type="curve"/>
      <point x="681" y="771"/>
      <point x="872" y="830"/>
      <point x="1032" y="830" type="curve" smooth="yes"/>
      <point x="1324" y="830"/>
      <point x="1740" y="770"/>
      <point x="1740" y="430" type="curve" smooth="yes"/>
      <point x="1740" y="110"/>
      <point x="1380" y="-20"/>
      <point x="1008" y="-20" type="curve" smooth="yes"/>
      <point x="606" y="-20"/>
      <point x="170" y="190"/>
      <point x="170" y="670" type="curve" smooth="yes"/>
      <point x="170" y="1116"/>
      <point x="474" y="1420"/>
      <point x="1078" y="1420" type="curve" smooth="yes"/>
      <point x="1447" y="1420"/>
      <point x="1621" y="1298"/>
      <point x="1621" y="1144" type="curve" smooth="yes"/>
      <point x="1621" y="1000"/>
      <point x="1508" y="934"/>
      <point x="1378" y="934" type="curve" smooth="yes"/>
      <point x="1248" y="934"/>
      <point x="1133" y="1012"/>
      <point x="1133" y="1152" type="curve" smooth="yes"/>
      <point x="1133" y="1317"/>
      <point x="1301" y="1301"/>
      <point x="1301" y="1344" type="curve" smooth="yes"/>
      <point x="1301" y="1372"/>
      <point x="1225" y="1390"/>
      <point x="1098" y="1390" type="curve" smooth="yes"/>
      <point x="775" y="1390"/>
      <point x="626" y="1230"/>
    </contour>
  </outline>
</glyph>
<glyph name="seven" format="2">
  <advance width="1635"/>
  <unicode hex="0037"/>
  <outline>
    <contour>
      <point x="189" y="1007" type="curve"/>
      <point x="238" y="1092"/>
      <point x="297" y="1118"/>
      <point x="363" y="1118" type="curve" smooth="yes"/>
      <point x="541" y="1118"/>
      <point x="612" y="1004"/>
      <point x="836" y="1004" type="curve" smooth="yes"/>
      <point x="1104" y="1004"/>
      <point x="1433" y="1159"/>
      <point x="1515" y="1308" type="curve"/>
      <point x="1395" y="1192"/>
      <point x="1323" y="1174"/>
      <point x="1187" y="1174" type="curve" smooth="yes"/>
      <point x="994" y="1174"/>
      <point x="871" y="1317"/>
      <point x="633" y="1317" type="curve" smooth="yes"/>
      <point x="467" y="1317"/>
      <point x="248" y="1185"/>
    </contour>
    <contour>
      <point x="571" y="292" type="curve" smooth="yes"/>
      <point x="571" y="104"/>
      <point x="670" y="10"/>
      <point x="820" y="10" type="curve" smooth="yes"/>
      <point x="938" y="10"/>
      <point x="1021" y="82"/>
      <point x="1021" y="216" type="curve"/>
      <point x="821" y="226"/>
      <point x="745" y="310"/>
      <point x="745" y="444" type="curve" smooth="yes"/>
      <point x="745" y="562"/>
      <point x="804" y="669"/>
      <point x="908" y="775" type="curve"/>
      <point x="902" y="780" type="line"/>
      <point x="711" y="655"/>
      <point x="571" y="500"/>
    </contour>
    <contour>
      <point x="561" y="292" type="curve" smooth="yes"/>
      <point x="561" y="520"/>
      <point x="715" y="673"/>
      <point x="909" y="796" type="curve" smooth="yes"/>
      <point x="1014" y="863"/>
      <point x="1477" y="1095"/>
      <point x="1554" y="1334" type="curve"/>
      <point x="1472" y="1181"/>
      <point x="1140" y="994"/>
      <point x="836" y="994" type="curve" smooth="yes"/>
      <point x="613" y="994"/>
      <point x="532" y="1108"/>
      <point x="363" y="1108" type="curve" smooth="yes"/>
      <point x="280" y="1108"/>
      <point x="211" y="1056"/>
      <point x="190" y="973" type="curve"/>
      <point x="190" y="804" type="line"/>
      <point x="160" y="804" type="line"/>
      <point x="160" y="1400" type="line"/>
      <point x="190" y="1400" type="line"/>
      <point x="190" y="1072" type="line"/>
      <point x="263" y="1258"/>
      <point x="488" y="1418"/>
      <point x="773" y="1418" type="curve" smooth="yes"/>
      <point x="1070" y="1418"/>
      <point x="1113" y="1254"/>
      <point x="1334" y="1254" type="curve" smooth="yes"/>
      <point x="1462" y="1254"/>
      <point x="1533" y="1336"/>
      <point x="1553" y="1400" type="curve"/>
      <point x="1595" y="1400" type="line"/>
      <point x="1595" y="1141"/>
      <point x="1218" y="961"/>
      <point x="1047" y="787" type="curve" smooth="yes"/>
      <point x="943" y="681"/>
      <point x="895" y="562"/>
      <point x="895" y="444" type="curve" smooth="yes"/>
      <point x="895" y="310"/>
      <point x="971" y="216"/>
      <point x="1171" y="246" type="curve"/>
      <point x="1171" y="112"/>
      <point x="1041" y="-20"/>
      <point x="863" y="-20" type="curve" smooth="yes"/>
      <point x="683" y="-20"/>
      <point x="561" y="84"/>
    </contour>
  </outline>
</glyph>
<glyph name="eight" format="2">
  <advance width="1863"/>
  <unicode hex="0038"/>
  <outline>
    <contour>
      <point x="481" y="1336" type="curve"/>
      <point x="329" y="1285"/>
      <point x="185" y="1180"/>
      <point x="185" y="990" type="curve" smooth="yes"/>
      <point x="185" y="680"/>
      <point x="401.448" y="619.882"/>
      <point x="885" y="495" type="curve" smooth="yes"/>
      <point x="1312.29" y="384.648"/>
      <point x="1476" y="351"/>
      <point x="1476" y="215" type="curve" smooth="yes"/>
      <point x="1476" y="135"/>
      <point x="1402" y="75"/>
      <point x="1300" y="39" type="curve"/>
      <point x="1472" y="71"/>
      <point x="1653" y="180"/>
      <point x="1653" y="360" type="curve" smooth="yes"/>
      <point x="1653" y="562"/>
      <point x="1455" y="610"/>
      <point x="1011" y="730" type="curve" smooth="yes"/>
      <point x="567.97" y="849.738"/>
      <point x="345" y="928"/>
      <point x="345" y="1110" type="curve" smooth="yes"/>
      <point x="345" y="1188"/>
      <point x="379" y="1266"/>
    </contour>
    <contour>
      <point x="914" y="1420" type="curve" smooth="yes"/>
      <point x="1256" y="1420"/>
      <point x="1584" y="1290"/>
      <point x="1584" y="1070" type="curve" smooth="yes"/>
      <point x="1584" y="949"/>
      <point x="1482" y="867"/>
      <point x="1332" y="818" type="curve"/>
      <point x="1609" y="724"/>
      <point x="1693" y="598"/>
      <point x="1693" y="430" type="curve" smooth="yes"/>
      <point x="1693" y="110"/>
      <point x="1362" y="-28"/>
      <point x="950" y="-28" type="curve" smooth="yes"/>
      <point x="568" y="-28"/>
      <point x="170" y="82"/>
      <point x="170" y="352" type="curve" smooth="yes"/>
      <point x="170" y="469"/>
      <point x="286" y="559"/>
      <point x="451" y="613" type="curve"/>
      <point x="252" y="695"/>
      <point x="175" y="796"/>
      <point x="175" y="990" type="curve" smooth="yes"/>
      <point x="175" y="1270"/>
      <point x="482" y="1420"/>
    </contour>
    <contour>
      <point x="1272" y="837" type="curve"/>
      <point x="1374" y="876"/>
      <point x="1444" y="946"/>
      <point x="1444" y="1070" type="curve" smooth="yes"/>
      <point x="1444" y="1298"/>
      <point x="1234" y="1390"/>
      <point x="914" y="1390" type="curve" smooth="yes"/>
      <point x="582" y="1390"/>
      <point x="445" y="1308"/>
      <point x="445" y="1210" type="curve" smooth="yes"/>
      <point x="445" y="1108"/>
      <point x="549" y="983"/>
      <point x="1001" y="900" type="curve" smooth="yes"/>
      <point x="1105" y="881"/>
      <point x="1195" y="860"/>
    </contour>
    <contour>
      <point x="950" y="2" type="curve" smooth="yes"/>
      <point x="1222" y="2"/>
      <point x="1465" y="72"/>
      <point x="1465" y="220" type="curve" smooth="yes"/>
      <point x="1465" y="334"/>
      <point x="1315" y="380"/>
      <point x="885" y="485" type="curve" smooth="yes"/>
      <point x="736" y="521"/>
      <point x="614" y="554"/>
      <point x="517" y="588" type="curve"/>
      <point x="401" y="542"/>
      <point x="320" y="466"/>
      <point x="320" y="352" type="curve" smooth="yes"/>
      <point x="320" y="104"/>
      <point x="640" y="2"/>
    </contour>
  </outline>
</glyph>
<glyph name="nine" format="2">
  <advance width="1860"/>
  <unicode hex="0039"/>
  <outline>
    <contour>
      <point x="639" y="318" type="curve" smooth="yes"/>
      <point x="639" y="414"/>
      <point x="581" y="454"/>
      <point x="485" y="454" type="curve" smooth="yes"/>
      <point x="404" y="454"/>
      <point x="279" y="403"/>
      <point x="279" y="256" type="curve" smooth="yes"/>
      <point x="279" y="139"/>
      <point x="374" y="85"/>
      <point x="451" y="45" type="curve"/>
      <point x="453" y="47" type="line"/>
      <point x="415" y="99"/>
      <point x="410" y="107"/>
      <point x="410" y="126" type="curve" smooth="yes"/>
      <point x="410" y="144.39"/>
      <point x="421.04" y="163"/>
      <point x="503" y="163" type="curve" smooth="yes"/>
      <point x="559" y="163"/>
      <point x="639" y="170"/>
    </contour>
    <contour>
      <point x="160" y="970" type="curve" smooth="yes"/>
      <point x="160" y="746"/>
      <point x="341" y="626"/>
      <point x="671" y="586" type="curve"/>
      <point x="512" y="639"/>
      <point x="401" y="789"/>
      <point x="401" y="988" type="curve" smooth="yes"/>
      <point x="401" y="1213"/>
      <point x="523" y="1348"/>
      <point x="701" y="1393" type="curve"/>
      <point x="377" y="1369"/>
      <point x="160" y="1204"/>
    </contour>
    <contour>
      <point x="986.49" y="20.3438" type="curve"/>
      <point x="1371.03" y="78.1201"/>
      <point x="1590" y="346.063"/>
      <point x="1590" y="700" type="curve" smooth="yes"/>
      <point x="1590" y="1074"/>
      <point x="1374" y="1351"/>
      <point x="1020" y="1394" type="curve"/>
      <point x="1228" y="1326"/>
      <point x="1280" y="1134"/>
      <point x="1280" y="700" type="curve" smooth="yes"/>
      <point x="1280" y="301.67"/>
      <point x="1179.89" y="84.8154"/>
    </contour>
    <contour>
      <point x="550" y="1000" type="curve" smooth="yes"/>
      <point x="550" y="666"/>
      <point x="680" y="600"/>
      <point x="858" y="600" type="curve" smooth="yes"/>
      <point x="1024" y="600"/>
      <point x="1260" y="664"/>
      <point x="1260" y="840" type="curve" smooth="yes"/>
      <point x="1260" y="1284"/>
      <point x="1120" y="1395"/>
      <point x="882" y="1395" type="curve" smooth="yes"/>
      <point x="684" y="1395"/>
      <point x="550" y="1294"/>
    </contour>
    <contour>
      <point x="1270" y="753" type="curve"/>
      <point x="1209" y="629"/>
      <point x="1018" y="570"/>
      <point x="858" y="570" type="curve" smooth="yes"/>
      <point x="566" y="570"/>
      <point x="150" y="630"/>
      <point x="150" y="970" type="curve" smooth="yes"/>
      <point x="150" y="1290"/>
      <point x="510" y="1420"/>
      <point x="882" y="1420" type="curve" smooth="yes"/>
      <point x="1284" y="1420"/>
      <point x="1720" y="1210"/>
      <point x="1720" y="730" type="curve" smooth="yes"/>
      <point x="1720" y="284"/>
      <point x="1416" y="-20"/>
      <point x="812" y="-20" type="curve" smooth="yes"/>
      <point x="443" y="-20"/>
      <point x="269" y="102"/>
      <point x="269" y="256" type="curve" smooth="yes"/>
      <point x="269" y="400"/>
      <point x="382" y="466"/>
      <point x="512" y="466" type="curve" smooth="yes"/>
      <point x="642" y="466"/>
      <point x="757" y="388"/>
      <point x="757" y="248" type="curve" smooth="yes"/>
      <point x="757" y="83"/>
      <point x="589" y="99"/>
      <point x="589" y="56" type="curve" smooth="yes"/>
      <point x="589" y="28"/>
      <point x="665" y="10"/>
      <point x="792" y="10" type="curve" smooth="yes"/>
      <point x="1115" y="10"/>
      <point x="1264" y="170"/>
    </contour>
  </outline>
</glyph>
<glyph name="less" format="2">
  <advance width="1280"/>
  <unicode hex="003C"/>
  <outline>
    <contour>
      <point x="411" y="524" type="line"/>
      <point x="1000" y="769" type="line"/>
      <point x="1000" y="945" type="line"/>
      <point x="140" y="575" type="line"/>
      <point x="140" y="455" type="line"/>
      <point x="1000" y="85" type="line"/>
      <point x="1000" y="266" type="line"/>
    </contour>
    <contour>
      <point x="434" y="524" type="line"/>
      <point x="1150" y="210" type="line"/>
      <point x="1150" y="10" type="line"/>
      <point x="130" y="450" type="line"/>
      <point x="130" y="580" type="line"/>
      <point x="1150" y="1020" type="line"/>
      <point x="1150" y="820" type="line"/>
    </contour>
  </outline>
</glyph>
<glyph name="equal" format="2">
  <advance width="1230"/>
  <unicode hex="003D"/>
  <outline>
    <contour>
      <point x="140" y="240" type="line"/>
      <point x="950" y="240" type="line"/>
      <point x="950" y="400" type="line"/>
      <point x="140" y="400" type="line"/>
    </contour>
    <contour>
      <point x="140" y="590" type="line"/>
      <point x="950" y="590" type="line"/>
      <point x="950" y="750" type="line"/>
      <point x="140" y="750" type="line"/>
    </contour>
    <contour>
      <point x="130" y="230" type="line"/>
      <point x="130" y="430" type="line"/>
      <point x="1100" y="430" type="line"/>
      <point x="1100" y="230" type="line"/>
    </contour>
    <contour>
      <point x="130" y="580" type="line"/>
      <point x="130" y="780" type="line"/>
      <point x="1100" y="780" type="line"/>
      <point x="1100" y="580" type="line"/>
    </contour>
  </outline>
</glyph>
<glyph name="question" format="2">
  <advance width="1271"/>
  <unicode hex="003F"/>
  <outline>
    <contour>
      <point x="410" y="1082" type="curve" smooth="yes"/>
      <point x="410" y="1160"/>
      <point x="380" y="1227"/>
      <point x="324" y="1227" type="curve" smooth="yes"/>
      <point x="262.04" y="1227"/>
      <point x="225" y="1193"/>
      <point x="174" y="1193" type="curve" smooth="yes"/>
      <point x="143" y="1193"/>
      <point x="154" y="1218"/>
      <point x="155" y="1248" type="curve"/>
      <point x="153" y="1250" type="line"/>
      <point x="131" y="1219"/>
      <point x="100" y="1180"/>
      <point x="100" y="1103" type="curve" smooth="yes"/>
      <point x="100" y="956"/>
      <point x="206" y="913"/>
      <point x="303" y="913" type="curve" smooth="yes"/>
      <point x="399" y="913"/>
      <point x="410" y="986"/>
    </contour>
    <contour>
      <point x="354" y="220" type="curve" smooth="yes"/>
      <point x="354" y="104"/>
      <point x="444" y="5"/>
      <point x="539" y="5" type="curve" smooth="yes"/>
      <point x="641" y="5"/>
      <point x="694" y="78"/>
      <point x="694" y="220" type="curve" smooth="yes"/>
      <point x="694" y="362"/>
      <point x="641" y="435"/>
      <point x="539" y="435" type="curve" smooth="yes"/>
      <point x="437" y="435"/>
      <point x="354" y="326"/>
    </contour>
    <contour>
      <point x="593" y="1419" type="curve"/>
      <point x="573" y="1387" type="line"/>
      <point x="326" y="1387"/>
      <point x="175" y="1286"/>
      <point x="175" y="1218" type="curve" smooth="yes"/>
      <point x="175" y="1208"/>
      <point x="178" y="1205"/>
      <point x="184" y="1205" type="curve" smooth="yes"/>
      <point x="223" y="1205"/>
      <point x="250" y="1238"/>
      <point x="337" y="1238" type="curve" smooth="yes"/>
      <point x="432" y="1238"/>
      <point x="528" y="1183"/>
      <point x="528" y="1081" type="curve" smooth="yes"/>
      <point x="528" y="981"/>
      <point x="443" y="903"/>
      <point x="303" y="903" type="curve" smooth="yes"/>
      <point x="173" y="903"/>
      <point x="90" y="969"/>
      <point x="90" y="1103" type="curve" smooth="yes"/>
      <point x="90" y="1257"/>
      <point x="234" y="1419"/>
    </contour>
    <contour>
      <point x="344" y="220" type="curve" smooth="yes"/>
      <point x="344" y="352"/>
      <point x="452" y="460"/>
      <point x="584" y="460" type="curve" smooth="yes"/>
      <point x="716" y="460"/>
      <point x="824" y="352"/>
      <point x="824" y="220" type="curve" smooth="yes"/>
      <point x="824" y="88"/>
      <point x="716" y="-20"/>
      <point x="584" y="-20" type="curve" smooth="yes"/>
      <point x="452" y="-20"/>
      <point x="344" y="88"/>
    </contour>
    <contour>
      <point x="695" y="820" type="curve" smooth="yes"/>
      <point x="771" y="864"/>
      <point x="809" y="964"/>
      <point x="809" y="1110" type="curve" smooth="yes"/>
      <point x="809" y="1298"/>
      <point x="721" y="1387"/>
      <point x="573" y="1387" type="curve"/>
      <point x="593" y="1419" type="line"/>
      <point x="925" y="1419"/>
      <point x="1191" y="1340"/>
      <point x="1191" y="1100" type="curve" smooth="yes"/>
      <point x="1191" y="911"/>
      <point x="1019.88" y="884.15"/>
      <point x="836" y="832" type="curve" smooth="yes"/>
      <point x="613.28" y="768.835"/>
      <point x="597" y="720.062"/>
      <point x="597" y="558" type="curve"/>
      <point x="565" y="558" type="line"/>
      <point x="565" y="723.266"/>
      <point x="578.902" y="752.958"/>
    </contour>
    <contour>
      <point x="1041" y="1110" type="curve" smooth="yes"/>
      <point x="1041" y="1354"/>
      <point x="873" y="1388"/>
      <point x="609" y="1401" type="curve"/>
      <point x="734" y="1379"/>
      <point x="819" y="1304"/>
      <point x="819" y="1110" type="curve" smooth="yes"/>
      <point x="819" y="961.954"/>
      <point x="779.51" y="866.346"/>
      <point x="712.511" y="817.966" type="curve"/>
      <point x="907.753" y="908.107"/>
      <point x="1041" y="885.927"/>
    </contour>
  </outline>
</glyph>
<glyph name="at" format="2">
  <advance width="2552"/>
  <unicode hex="0040"/>
  <outline>
    <contour>
      <point x="1522" y="575" type="line" smooth="yes"/>
      <point x="1522" y="401"/>
      <point x="1686" y="301"/>
      <point x="1934" y="301" type="curve"/>
      <point x="1820" y="331"/>
      <point x="1744" y="397"/>
      <point x="1744" y="495" type="curve" smooth="yes"/>
      <point x="1744" y="1100" type="line"/>
      <point x="1522" y="1100" type="line"/>
    </contour>
    <contour>
      <point x="534" y="714" type="curve" smooth="yes"/>
      <point x="534" y="490"/>
      <point x="765" y="330"/>
      <point x="1045" y="310" type="curve"/>
      <point x="886" y="363"/>
      <point x="775" y="553"/>
      <point x="775" y="712" type="curve" smooth="yes"/>
      <point x="775" y="897"/>
      <point x="897" y="1075"/>
      <point x="1075" y="1120" type="curve"/>
      <point x="771" y="1116"/>
      <point x="534" y="938"/>
    </contour>
    <contour>
      <point x="1512" y="575" type="curve" smooth="yes"/>
      <point x="1512" y="1110" type="line"/>
      <point x="1894" y="1110" type="line"/>
      <point x="1894" y="495" type="line" smooth="yes"/>
      <point x="1894" y="397"/>
      <point x="1950" y="349"/>
      <point x="2064" y="349" type="curve" smooth="yes"/>
      <point x="2170" y="349"/>
      <point x="2417" y="446"/>
      <point x="2417" y="742" type="curve" smooth="yes"/>
      <point x="2417" y="1112"/>
      <point x="1944" y="1420"/>
      <point x="1302" y="1420" type="curve" smooth="yes"/>
      <point x="688" y="1420"/>
      <point x="135" y="1142"/>
      <point x="135" y="662" type="curve" smooth="yes"/>
      <point x="135" y="183"/>
      <point x="776" y="-8"/>
      <point x="1280" y="-8" type="curve" smooth="yes"/>
      <point x="1642" y="-8"/>
      <point x="1946" y="72"/>
      <point x="2126" y="168" type="curve"/>
      <point x="2137" y="139" type="line"/>
      <point x="1969" y="43"/>
      <point x="1646" y="-38"/>
      <point x="1280" y="-38" type="curve" smooth="yes"/>
      <point x="744" y="-38"/>
      <point x="100" y="161"/>
      <point x="100" y="662" type="curve" smooth="yes"/>
      <point x="100" y="1163"/>
      <point x="666" y="1450"/>
      <point x="1302" y="1450" type="curve" smooth="yes"/>
      <point x="1968" y="1450"/>
      <point x="2452" y="1128"/>
      <point x="2452" y="742" type="curve" smooth="yes"/>
      <point x="2452" y="422"/>
      <point x="2175" y="291"/>
      <point x="1934" y="291" type="curve" smooth="yes"/>
      <point x="1656" y="291"/>
      <point x="1512" y="401"/>
    </contour>
    <contour>
      <point x="1542" y="714" type="curve" smooth="yes"/>
      <point x="1542" y="489"/>
      <point x="1417" y="294"/>
      <point x="1124" y="294" type="curve" smooth="yes"/>
      <point x="772" y="294"/>
      <point x="524" y="474"/>
      <point x="524" y="714" type="curve" smooth="yes"/>
      <point x="524" y="954"/>
      <point x="772" y="1134"/>
      <point x="1124" y="1134" type="curve" smooth="yes"/>
      <point x="1417" y="1134"/>
      <point x="1542" y="939"/>
    </contour>
    <contour>
      <point x="1512" y="714" type="curve" smooth="yes"/>
      <point x="1512" y="964"/>
      <point x="1353.37" y="1075"/>
      <point x="1212" y="1075" type="curve" smooth="yes"/>
      <point x="1014" y="1075"/>
      <point x="956" y="932"/>
      <point x="956" y="714" type="curve" smooth="yes"/>
      <point x="956" y="496"/>
      <point x="1014" y="353"/>
      <point x="1212" y="353" type="curve" smooth="yes"/>
      <point x="1353.37" y="353"/>
      <point x="1512" y="464"/>
    </contour>
  </outline>
</glyph>
<glyph name="A" format="2">
  <advance width="2320"/>
  <unicode hex="0041"/>
  <anchor x="1706" y="0" name="cedilla"/>
  <anchor x="986" y="0" name="bottom"/>
  <anchor x="1090" y="1400" name="top"/>
  <outline>
    <contour>
      <point x="1030" y="1280" type="line"/>
      <point x="877" y="1026" type="line"/>
      <point x="1492" y="181" type="line" smooth="yes"/>
      <point x="1527.17" y="132.679"/>
      <point x="1496" y="100"/>
      <point x="1441" y="68" type="curve" smooth="yes"/>
      <point x="1398" y="44"/>
      <point x="1354" y="20"/>
      <point x="1290" y="10" type="curve"/>
      <point x="2052" y="10" type="line"/>
      <point x="1988" y="20"/>
      <point x="1923" y="45"/>
      <point x="1880" y="69" type="curve" smooth="yes"/>
      <point x="1842" y="90"/>
      <point x="1811.91" y="105.938"/>
      <point x="1782" y="150" type="curve" smooth="yes"/>
    </contour>
    <contour>
      <point x="446" y="352" type="curve"/>
      <point x="425" y="321"/>
      <point x="399.072" y="280.937"/>
      <point x="325" y="196" type="curve" smooth="yes"/>
      <point x="250" y="110"/>
      <point x="181" y="10"/>
      <point x="125" y="10" type="curve"/>
      <point x="556" y="10" type="line"/>
      <point x="526.491" y="31.8037"/>
      <point x="483.836" y="85.7558"/>
      <point x="454" y="179" type="curve" smooth="yes"/>
      <point x="429.692" y="254.966"/>
      <point x="418" y="281"/>
    </contour>
    <contour>
      <point x="80" y="20" type="line"/>
      <point x="120" y="20" type="line" smooth="yes"/>
      <point x="176" y="20"/>
      <point x="238" y="110"/>
      <point x="313" y="196" type="curve" smooth="yes"/>
      <point x="387" y="281"/>
      <point x="452" y="371"/>
      <point x="473" y="404" type="curve" smooth="yes"/>
      <point x="1090" y="1430" type="line"/>
      <point x="1952" y="160" type="line" smooth="yes"/>
      <point x="1981" y="116"/>
      <point x="2002" y="100"/>
      <point x="2040" y="79" type="curve" smooth="yes"/>
      <point x="2083" y="55"/>
      <point x="2148" y="20"/>
      <point x="2212" y="20" type="curve" smooth="yes"/>
      <point x="2270" y="20" type="line"/>
      <point x="2270" y="0" type="line"/>
      <point x="1246" y="0" type="line"/>
      <point x="1246" y="20" type="line"/>
      <point x="1270" y="20" type="line" smooth="yes"/>
      <point x="1334" y="20"/>
      <point x="1399" y="55"/>
      <point x="1442" y="79" type="curve" smooth="yes"/>
      <point x="1497" y="111"/>
      <point x="1509" y="142"/>
      <point x="1487" y="173" type="curve" smooth="yes"/>
      <point x="1296" y="435" type="line"/>
      <point x="523" y="435" type="line"/>
      <point x="500" y="397" type="line" smooth="yes"/>
      <point x="463" y="336"/>
      <point x="503" y="261"/>
      <point x="553" y="188" type="curve" smooth="yes"/>
      <point x="608" y="107"/>
      <point x="646" y="57"/>
      <point x="681" y="34" type="curve" smooth="yes"/>
      <point x="691" y="27"/>
      <point x="707" y="20"/>
      <point x="736" y="20" type="curve" smooth="yes"/>
      <point x="780" y="20" type="line"/>
      <point x="780" y="0" type="line"/>
      <point x="80" y="0" type="line"/>
    </contour>
    <contour>
      <point x="541" y="465" type="line"/>
      <point x="1275" y="465" type="line"/>
      <point x="872" y="1018" type="line"/>
    </contour>
  </outline>
</glyph>
<glyph name="B" format="2">
  <advance width="2169"/>
  <unicode hex="0042"/>
  <anchor x="1026" y="0" name="bottom"/>
  <anchor x="1064" y="1400" name="top"/>
  <outline>
    <contour>
      <point x="1940" y="376" type="curve" smooth="yes"/>
      <point x="1940" y="630"/>
      <point x="1634" y="695"/>
      <point x="1400" y="718" type="curve"/>
      <point x="1519" y="686"/>
      <point x="1590" y="600"/>
      <point x="1590" y="366" type="curve" smooth="yes"/>
      <point x="1590" y="152"/>
      <point x="1508" y="49"/>
      <point x="1370" y="25" type="curve"/>
      <point x="1604" y="28"/>
      <point x="1940" y="112"/>
    </contour>
    <contour>
      <point x="1860" y="1070" type="curve" smooth="yes"/>
      <point x="1860" y="1314"/>
      <point x="1544" y="1368"/>
      <point x="1370" y="1381" type="curve"/>
      <point x="1461" y="1367"/>
      <point x="1580" y="1314"/>
      <point x="1580" y="1070" type="curve" smooth="yes"/>
      <point x="1580" y="836"/>
      <point x="1489" y="770"/>
      <point x="1390" y="748" type="curve"/>
      <point x="1554" y="751"/>
      <point x="1860" y="826"/>
    </contour>
    <contour>
      <point x="80" y="1380" type="curve"/>
      <point x="80" y="1400" type="line"/>
      <point x="1351" y="1400" type="line" smooth="yes"/>
      <point x="1720" y="1400"/>
      <point x="2011" y="1310"/>
      <point x="2011" y="1070" type="curve" smooth="yes"/>
      <point x="2011" y="881"/>
      <point x="1821" y="766"/>
      <point x="1519" y="737" type="curve"/>
      <point x="1806" y="717"/>
      <point x="2089" y="590"/>
      <point x="2089" y="380" type="curve" smooth="yes"/>
      <point x="2089" y="130"/>
      <point x="1771" y="0"/>
      <point x="1439" y="0" type="curve" smooth="yes"/>
      <point x="80" y="0" type="line"/>
      <point x="80" y="20" type="line"/>
      <point x="161" y="29"/>
      <point x="211" y="39"/>
      <point x="276" y="65" type="curve" smooth="yes"/>
      <point x="376" y="104"/>
      <point x="404" y="120"/>
      <point x="404" y="175" type="curve" smooth="yes"/>
      <point x="404" y="1225" type="line" smooth="yes"/>
      <point x="404" y="1280"/>
      <point x="376" y="1296"/>
      <point x="276" y="1335" type="curve" smooth="yes"/>
      <point x="211" y="1361"/>
      <point x="161" y="1371"/>
    </contour>
    <contour>
      <point x="806" y="750" type="line"/>
      <point x="1319" y="750" type="line" smooth="yes"/>
      <point x="1461" y="750"/>
      <point x="1569" y="830"/>
      <point x="1569" y="1068" type="curve" smooth="yes"/>
      <point x="1569" y="1306"/>
      <point x="1461" y="1370"/>
      <point x="1319" y="1370" type="curve" smooth="yes"/>
      <point x="806" y="1370" type="line"/>
    </contour>
    <contour>
      <point x="806" y="720" type="line"/>
      <point x="806" y="30" type="line"/>
      <point x="1299" y="30" type="line" smooth="yes"/>
      <point x="1451" y="30"/>
      <point x="1579" y="102"/>
      <point x="1579" y="380" type="curve" smooth="yes"/>
      <point x="1579" y="658"/>
      <point x="1451" y="720"/>
      <point x="1299" y="720" type="curve" smooth="yes"/>
    </contour>
    <contour>
      <point x="100" y="1387" type="line"/>
      <point x="172.024" y="1379"/>
      <point x="223.182" y="1365.97"/>
      <point x="281.292" y="1343" type="curve" smooth="yes"/>
      <point x="379.861" y="1304.03"/>
      <point x="414" y="1287"/>
      <point x="414" y="1225" type="curve" smooth="yes"/>
      <point x="414" y="175" type="line" smooth="yes"/>
      <point x="414" y="113"/>
      <point x="379.861" y="95.9707"/>
      <point x="281.292" y="57" type="curve" smooth="yes"/>
      <point x="223.182" y="34.0254"/>
      <point x="172.024" y="21"/>
      <point x="100" y="13" type="curve"/>
      <point x="100" y="10" type="line"/>
      <point x="656" y="10" type="line"/>
      <point x="656" y="1390" type="line"/>
      <point x="100" y="1390" type="line"/>
    </contour>
  </outline>
</glyph>
<glyph name="C" format="2">
  <advance width="2212"/>
  <unicode hex="0043"/>
  <anchor x="1140" y="0" name="cedilla"/>
  <anchor x="1140" y="0" name="bottom"/>
  <anchor x="1141" y="1400" name="top"/>
  <outline>
    <contour>
      <point x="1643" y="1256" type="curve"/>
      <point x="1710" y="1211"/>
      <point x="1810" y="1124"/>
      <point x="1860" y="1071" type="curve"/>
      <point x="1860" y="1314" type="line"/>
      <point x="1766" y="1239"/>
      <point x="1703" y="1238"/>
    </contour>
    <contour>
      <point x="480" y="700" type="curve" smooth="yes"/>
      <point x="480" y="974"/>
      <point x="562" y="1222"/>
      <point x="810" y="1372" type="curve"/>
      <point x="486" y="1300"/>
      <point x="170" y="1054"/>
      <point x="170" y="700" type="curve" smooth="yes"/>
      <point x="170" y="346"/>
      <point x="484" y="117"/>
      <point x="810" y="36" type="curve"/>
      <point x="562" y="186"/>
      <point x="480" y="426"/>
    </contour>
    <contour>
      <point x="1990" y="1414" type="line"/>
      <point x="2010" y="1414" type="line"/>
      <point x="2010" y="903" type="line"/>
      <point x="1990" y="903" type="line"/>
      <point x="1804" y="1151"/>
      <point x="1523" y="1395"/>
      <point x="1151" y="1395" type="curve" smooth="yes"/>
      <point x="883" y="1395"/>
      <point x="630" y="1134"/>
      <point x="630" y="700" type="curve" smooth="yes"/>
      <point x="630" y="266"/>
      <point x="903" y="15"/>
      <point x="1240" y="15" type="curve" smooth="yes"/>
      <point x="1544" y="15"/>
      <point x="1896" y="109"/>
      <point x="2022" y="472" type="curve"/>
      <point x="2052" y="472" type="line"/>
      <point x="1922" y="86"/>
      <point x="1556" y="-20"/>
      <point x="1170" y="-20" type="curve" smooth="yes"/>
      <point x="634" y="-20"/>
      <point x="160" y="256"/>
      <point x="160" y="700" type="curve" smooth="yes"/>
      <point x="160" y="1144"/>
      <point x="624" y="1425"/>
      <point x="1140" y="1425" type="curve" smooth="yes"/>
      <point x="1352" y="1425"/>
      <point x="1508" y="1357"/>
      <point x="1667" y="1267" type="curve" smooth="yes"/>
      <point x="1691" y="1253"/>
      <point x="1747" y="1250"/>
      <point x="1817" y="1297" type="curve" smooth="yes"/>
    </contour>
  </outline>
</glyph>
<glyph name="D" format="2">
  <advance width="2244"/>
  <unicode hex="0044"/>
  <anchor x="1066" y="0" name="cedilla"/>
  <anchor x="1066" y="0" name="bottom"/>
  <anchor x="1084" y="1400" name="top"/>
  <outline>
    <contour>
      <point x="1675" y="700" type="line"/>
      <point x="1675" y="366"/>
      <point x="1613" y="74"/>
      <point x="1335" y="26" type="curve"/>
      <point x="1689" y="79"/>
      <point x="1985" y="326"/>
      <point x="1985" y="700" type="curve"/>
    </contour>
    <contour>
      <point x="1675" y="700" type="curve"/>
      <point x="1985" y="700" type="line"/>
      <point x="1985" y="1074"/>
      <point x="1689" y="1321"/>
      <point x="1335" y="1374" type="curve"/>
      <point x="1613" y="1306"/>
      <point x="1675" y="1034"/>
    </contour>
    <contour>
      <point x="100" y="1387" type="line"/>
      <point x="172.024" y="1379"/>
      <point x="223.182" y="1365.97"/>
      <point x="281.292" y="1343" type="curve" smooth="yes"/>
      <point x="379.861" y="1304.03"/>
      <point x="414" y="1287"/>
      <point x="414" y="1225" type="curve" smooth="yes"/>
      <point x="414" y="175" type="line" smooth="yes"/>
      <point x="414" y="113"/>
      <point x="379.861" y="95.9707"/>
      <point x="281.292" y="57" type="curve" smooth="yes"/>
      <point x="223.182" y="34.0254"/>
      <point x="172.024" y="21"/>
      <point x="100" y="13" type="curve"/>
      <point x="100" y="10" type="line"/>
      <point x="656" y="10" type="line"/>
      <point x="656" y="1390" type="line"/>
      <point x="100" y="1390" type="line"/>
    </contour>
    <contour>
      <point x="80" y="1380" type="curve"/>
      <point x="80" y="1400" type="line"/>
      <point x="1224" y="1400" type="line" smooth="yes"/>
      <point x="1730" y="1400"/>
      <point x="2144" y="1116"/>
      <point x="2144" y="700" type="curve" smooth="yes"/>
      <point x="2144" y="284"/>
      <point x="1708" y="0"/>
      <point x="1224" y="0" type="curve" smooth="yes"/>
      <point x="80" y="0" type="line"/>
      <point x="80" y="20" type="line"/>
      <point x="161" y="29"/>
      <point x="211" y="39"/>
      <point x="276" y="65" type="curve" smooth="yes"/>
      <point x="376" y="104"/>
      <point x="404" y="120"/>
      <point x="404" y="175" type="curve" smooth="yes"/>
      <point x="404" y="1225" type="line" smooth="yes"/>
      <point x="404" y="1280"/>
      <point x="376" y="1296"/>
      <point x="276" y="1335" type="curve" smooth="yes"/>
      <point x="211" y="1361"/>
      <point x="161" y="1371"/>
    </contour>
    <contour>
      <point x="806" y="30" type="line"/>
      <point x="1224" y="30" type="line" smooth="yes"/>
      <point x="1501" y="30"/>
      <point x="1664" y="176"/>
      <point x="1664" y="700" type="curve" smooth="yes"/>
      <point x="1664" y="1224"/>
      <point x="1482" y="1370"/>
      <point x="1224" y="1370" type="curve" smooth="yes"/>
      <point x="806" y="1370" type="line"/>
    </contour>
  </outline>
</glyph>
<glyph name="F" format="2">
  <advance width="1932"/>
  <unicode hex="0046"/>
  <anchor x="636" y="0" name="bottom"/>
  <anchor x="1084" y="1400" name="top"/>
  <outline>
    <contour>
      <point x="900" y="13" type="line"/>
      <point x="847.976" y="31"/>
      <point x="816.164" y="40.9365"/>
      <point x="777.708" y="56" type="curve" smooth="yes"/>
      <point x="699.731" y="86.5439"/>
      <point x="656" y="113"/>
      <point x="656" y="175" type="curve"/>
      <point x="656" y="10" type="line"/>
      <point x="900" y="10" type="line"/>
    </contour>
    <contour>
      <point x="1141" y="728" type="curve"/>
      <point x="1194" y="711"/>
      <point x="1220" y="690"/>
      <point x="1280" y="626" type="curve"/>
      <point x="1280" y="844" type="line"/>
      <point x="1222" y="771"/>
      <point x="1191" y="750"/>
    </contour>
    <contour>
      <point x="1379" y="1390" type="line"/>
      <point x="1526" y="1352"/>
      <point x="1546" y="1328"/>
      <point x="1754" y="1106" type="curve"/>
      <point x="1754" y="1390" type="line"/>
    </contour>
    <contour>
      <point x="100" y="1387" type="line"/>
      <point x="172.024" y="1379"/>
      <point x="223.182" y="1365.97"/>
      <point x="281.292" y="1343" type="curve" smooth="yes"/>
      <point x="379.861" y="1304.03"/>
      <point x="414" y="1287"/>
      <point x="414" y="1225" type="curve" smooth="yes"/>
      <point x="414" y="175" type="line" smooth="yes"/>
      <point x="414" y="113"/>
      <point x="379.861" y="95.9707"/>
      <point x="281.292" y="57" type="curve" smooth="yes"/>
      <point x="223.182" y="34.0254"/>
      <point x="172.024" y="21"/>
      <point x="100" y="13" type="curve"/>
      <point x="100" y="10" type="line"/>
      <point x="656" y="10" type="line"/>
      <point x="656" y="1390" type="line"/>
      <point x="100" y="1390" type="line"/>
    </contour>
    <contour>
      <point x="80" y="1380" type="curve"/>
      <point x="80" y="1400" type="line"/>
      <point x="1904" y="1400" type="line"/>
      <point x="1904" y="920" type="line"/>
      <point x="1884" y="920" type="line"/>
      <point x="1825" y="1015"/>
      <point x="1747" y="1097"/>
      <point x="1658" y="1189" type="curve" smooth="yes"/>
      <point x="1567" y="1283"/>
      <point x="1496" y="1370"/>
      <point x="1352" y="1370" type="curve" smooth="yes"/>
      <point x="806" y="1370" type="line"/>
      <point x="806" y="741" type="line"/>
      <point x="1112" y="741" type="line" smooth="yes"/>
      <point x="1185" y="741"/>
      <point x="1232" y="805"/>
      <point x="1278" y="863" type="curve" smooth="yes"/>
      <point x="1314" y="910"/>
      <point x="1384" y="1007"/>
      <point x="1410" y="1066" type="curve"/>
      <point x="1430" y="1066" type="line"/>
      <point x="1430" y="446" type="line"/>
      <point x="1410" y="446" type="line"/>
      <point x="1370" y="513"/>
      <point x="1315" y="562"/>
      <point x="1270" y="614" type="curve" smooth="yes"/>
      <point x="1227" y="663"/>
      <point x="1188" y="711"/>
      <point x="1112" y="711" type="curve" smooth="yes"/>
      <point x="806" y="711" type="line"/>
      <point x="806" y="175" type="line" smooth="yes"/>
      <point x="806" y="120"/>
      <point x="834" y="104"/>
      <point x="934" y="65" type="curve" smooth="yes"/>
      <point x="999" y="39"/>
      <point x="1049" y="29"/>
      <point x="1130" y="20" type="curve"/>
      <point x="1130" y="0" type="line"/>
      <point x="80" y="0" type="line"/>
      <point x="80" y="20" type="line"/>
      <point x="161" y="29"/>
      <point x="211" y="39"/>
      <point x="276" y="65" type="curve" smooth="yes"/>
      <point x="376" y="104"/>
      <point x="404" y="120"/>
      <point x="404" y="175" type="curve" smooth="yes"/>
      <point x="404" y="1225" type="line" smooth="yes"/>
      <point x="404" y="1280"/>
      <point x="376" y="1296"/>
      <point x="276" y="1335" type="curve" smooth="yes"/>
      <point x="211" y="1361"/>
      <point x="161" y="1371"/>
    </contour>
  </outline>
</glyph>
<glyph name="G" format="2">
  <advance width="2476"/>
  <unicode hex="0047"/>
  <anchor x="1141" y="1400" name="top"/>
  <anchor x="1240" y="0" name="bottom"/>
  <anchor x="1240" y="0" name="cedilla"/>
  <outline>
    <contour>
      <point x="2240" y="22" type="line"/>
      <point x="2161.95" y="69.3884"/>
      <point x="2076.5" y="115"/>
      <point x="1960" y="115" type="curve" smooth="yes"/>
      <point x="1870" y="115"/>
      <point x="1800" y="95"/>
      <point x="1730" y="70" type="curve" smooth="yes"/>
      <point x="1610" y="24"/>
      <point x="1476" y="-20"/>
      <point x="1240" y="-20" type="curve" smooth="yes"/>
      <point x="634" y="-20"/>
      <point x="160" y="256"/>
      <point x="160" y="700" type="curve" smooth="yes"/>
      <point x="160" y="1144"/>
      <point x="664" y="1425"/>
      <point x="1180" y="1425" type="curve" smooth="yes"/>
      <point x="1392" y="1425"/>
      <point x="1588" y="1357"/>
      <point x="1747" y="1267" type="curve" smooth="yes"/>
      <point x="1771" y="1253"/>
      <point x="1827" y="1250"/>
      <point x="1897" y="1297" type="curve" smooth="yes"/>
      <point x="2070" y="1414" type="line"/>
      <point x="2090" y="1414" type="line"/>
      <point x="2090" y="903" type="line"/>
      <point x="2070" y="903" type="line"/>
      <point x="1894" y="1181"/>
      <point x="1553" y="1391"/>
      <point x="1201" y="1391" type="curve" smooth="yes"/>
      <point x="893" y="1391"/>
      <point x="630" y="1134"/>
      <point x="630" y="700" type="curve" smooth="yes"/>
      <point x="630" y="266"/>
      <point x="892" y="10"/>
      <point x="1260" y="10" type="curve" smooth="yes"/>
      <point x="1384" y="10"/>
      <point x="1554" y="27"/>
      <point x="1629" y="78" type="curve" smooth="yes"/>
      <point x="1663" y="101"/>
      <point x="1730" y="150"/>
      <point x="1730" y="200" type="curve" smooth="yes"/>
      <point x="1730" y="465" type="line" smooth="yes"/>
      <point x="1730" y="520"/>
      <point x="1702" y="536"/>
      <point x="1602" y="575" type="curve" smooth="yes"/>
      <point x="1537" y="601"/>
      <point x="1487" y="611"/>
      <point x="1406" y="620" type="curve"/>
      <point x="1406" y="640" type="line"/>
      <point x="2456" y="640" type="line"/>
      <point x="2456" y="620" type="line"/>
      <point x="2375" y="611"/>
      <point x="2325" y="601"/>
      <point x="2260" y="575" type="curve" smooth="yes"/>
      <point x="2160" y="536"/>
      <point x="2132" y="520"/>
      <point x="2132" y="465" type="curve" smooth="yes"/>
      <point x="2132" y="245" type="line" smooth="yes"/>
      <point x="2132" y="150"/>
      <point x="2147" y="133"/>
      <point x="2168" y="108" type="curve" smooth="yes"/>
      <point x="2189" y="83"/>
      <point x="2217" y="59"/>
      <point x="2249" y="36" type="curve"/>
    </contour>
    <contour>
      <point x="480" y="700" type="curve" smooth="yes"/>
      <point x="480" y="974"/>
      <point x="562" y="1217"/>
      <point x="810" y="1367" type="curve"/>
      <point x="486" y="1275"/>
      <point x="170" y="1054"/>
      <point x="170" y="700" type="curve" smooth="yes"/>
      <point x="170" y="346"/>
      <point x="484" y="126"/>
      <point x="810" y="43" type="curve"/>
      <point x="562" y="195"/>
      <point x="480" y="426"/>
    </contour>
    <contour>
      <point x="1723" y="1256" type="curve"/>
      <point x="1790" y="1211"/>
      <point x="1889" y="1138"/>
      <point x="1940" y="1081" type="curve"/>
      <point x="1940" y="1314" type="line"/>
      <point x="1846" y="1239"/>
      <point x="1783" y="1238"/>
    </contour>
    <contour>
      <point x="1426" y="627" type="line"/>
      <point x="1498.02" y="619"/>
      <point x="1549.18" y="605.975"/>
      <point x="1607.29" y="583" type="curve" smooth="yes"/>
      <point x="1705.86" y="544.029"/>
      <point x="1740" y="527"/>
      <point x="1740" y="465" type="curve" smooth="yes"/>
      <point x="1740" y="202" type="line" smooth="yes"/>
      <point x="1740" y="151"/>
      <point x="1693.15" y="118.377"/>
      <point x="1674" y="101" type="curve" smooth="yes"/>
      <point x="1656.54" y="85.1543"/>
      <point x="1618.02" y="55"/>
      <point x="1546" y="26" type="curve"/>
      <point x="1711" y="52"/>
      <point x="1772" y="124"/>
      <point x="1982" y="124" type="curve"/>
      <point x="1982" y="630" type="line"/>
      <point x="1426" y="630" type="line"/>
    </contour>
  </outline>
</glyph>
<glyph name="H" format="2">
  <advance width="2415"/>
  <unicode hex="0048"/>
  <anchor x="591" y="0" name="cedilla"/>
  <anchor x="1206" y="0" name="bottom"/>
  <anchor x="1205" y="1400" name="top"/>
  <outline>
    <contour>
      <point x="80" y="1380" type="curve"/>
      <point x="80" y="1400" type="line"/>
      <point x="1130" y="1400" type="line"/>
      <point x="1130" y="1380" type="line"/>
      <point x="1049" y="1371"/>
      <point x="999" y="1361"/>
      <point x="934" y="1335" type="curve" smooth="yes"/>
      <point x="834" y="1296"/>
      <point x="806" y="1280"/>
      <point x="806" y="1225" type="curve" smooth="yes"/>
      <point x="806" y="740" type="line"/>
      <point x="1609" y="740" type="line"/>
      <point x="1609" y="1225" type="line" smooth="yes"/>
      <point x="1609" y="1280"/>
      <point x="1581" y="1296"/>
      <point x="1481" y="1335" type="curve" smooth="yes"/>
      <point x="1416" y="1361"/>
      <point x="1366" y="1371"/>
      <point x="1285" y="1380" type="curve"/>
      <point x="1285" y="1400" type="line"/>
      <point x="2335" y="1400" type="line"/>
      <point x="2335" y="1380" type="line"/>
      <point x="2254" y="1371"/>
      <point x="2204" y="1361"/>
      <point x="2139" y="1335" type="curve" smooth="yes"/>
      <point x="2039" y="1296"/>
      <point x="2011" y="1280"/>
      <point x="2011" y="1225" type="curve" smooth="yes"/>
      <point x="2011" y="175" type="line" smooth="yes"/>
      <point x="2011" y="120"/>
      <point x="2039" y="104"/>
      <point x="2139" y="65" type="curve" smooth="yes"/>
      <point x="2204" y="39"/>
      <point x="2254" y="29"/>
      <point x="2335" y="20" type="curve"/>
      <point x="2335" y="0" type="line"/>
      <point x="1285" y="0" type="line"/>
      <point x="1285" y="20" type="line"/>
      <point x="1366" y="29"/>
      <point x="1416" y="39"/>
      <point x="1481" y="65" type="curve" smooth="yes"/>
      <point x="1581" y="104"/>
      <point x="1609" y="120"/>
      <point x="1609" y="175" type="curve" smooth="yes"/>
      <point x="1609" y="711" type="line"/>
      <point x="806" y="711" type="line"/>
      <point x="806" y="175" type="line" smooth="yes"/>
      <point x="806" y="120"/>
      <point x="834" y="104"/>
      <point x="934" y="65" type="curve" smooth="yes"/>
      <point x="999" y="39"/>
      <point x="1049" y="29"/>
      <point x="1130" y="20" type="curve"/>
      <point x="1130" y="0" type="line"/>
      <point x="80" y="0" type="line"/>
      <point x="80" y="20" type="line"/>
      <point x="161" y="29"/>
      <point x="211" y="39"/>
      <point x="276" y="65" type="curve" smooth="yes"/>
      <point x="376" y="104"/>
      <point x="404" y="120"/>
      <point x="404" y="175" type="curve" smooth="yes"/>
      <point x="404" y="1225" type="line" smooth="yes"/>
      <point x="404" y="1280"/>
      <point x="376" y="1296"/>
      <point x="276" y="1335" type="curve" smooth="yes"/>
      <point x="211" y="1361"/>
      <point x="161" y="1371"/>
    </contour>
    <contour>
      <point x="1305" y="1387" type="line"/>
      <point x="1377" y="1379"/>
      <point x="1428" y="1366"/>
      <point x="1486" y="1343" type="curve" smooth="yes"/>
      <point x="1585" y="1304"/>
      <point x="1619" y="1287"/>
      <point x="1619" y="1225" type="curve" smooth="yes"/>
      <point x="1619" y="175" type="line" smooth="yes"/>
      <point x="1619" y="113"/>
      <point x="1585" y="96"/>
      <point x="1486" y="57" type="curve" smooth="yes"/>
      <point x="1428" y="34"/>
      <point x="1377" y="21"/>
      <point x="1305" y="13" type="curve"/>
      <point x="1305" y="10" type="line"/>
      <point x="2105" y="10" type="line"/>
      <point x="2105" y="13" type="line"/>
      <point x="2053" y="31"/>
      <point x="2021" y="41"/>
      <point x="1983" y="56" type="curve" smooth="yes"/>
      <point x="1905" y="87"/>
      <point x="1861" y="113"/>
      <point x="1861" y="175" type="curve" smooth="yes"/>
      <point x="1861" y="1225" type="line" smooth="yes"/>
      <point x="1861" y="1287"/>
      <point x="1905" y="1313"/>
      <point x="1983" y="1344" type="curve" smooth="yes"/>
      <point x="2021" y="1359"/>
      <point x="2053" y="1369"/>
      <point x="2105" y="1387" type="curve"/>
      <point x="2105" y="1390" type="line"/>
      <point x="1305" y="1390" type="line"/>
    </contour>
    <contour>
      <point x="900" y="1387" type="curve"/>
      <point x="900" y="1390" type="line"/>
      <point x="100" y="1390" type="line"/>
      <point x="100" y="1387" type="line"/>
      <point x="172" y="1379"/>
      <point x="223" y="1366"/>
      <point x="281" y="1343" type="curve" smooth="yes"/>
      <point x="380" y="1304"/>
      <point x="414" y="1287"/>
      <point x="414" y="1225" type="curve" smooth="yes"/>
      <point x="414" y="175" type="line" smooth="yes"/>
      <point x="414" y="113"/>
      <point x="380" y="96"/>
      <point x="281" y="57" type="curve" smooth="yes"/>
      <point x="223" y="34"/>
      <point x="172" y="21"/>
      <point x="100" y="13" type="curve"/>
      <point x="100" y="10" type="line"/>
      <point x="900" y="10" type="line"/>
      <point x="900" y="13" type="line"/>
      <point x="848" y="31"/>
      <point x="816" y="41"/>
      <point x="778" y="56" type="curve" smooth="yes"/>
      <point x="700" y="87"/>
      <point x="656" y="113"/>
      <point x="656" y="175" type="curve" smooth="yes"/>
      <point x="656" y="1225" type="line" smooth="yes"/>
      <point x="656" y="1287"/>
      <point x="700" y="1313"/>
      <point x="778" y="1344" type="curve" smooth="yes"/>
      <point x="816" y="1359"/>
      <point x="848" y="1369"/>
    </contour>
  </outline>
</glyph>
<glyph name="I" format="2">
  <advance width="1210"/>
  <unicode hex="0049"/>
  <anchor x="606" y="0" name="cedilla"/>
  <anchor x="606" y="0" name="bottom"/>
  <anchor x="602" y="1400" name="top"/>
  <outline>
    <contour>
      <point x="900" y="13" type="line"/>
      <point x="847.976" y="31"/>
      <point x="816.164" y="40.9365"/>
      <point x="777.708" y="56" type="curve" smooth="yes"/>
      <point x="699.731" y="86.5439"/>
      <point x="656" y="113"/>
      <point x="656" y="175" type="curve"/>
      <point x="656" y="10" type="line"/>
      <point x="900" y="10" type="line"/>
    </contour>
    <contour>
      <point x="900" y="1387" type="curve"/>
      <point x="900" y="1390" type="line"/>
      <point x="656" y="1390" type="line"/>
      <point x="656" y="1225" type="line"/>
      <point x="656" y="1287"/>
      <point x="699.731" y="1313.46"/>
      <point x="777.708" y="1344" type="curve" smooth="yes"/>
      <point x="816.164" y="1359.06"/>
      <point x="847.976" y="1369"/>
    </contour>
    <contour>
      <point x="100" y="13" type="curve"/>
      <point x="100" y="10" type="line"/>
      <point x="414" y="10" type="line"/>
      <point x="414" y="175" type="line"/>
      <point x="414" y="113"/>
      <point x="379.861" y="95.9707"/>
      <point x="281.292" y="57" type="curve" smooth="yes"/>
      <point x="223.182" y="34.0254"/>
      <point x="172.024" y="21"/>
    </contour>
    <contour>
      <point x="414" y="1390" type="line"/>
      <point x="414" y="10" type="line"/>
      <point x="656" y="10" type="line"/>
      <point x="656" y="1390" type="line"/>
    </contour>
    <contour>
      <point x="100" y="1387" type="line"/>
      <point x="172.024" y="1379"/>
      <point x="223.182" y="1365.97"/>
      <point x="281.292" y="1343" type="curve" smooth="yes"/>
      <point x="379.861" y="1304.03"/>
      <point x="414" y="1287"/>
      <point x="414" y="1225" type="curve"/>
      <point x="414" y="1390" type="line"/>
      <point x="100" y="1390" type="line"/>
    </contour>
    <contour>
      <point x="80" y="1380" type="curve"/>
      <point x="80" y="1400" type="line"/>
      <point x="1130" y="1400" type="line"/>
      <point x="1130" y="1380" type="line"/>
      <point x="1049" y="1371"/>
      <point x="999" y="1361"/>
      <point x="934" y="1335" type="curve" smooth="yes"/>
      <point x="834" y="1296"/>
      <point x="806" y="1280"/>
      <point x="806" y="1225" type="curve" smooth="yes"/>
      <point x="806" y="175" type="line" smooth="yes"/>
      <point x="806" y="120"/>
      <point x="834" y="104"/>
      <point x="934" y="65" type="curve" smooth="yes"/>
      <point x="999" y="39"/>
      <point x="1049" y="29"/>
      <point x="1130" y="20" type="curve"/>
      <point x="1130" y="0" type="line"/>
      <point x="80" y="0" type="line"/>
      <point x="80" y="20" type="line"/>
      <point x="161" y="29"/>
      <point x="211" y="39"/>
      <point x="276" y="65" type="curve" smooth="yes"/>
      <point x="376" y="104"/>
      <point x="404" y="120"/>
      <point x="404" y="175" type="curve" smooth="yes"/>
      <point x="404" y="1225" type="line" smooth="yes"/>
      <point x="404" y="1280"/>
      <point x="376" y="1296"/>
      <point x="276" y="1335" type="curve" smooth="yes"/>
      <point x="211" y="1361"/>
      <point x="161" y="1371"/>
    </contour>
  </outline>
</glyph>
<glyph name="J" format="2">
  <advance width="1709"/>
  <unicode hex="004A"/>
  <anchor x="595" y="0" name="bottom"/>
  <anchor x="976" y="1400" name="top"/>
  <outline>
    <contour>
      <point x="428" y="397" type="curve" smooth="yes"/>
      <point x="428" y="493"/>
      <point x="360" y="555"/>
      <point x="264" y="555" type="curve" smooth="yes"/>
      <point x="166" y="555"/>
      <point x="71" y="453"/>
      <point x="71" y="337" type="curve" smooth="yes"/>
      <point x="71" y="236"/>
      <point x="140" y="159"/>
      <point x="200" y="99" type="curve"/>
      <point x="202" y="101" type="line"/>
      <point x="164" y="153"/>
      <point x="159" y="178"/>
      <point x="159" y="197" type="curve" smooth="yes"/>
      <point x="159" y="215.39"/>
      <point x="170.04" y="242"/>
      <point x="252" y="242" type="curve" smooth="yes"/>
      <point x="308" y="242"/>
      <point x="428" y="249"/>
    </contour>
    <contour>
      <point x="1419" y="1387" type="curve"/>
      <point x="1419" y="1390" type="line"/>
      <point x="1175" y="1390" type="line"/>
      <point x="1175" y="1225" type="line"/>
      <point x="1175" y="1287"/>
      <point x="1219" y="1313"/>
      <point x="1297" y="1344" type="curve" smooth="yes"/>
      <point x="1335" y="1359"/>
      <point x="1367" y="1369"/>
    </contour>
    <contour>
      <point x="619" y="1387" type="line"/>
      <point x="691" y="1379"/>
      <point x="742" y="1366"/>
      <point x="800" y="1343" type="curve" smooth="yes"/>
      <point x="899" y="1304"/>
      <point x="933" y="1287"/>
      <point x="933" y="1225" type="curve" smooth="yes"/>
      <point x="933" y="379" type="line" smooth="yes"/>
      <point x="933" y="112"/>
      <point x="787" y="-30"/>
      <point x="619" y="-45" type="curve"/>
      <point x="619" y="-48" type="line"/>
      <point x="937" y="-43"/>
      <point x="1175" y="130"/>
      <point x="1175" y="370" type="curve" smooth="yes"/>
      <point x="1175" y="1390" type="line"/>
      <point x="619" y="1390" type="line"/>
    </contour>
    <contour>
      <point x="1649" y="1380" type="line"/>
      <point x="1568" y="1371"/>
      <point x="1518" y="1361"/>
      <point x="1453" y="1335" type="curve" smooth="yes"/>
      <point x="1353" y="1296"/>
      <point x="1325" y="1280"/>
      <point x="1325" y="1225" type="curve" smooth="yes"/>
      <point x="1325" y="359" type="line" smooth="yes"/>
      <point x="1325" y="341"/>
      <point x="1318" y="325"/>
      <point x="1312" y="316" type="curve" smooth="yes"/>
      <point x="1148" y="71"/>
      <point x="877" y="-61"/>
      <point x="602" y="-61" type="curve" smooth="yes"/>
      <point x="348" y="-61"/>
      <point x="60" y="130"/>
      <point x="60" y="330" type="curve" smooth="yes"/>
      <point x="60" y="474"/>
      <point x="173" y="575"/>
      <point x="304" y="575" type="curve" smooth="yes"/>
      <point x="424" y="575"/>
      <point x="547" y="485"/>
      <point x="547" y="343" type="curve" smooth="yes"/>
      <point x="547" y="227"/>
      <point x="473" y="168"/>
      <point x="344" y="168" type="curve" smooth="yes"/>
      <point x="299" y="168"/>
      <point x="270" y="157"/>
      <point x="270" y="133" type="curve" smooth="yes"/>
      <point x="270" y="120"/>
      <point x="277" y="105"/>
      <point x="302" y="78" type="curve" smooth="yes"/>
      <point x="369" y="7"/>
      <point x="468" y="-31"/>
      <point x="597" y="-31" type="curve" smooth="yes"/>
      <point x="770" y="-31"/>
      <point x="923" y="101"/>
      <point x="923" y="380" type="curve" smooth="yes"/>
      <point x="923" y="1225" type="line" smooth="yes"/>
      <point x="923" y="1280"/>
      <point x="895" y="1296"/>
      <point x="795" y="1335" type="curve" smooth="yes"/>
      <point x="730" y="1361"/>
      <point x="680" y="1371"/>
      <point x="599" y="1380" type="curve"/>
      <point x="599" y="1400" type="line"/>
      <point x="1649" y="1400" type="line"/>
    </contour>
  </outline>
</glyph>
<glyph name="K" format="2">
  <advance width="2457"/>
  <unicode hex="004B"/>
  <anchor x="1226" y="0" name="cedilla"/>
  <anchor x="1226" y="0" name="bottom"/>
  <anchor x="1174" y="1400" name="top"/>
  <outline>
    <contour>
      <point x="1677" y="1235" type="curve"/>
      <point x="1698" y="1252"/>
      <point x="1733.77" y="1285.65"/>
      <point x="1768" y="1314" type="curve" smooth="yes"/>
      <point x="1795.66" y="1336.91"/>
      <point x="1832" y="1365"/>
      <point x="1868" y="1390" type="curve"/>
      <point x="1457" y="1390" type="line"/>
      <point x="1523.51" y="1375.2"/>
      <point x="1566.74" y="1358.94"/>
      <point x="1616" y="1325" type="curve" smooth="yes"/>
      <point x="1671.64" y="1286.67"/>
      <point x="1690" y="1256"/>
    </contour>
    <contour>
      <point x="1220" y="846" type="line"/>
      <point x="1017" y="678" type="line"/>
      <point x="1532" y="181" type="line" smooth="yes"/>
      <point x="1564.52" y="150.214"/>
      <point x="1538.19" y="108.409"/>
      <point x="1486" y="72" type="curve" smooth="yes"/>
      <point x="1443" y="42"/>
      <point x="1394" y="20"/>
      <point x="1320" y="10" type="curve"/>
      <point x="2142" y="10" type="line"/>
      <point x="2078" y="20"/>
      <point x="2013" y="45"/>
      <point x="1970" y="69" type="curve" smooth="yes"/>
      <point x="1932" y="90"/>
      <point x="1907.76" y="111.642"/>
      <point x="1872" y="150" type="curve" smooth="yes"/>
    </contour>
    <contour>
      <point x="900" y="1387" type="curve"/>
      <point x="900" y="1390" type="line"/>
      <point x="100" y="1390" type="line"/>
      <point x="100" y="1387" type="line"/>
      <point x="172" y="1379"/>
      <point x="223" y="1366"/>
      <point x="281" y="1343" type="curve" smooth="yes"/>
      <point x="380" y="1304"/>
      <point x="414" y="1287"/>
      <point x="414" y="1225" type="curve" smooth="yes"/>
      <point x="414" y="175" type="line" smooth="yes"/>
      <point x="414" y="113"/>
      <point x="380" y="96"/>
      <point x="281" y="57" type="curve" smooth="yes"/>
      <point x="223" y="34"/>
      <point x="172" y="21"/>
      <point x="100" y="13" type="curve"/>
      <point x="100" y="10" type="line"/>
      <point x="900" y="10" type="line"/>
      <point x="900" y="13" type="line"/>
      <point x="848" y="31"/>
      <point x="816" y="41"/>
      <point x="778" y="56" type="curve" smooth="yes"/>
      <point x="700" y="87"/>
      <point x="656" y="113"/>
      <point x="656" y="175" type="curve" smooth="yes"/>
      <point x="656" y="1225" type="line" smooth="yes"/>
      <point x="656" y="1287"/>
      <point x="700" y="1313"/>
      <point x="778" y="1344" type="curve" smooth="yes"/>
      <point x="816" y="1359"/>
      <point x="848" y="1369"/>
    </contour>
    <contour>
      <point x="1130" y="1380" type="line"/>
      <point x="1049" y="1371"/>
      <point x="999" y="1361"/>
      <point x="934" y="1335" type="curve" smooth="yes"/>
      <point x="834" y="1295"/>
      <point x="806" y="1280"/>
      <point x="806" y="1225" type="curve" smooth="yes"/>
      <point x="806" y="547" type="line"/>
      <point x="1658" y="1227" type="line" smooth="yes"/>
      <point x="1689" y="1252"/>
      <point x="1656" y="1286"/>
      <point x="1610" y="1318" type="curve" smooth="yes"/>
      <point x="1568" y="1347"/>
      <point x="1511" y="1371"/>
      <point x="1427" y="1380" type="curve"/>
      <point x="1427" y="1400" type="line"/>
      <point x="2061" y="1400" type="line"/>
      <point x="2061" y="1380" type="line"/>
      <point x="2015" y="1376"/>
      <point x="1971" y="1358"/>
      <point x="1891" y="1325" type="curve" smooth="yes"/>
      <point x="1831" y="1300"/>
      <point x="1737" y="1254"/>
      <point x="1682" y="1210" type="curve" smooth="yes"/>
      <point x="1351" y="945" type="line"/>
      <point x="2079" y="160" type="line" smooth="yes"/>
      <point x="2114" y="122"/>
      <point x="2168" y="92"/>
      <point x="2227" y="64" type="curve" smooth="yes"/>
      <point x="2300" y="29"/>
      <point x="2333" y="25"/>
      <point x="2407" y="20" type="curve"/>
      <point x="2407" y="0" type="line"/>
      <point x="1293" y="0" type="line"/>
      <point x="1293" y="20" type="line"/>
      <point x="1377" y="22"/>
      <point x="1439" y="51"/>
      <point x="1479" y="79" type="curve" smooth="yes"/>
      <point x="1524" y="111"/>
      <point x="1550" y="148"/>
      <point x="1524" y="173" type="curve" smooth="yes"/>
      <point x="1008" y="671" type="line"/>
      <point x="806" y="509" type="line"/>
      <point x="806" y="175" type="line" smooth="yes"/>
      <point x="806" y="120"/>
      <point x="834" y="104"/>
      <point x="934" y="65" type="curve" smooth="yes"/>
      <point x="999" y="39"/>
      <point x="1049" y="29"/>
      <point x="1130" y="20" type="curve"/>
      <point x="1130" y="0" type="line"/>
      <point x="80" y="0" type="line"/>
      <point x="80" y="20" type="line"/>
      <point x="161" y="29"/>
      <point x="211" y="39"/>
      <point x="276" y="65" type="curve" smooth="yes"/>
      <point x="376" y="104"/>
      <point x="404" y="120"/>
      <point x="404" y="175" type="curve" smooth="yes"/>
      <point x="404" y="1225" type="line" smooth="yes"/>
      <point x="404" y="1280"/>
      <point x="376" y="1296"/>
      <point x="276" y="1335" type="curve" smooth="yes"/>
      <point x="211" y="1361"/>
      <point x="161" y="1371"/>
      <point x="80" y="1380" type="curve"/>
      <point x="80" y="1400" type="line"/>
      <point x="1130" y="1400" type="line"/>
    </contour>
  </outline>
</glyph>
<glyph name="L" format="2">
  <advance width="1984"/>
  <unicode hex="004C"/>
  <anchor x="1006" y="0" name="cedilla"/>
  <anchor x="1006" y="0" name="bottom"/>
  <anchor x="604" y="1400" name="top"/>
  <outline>
    <contour>
      <point x="900" y="1387" type="curve"/>
      <point x="900" y="1390" type="line"/>
      <point x="656" y="1390" type="line"/>
      <point x="656" y="1225" type="line"/>
      <point x="656" y="1287"/>
      <point x="699.731" y="1313.46"/>
      <point x="777.708" y="1344" type="curve" smooth="yes"/>
      <point x="816.164" y="1359.06"/>
      <point x="847.976" y="1369"/>
    </contour>
    <contour>
      <point x="1324" y="10" type="curve"/>
      <point x="1754" y="10" type="line"/>
      <point x="1754" y="346" type="line"/>
      <point x="1544" y="124"/>
      <point x="1453" y="28"/>
    </contour>
    <contour>
      <point x="100" y="1387" type="line"/>
      <point x="172.024" y="1379"/>
      <point x="223.182" y="1365.97"/>
      <point x="281.292" y="1343" type="curve" smooth="yes"/>
      <point x="379.861" y="1304.03"/>
      <point x="414" y="1287"/>
      <point x="414" y="1225" type="curve" smooth="yes"/>
      <point x="414" y="175" type="line" smooth="yes"/>
      <point x="414" y="113"/>
      <point x="379.861" y="95.9707"/>
      <point x="281.292" y="57" type="curve" smooth="yes"/>
      <point x="223.182" y="34.0254"/>
      <point x="172.024" y="21"/>
      <point x="100" y="13" type="curve"/>
      <point x="100" y="10" type="line"/>
      <point x="656" y="10" type="line"/>
      <point x="656" y="1390" type="line"/>
      <point x="100" y="1390" type="line"/>
    </contour>
    <contour>
      <point x="80" y="1380" type="curve"/>
      <point x="80" y="1400" type="line"/>
      <point x="1130" y="1400" type="line"/>
      <point x="1130" y="1380" type="line"/>
      <point x="1049" y="1371"/>
      <point x="999" y="1361"/>
      <point x="934" y="1335" type="curve" smooth="yes"/>
      <point x="834" y="1295"/>
      <point x="806" y="1280"/>
      <point x="806" y="1225" type="curve" smooth="yes"/>
      <point x="806" y="30" type="line"/>
      <point x="1282" y="30" type="line" smooth="yes"/>
      <point x="1438" y="30"/>
      <point x="1512" y="112"/>
      <point x="1663" y="268" type="curve" smooth="yes"/>
      <point x="1798" y="408"/>
      <point x="1855" y="479"/>
      <point x="1884" y="550" type="curve"/>
      <point x="1904" y="550" type="line"/>
      <point x="1904" y="0" type="line"/>
      <point x="80" y="0" type="line"/>
      <point x="80" y="20" type="line"/>
      <point x="161" y="29"/>
      <point x="211" y="39"/>
      <point x="276" y="65" type="curve" smooth="yes"/>
      <point x="376" y="104"/>
      <point x="404" y="120"/>
      <point x="404" y="175" type="curve" smooth="yes"/>
      <point x="404" y="1225" type="line" smooth="yes"/>
      <point x="404" y="1280"/>
      <point x="376" y="1296"/>
      <point x="276" y="1335" type="curve" smooth="yes"/>
      <point x="211" y="1361"/>
      <point x="161" y="1371"/>
    </contour>
  </outline>
</glyph>
<glyph name="M" format="2">
  <advance width="2600"/>
  <unicode hex="004D"/>
  <anchor x="1176" y="0" name="bottom"/>
  <anchor x="1234" y="1400" name="top"/>
  <outline>
    <contour>
      <point x="373" y="325" type="curve"/>
      <point x="362" y="284"/>
      <point x="337.072" y="230.937"/>
      <point x="293" y="166" type="curve" smooth="yes"/>
      <point x="228.919" y="71.583"/>
      <point x="211" y="25"/>
      <point x="145" y="10" type="curve"/>
      <point x="436" y="10" type="line"/>
      <point x="409.358" y="65.9775"/>
      <point x="385.569" y="210.527"/>
    </contour>
    <contour>
      <point x="1172" y="39" type="line"/>
      <point x="1293" y="284" type="line"/>
      <point x="556" y="1390" type="line"/>
      <point x="116" y="1390" type="line"/>
      <point x="190" y="1378"/>
      <point x="237" y="1351"/>
      <point x="280" y="1327" type="curve" smooth="yes"/>
      <point x="318" y="1306"/>
      <point x="344.894" y="1282.27"/>
      <point x="379" y="1231" type="curve" smooth="yes"/>
    </contour>
    <contour>
      <point x="2336" y="1387" type="curve"/>
      <point x="2336" y="1390" type="line"/>
      <point x="2336" y="1387"/>
      <point x="1850" y="1390"/>
      <point x="1850" y="1390" type="curve"/>
      <point x="1850" y="175" type="line" smooth="yes"/>
      <point x="1850" y="143"/>
      <point x="1836.77" y="123.301"/>
      <point x="1748" y="67" type="curve" smooth="yes"/>
      <point x="1694.36" y="32.9801"/>
      <point x="1648" y="20"/>
      <point x="1606" y="13" type="curve"/>
      <point x="1606" y="10" type="line"/>
      <point x="2336" y="10" type="line"/>
      <point x="2336" y="13" type="line"/>
      <point x="2284" y="31"/>
      <point x="2252" y="41"/>
      <point x="2214" y="56" type="curve" smooth="yes"/>
      <point x="2136" y="87"/>
      <point x="2092" y="113"/>
      <point x="2092" y="175" type="curve" smooth="yes"/>
      <point x="2092" y="1225" type="line" smooth="yes"/>
      <point x="2092" y="1287"/>
      <point x="2136" y="1313"/>
      <point x="2214" y="1344" type="curve" smooth="yes"/>
      <point x="2252" y="1359"/>
      <point x="2284" y="1369"/>
    </contour>
    <contour>
      <point x="80" y="1380" type="line"/>
      <point x="80" y="1400" type="line"/>
      <point x="730" y="1400" type="line"/>
      <point x="1363" y="446" type="line"/>
      <point x="1840" y="1400" type="line"/>
      <point x="2066.67" y="1400"/>
      <point x="2293.33" y="1400"/>
      <point x="2520" y="1400" type="curve"/>
      <point x="2520" y="1380" type="line"/>
      <point x="2498" y="1380" type="line" smooth="yes"/>
      <point x="2437" y="1380"/>
      <point x="2381" y="1352"/>
      <point x="2338" y="1326" type="curve" smooth="yes"/>
      <point x="2301" y="1303"/>
      <point x="2240" y="1265"/>
      <point x="2240" y="1225" type="curve" smooth="yes"/>
      <point x="2240" y="175" type="line" smooth="yes"/>
      <point x="2240" y="135"/>
      <point x="2301" y="97"/>
      <point x="2338" y="74" type="curve" smooth="yes"/>
      <point x="2381" y="48"/>
      <point x="2437" y="20"/>
      <point x="2498" y="20" type="curve" smooth="yes"/>
      <point x="2520" y="20" type="line"/>
      <point x="2520" y="0" type="line"/>
      <point x="1560" y="0" type="line"/>
      <point x="1560" y="20" type="line"/>
      <point x="1582" y="20" type="line" smooth="yes"/>
      <point x="1643" y="20"/>
      <point x="1699" y="48"/>
      <point x="1742" y="74" type="curve" smooth="yes"/>
      <point x="1779" y="97"/>
      <point x="1840" y="135"/>
      <point x="1840" y="175" type="curve" smooth="yes"/>
      <point x="1840" y="1329" type="line"/>
      <point x="1180" y="0" type="line"/>
      <point x="390" y="1196" type="line"/>
      <point x="390" y="335" type="line" smooth="yes"/>
      <point x="390" y="315"/>
      <point x="394" y="301"/>
      <point x="401" y="286" type="curve" smooth="yes"/>
      <point x="421" y="241"/>
      <point x="476" y="154"/>
      <point x="498" y="122" type="curve" smooth="yes"/>
      <point x="535" y="68"/>
      <point x="564" y="25"/>
      <point x="611" y="23" type="curve" smooth="yes"/>
      <point x="670" y="20" type="line"/>
      <point x="670" y="0" type="line"/>
      <point x="80" y="0" type="line"/>
      <point x="80" y="20" type="line"/>
      <point x="139" y="23" type="line" smooth="yes"/>
      <point x="186" y="25"/>
      <point x="215" y="68"/>
      <point x="252" y="122" type="curve" smooth="yes"/>
      <point x="274" y="154"/>
      <point x="329" y="241"/>
      <point x="349" y="286" type="curve" smooth="yes"/>
      <point x="356" y="301"/>
      <point x="360" y="315"/>
      <point x="360" y="335" type="curve" smooth="yes"/>
      <point x="360" y="1240" type="line"/>
      <point x="330" y="1280"/>
      <point x="310" y="1300"/>
      <point x="272" y="1321" type="curve" smooth="yes"/>
      <point x="229" y="1345"/>
      <point x="164" y="1380"/>
      <point x="100" y="1380" type="curve" smooth="yes"/>
    </contour>
  </outline>
</glyph>
<glyph name="N" format="2">
  <advance width="2154"/>
  <unicode hex="004E"/>
  <anchor x="1107" y="0" name="bottom"/>
  <anchor x="1135" y="1400" name="top"/>
  <outline>
    <contour>
      <point x="1804" y="-48" type="line"/>
      <point x="1804" y="246" type="line"/>
      <point x="556" y="1390" type="line"/>
      <point x="116" y="1390" type="line"/>
      <point x="153.419" y="1387.96"/>
      <point x="226.331" y="1351.68"/>
      <point x="273" y="1314.12" type="curve" smooth="yes"/>
      <point x="318.512" y="1277.5"/>
      <point x="413.688" y="1210.31"/>
      <point x="457" y="1171" type="curve" smooth="yes"/>
    </contour>
    <contour>
      <point x="1817" y="1075" type="curve"/>
      <point x="1829.57" y="1189.47"/>
      <point x="1853.36" y="1334.02"/>
      <point x="1880" y="1390" type="curve"/>
      <point x="1589" y="1390" type="line"/>
      <point x="1655" y="1375"/>
      <point x="1672.92" y="1328.42"/>
      <point x="1737" y="1234" type="curve" smooth="yes"/>
      <point x="1781.07" y="1169.06"/>
      <point x="1806" y="1116"/>
    </contour>
    <contour>
      <point x="433" y="325" type="curve"/>
      <point x="422" y="284"/>
      <point x="397.072" y="230.937"/>
      <point x="353" y="166" type="curve" smooth="yes"/>
      <point x="288.919" y="71.583"/>
      <point x="271" y="25"/>
      <point x="205" y="10" type="curve"/>
      <point x="496" y="10" type="line"/>
      <point x="469.358" y="65.9775"/>
      <point x="445.569" y="210.527"/>
    </contour>
    <contour>
      <point x="80" y="1380" type="line"/>
      <point x="80" y="1400" type="line"/>
      <point x="760" y="1400" type="line"/>
      <point x="1804" y="477" type="line"/>
      <point x="1804" y="1065" type="line" smooth="yes"/>
      <point x="1804" y="1085"/>
      <point x="1800" y="1099"/>
      <point x="1793" y="1114" type="curve" smooth="yes"/>
      <point x="1773" y="1159"/>
      <point x="1718" y="1246"/>
      <point x="1696" y="1278" type="curve" smooth="yes"/>
      <point x="1659" y="1332"/>
      <point x="1630" y="1375"/>
      <point x="1583" y="1377" type="curve" smooth="yes"/>
      <point x="1524" y="1380" type="line"/>
      <point x="1524" y="1400" type="line"/>
      <point x="2114" y="1400" type="line"/>
      <point x="2114" y="1380" type="line"/>
      <point x="2055" y="1377" type="line" smooth="yes"/>
      <point x="2008" y="1375"/>
      <point x="1979" y="1332"/>
      <point x="1942" y="1278" type="curve" smooth="yes"/>
      <point x="1920" y="1246"/>
      <point x="1865" y="1159"/>
      <point x="1845" y="1114" type="curve" smooth="yes"/>
      <point x="1838" y="1099"/>
      <point x="1834" y="1085"/>
      <point x="1834" y="1065" type="curve" smooth="yes"/>
      <point x="1834" y="-90" type="line"/>
      <point x="450" y="1161" type="line"/>
      <point x="450" y="335" type="line" smooth="yes"/>
      <point x="450" y="315"/>
      <point x="454" y="301"/>
      <point x="461" y="286" type="curve" smooth="yes"/>
      <point x="481" y="241"/>
      <point x="536" y="154"/>
      <point x="558" y="122" type="curve" smooth="yes"/>
      <point x="595" y="68"/>
      <point x="624" y="25"/>
      <point x="671" y="23" type="curve" smooth="yes"/>
      <point x="730" y="20" type="line"/>
      <point x="730" y="0" type="line"/>
      <point x="140" y="0" type="line"/>
      <point x="140" y="20" type="line"/>
      <point x="199" y="23" type="line" smooth="yes"/>
      <point x="246" y="25"/>
      <point x="275" y="68"/>
      <point x="312" y="122" type="curve" smooth="yes"/>
      <point x="334" y="154"/>
      <point x="389" y="241"/>
      <point x="409" y="286" type="curve" smooth="yes"/>
      <point x="416" y="301"/>
      <point x="420" y="315"/>
      <point x="420" y="335" type="curve" smooth="yes"/>
      <point x="420" y="1184" type="line"/>
      <point x="272" y="1301" type="line" smooth="yes"/>
      <point x="234" y="1332"/>
      <point x="164" y="1380"/>
      <point x="100" y="1380" type="curve" smooth="yes"/>
    </contour>
  </outline>
</glyph>
<glyph name="O" format="2">
  <advance width="2320"/>
  <unicode hex="004F"/>
  <anchor x="1160" y="0" name="bottom"/>
  <anchor x="1160" y="1400" name="top"/>
  <outline>
    <contour>
      <point x="1160" y="1395" type="curve" smooth="yes"/>
      <point x="812" y="1395"/>
      <point x="630" y="1164"/>
      <point x="630" y="700" type="curve" smooth="yes"/>
      <point x="630" y="236"/>
      <point x="792" y="5"/>
      <point x="1160" y="5" type="curve" smooth="yes"/>
      <point x="1568" y="5"/>
      <point x="1690" y="236"/>
      <point x="1690" y="700" type="curve" smooth="yes"/>
      <point x="1690" y="1164"/>
      <point x="1548" y="1395"/>
    </contour>
    <contour>
      <point x="1700" y="700" type="curve"/>
      <point x="2010" y="700" type="line"/>
      <point x="2010" y="1074"/>
      <point x="1694" y="1331"/>
      <point x="1340" y="1384" type="curve"/>
      <point x="1638" y="1306"/>
      <point x="1700" y="1034"/>
    </contour>
    <contour>
      <point x="1700" y="700" type="line"/>
      <point x="1700" y="366"/>
      <point x="1643" y="82"/>
      <point x="1340" y="14" type="curve"/>
      <point x="1699" y="57"/>
      <point x="2010" y="326"/>
      <point x="2010" y="700" type="curve"/>
    </contour>
    <contour>
      <point x="1160" y="-20" type="curve" smooth="yes"/>
      <point x="646" y="-20"/>
      <point x="160" y="256"/>
      <point x="160" y="700" type="curve" smooth="yes"/>
      <point x="160" y="1144"/>
      <point x="664" y="1420"/>
      <point x="1160" y="1420" type="curve" smooth="yes"/>
      <point x="1656" y="1420"/>
      <point x="2160" y="1144"/>
      <point x="2160" y="700" type="curve" smooth="yes"/>
      <point x="2160" y="256"/>
      <point x="1674" y="-20"/>
    </contour>
    <contour>
      <point x="480" y="700" type="curve" smooth="yes"/>
      <point x="480" y="974"/>
      <point x="562" y="1214"/>
      <point x="810" y="1364" type="curve"/>
      <point x="496" y="1283"/>
      <point x="170" y="1054"/>
      <point x="170" y="700" type="curve" smooth="yes"/>
      <point x="170" y="346"/>
      <point x="496" y="117"/>
      <point x="810" y="36" type="curve"/>
      <point x="562" y="186"/>
      <point x="480" y="426"/>
    </contour>
  </outline>
</glyph>
<glyph name="P" format="2">
  <advance width="2134"/>
  <unicode hex="0050"/>
  <anchor x="596" y="0" name="bottom"/>
  <anchor x="1074" y="1400" name="top"/>
  <outline>
    <contour>
      <point x="1904" y="1014" type="curve" smooth="yes"/>
      <point x="1904" y="1268"/>
      <point x="1628" y="1373"/>
      <point x="1374" y="1386" type="curve"/>
      <point x="1529" y="1362"/>
      <point x="1624" y="1230"/>
      <point x="1624" y="1014" type="curve" smooth="yes"/>
      <point x="1624" y="800"/>
      <point x="1532" y="667"/>
      <point x="1374" y="643" type="curve"/>
      <point x="1608" y="646"/>
      <point x="1904" y="750"/>
    </contour>
    <contour>
      <point x="900" y="13" type="line"/>
      <point x="847.976" y="31"/>
      <point x="816.164" y="40.9365"/>
      <point x="777.708" y="56" type="curve" smooth="yes"/>
      <point x="699.731" y="86.5439"/>
      <point x="656" y="113"/>
      <point x="656" y="175" type="curve"/>
      <point x="656" y="10" type="line"/>
      <point x="900" y="10" type="line"/>
    </contour>
    <contour>
      <point x="100" y="1387" type="line"/>
      <point x="172.024" y="1379"/>
      <point x="223.182" y="1365.97"/>
      <point x="281.292" y="1343" type="curve" smooth="yes"/>
      <point x="379.861" y="1304.03"/>
      <point x="414" y="1287"/>
      <point x="414" y="1225" type="curve" smooth="yes"/>
      <point x="414" y="175" type="line" smooth="yes"/>
      <point x="414" y="113"/>
      <point x="379.861" y="95.9707"/>
      <point x="281.292" y="57" type="curve" smooth="yes"/>
      <point x="223.182" y="34.0254"/>
      <point x="172.024" y="21"/>
      <point x="100" y="13" type="curve"/>
      <point x="100" y="10" type="line"/>
      <point x="656" y="10" type="line"/>
      <point x="656" y="1390" type="line"/>
      <point x="100" y="1390" type="line"/>
    </contour>
    <contour>
      <point x="80" y="1380" type="curve"/>
      <point x="80" y="1400" type="line"/>
      <point x="524.667" y="1400"/>
      <point x="969.333" y="1400"/>
      <point x="1414" y="1400" type="curve" smooth="yes"/>
      <point x="1776" y="1400"/>
      <point x="2054" y="1274"/>
      <point x="2054" y="1014" type="curve" smooth="yes"/>
      <point x="2054" y="754"/>
      <point x="1776" y="628"/>
      <point x="1414" y="628" type="curve" smooth="yes"/>
      <point x="806" y="628" type="line"/>
      <point x="806" y="175" type="line" smooth="yes"/>
      <point x="806" y="120"/>
      <point x="834" y="104"/>
      <point x="934" y="65" type="curve" smooth="yes"/>
      <point x="999" y="39"/>
      <point x="1049" y="29"/>
      <point x="1130" y="20" type="curve"/>
      <point x="1130" y="0" type="line"/>
      <point x="80" y="0" type="line"/>
      <point x="80" y="20" type="line"/>
      <point x="161" y="29"/>
      <point x="211" y="39"/>
      <point x="276" y="65" type="curve" smooth="yes"/>
      <point x="376" y="104"/>
      <point x="404" y="120"/>
      <point x="404" y="175" type="curve" smooth="yes"/>
      <point x="404" y="1225" type="line" smooth="yes"/>
      <point x="404" y="1280"/>
      <point x="376" y="1296"/>
      <point x="276" y="1335" type="curve" smooth="yes"/>
      <point x="211" y="1361"/>
      <point x="161" y="1371"/>
    </contour>
    <contour>
      <point x="806" y="658" type="line"/>
      <point x="1354" y="658" type="line" smooth="yes"/>
      <point x="1506" y="658"/>
      <point x="1614" y="786"/>
      <point x="1614" y="1014" type="curve" smooth="yes"/>
      <point x="1614" y="1242"/>
      <point x="1506" y="1370"/>
      <point x="1354" y="1370" type="curve" smooth="yes"/>
      <point x="806" y="1370" type="line"/>
    </contour>
  </outline>
</glyph>
<glyph name="Q" format="2">
  <advance width="2326"/>
  <unicode hex="0051"/>
  <anchor x="1166" y="1400" name="top"/>
  <outline>
    <contour>
      <point x="1041" y="212" type="curve"/>
      <point x="1194" y="193"/>
      <point x="1218" y="26"/>
      <point x="1276" y="-140" type="curve" smooth="yes"/>
      <point x="1338" y="-317"/>
      <point x="1451" y="-492"/>
      <point x="1701" y="-492" type="curve" smooth="yes"/>
      <point x="1899" y="-492"/>
      <point x="2048" y="-407"/>
      <point x="2077" y="-188" type="curve"/>
      <point x="2027" y="-312"/>
      <point x="1968" y="-352"/>
      <point x="1852" y="-352" type="curve" smooth="yes"/>
      <point x="1643" y="-352"/>
      <point x="1515" y="-171"/>
      <point x="1399" y="-25" type="curve" smooth="yes"/>
      <point x="1291" y="110"/>
      <point x="1239" y="216"/>
      <point x="1093" y="216" type="curve" smooth="yes"/>
      <point x="1077" y="216"/>
      <point x="1060" y="215"/>
    </contour>
    <contour>
      <point x="487" y="700" type="curve" smooth="yes"/>
      <point x="487" y="974"/>
      <point x="569" y="1214"/>
      <point x="817" y="1364" type="curve"/>
      <point x="503" y="1283"/>
      <point x="177" y="1054"/>
      <point x="177" y="700" type="curve" smooth="yes"/>
      <point x="177" y="346"/>
      <point x="503" y="117"/>
      <point x="817" y="36" type="curve"/>
      <point x="569" y="186"/>
      <point x="487" y="426"/>
    </contour>
    <contour>
      <point x="1706" y="700" type="curve"/>
      <point x="2016" y="700" type="line"/>
      <point x="2016" y="1074"/>
      <point x="1700" y="1331"/>
      <point x="1346" y="1384" type="curve"/>
      <point x="1644" y="1306"/>
      <point x="1706" y="1034"/>
    </contour>
    <contour>
      <point x="897" y="63" type="curve"/>
      <point x="970" y="24"/>
      <point x="1059" y="5"/>
      <point x="1166" y="5" type="curve" smooth="yes"/>
      <point x="1183" y="5"/>
      <point x="1201" y="5"/>
      <point x="1217" y="6" type="curve"/>
      <point x="1178" y="110"/>
      <point x="1132" y="188"/>
      <point x="1041" y="188" type="curve" smooth="yes"/>
      <point x="963" y="188"/>
      <point x="911" y="149"/>
    </contour>
    <contour>
      <point x="1166" y="1395" type="curve" smooth="yes"/>
      <point x="818" y="1395"/>
      <point x="636" y="1164"/>
      <point x="636" y="700" type="curve" smooth="yes"/>
      <point x="636" y="387"/>
      <point x="709" y="181"/>
      <point x="870" y="79" type="curve"/>
      <point x="897" y="188"/>
      <point x="995" y="238"/>
      <point x="1121" y="238" type="curve" smooth="yes"/>
      <point x="1259" y="238"/>
      <point x="1362" y="160"/>
      <point x="1452" y="63" type="curve"/>
      <point x="1634" y="158"/>
      <point x="1696" y="370"/>
      <point x="1696" y="700" type="curve" smooth="yes"/>
      <point x="1696" y="1164"/>
      <point x="1554" y="1395"/>
    </contour>
    <contour>
      <point x="1459" y="55" type="curve"/>
      <point x="1473" y="39" type="line"/>
      <point x="1775" y="123"/>
      <point x="2016" y="371"/>
      <point x="2016" y="700" type="curve"/>
      <point x="1706" y="700" type="line"/>
      <point x="1706" y="413"/>
      <point x="1664" y="163"/>
    </contour>
    <contour>
      <point x="1492" y="18" type="curve"/>
      <point x="1615" y="-118"/>
      <point x="1734" y="-292"/>
      <point x="1901" y="-292" type="curve" smooth="yes"/>
      <point x="2039" y="-292"/>
      <point x="2068" y="-210"/>
      <point x="2078" y="-66" type="curve"/>
      <point x="2098" y="-66" type="line"/>
      <point x="2098" y="-364"/>
      <point x="1961" y="-502"/>
      <point x="1701" y="-502" type="curve" smooth="yes"/>
      <point x="1442" y="-502"/>
      <point x="1326" y="-320"/>
      <point x="1267" y="-143" type="curve" smooth="yes"/>
      <point x="1253" y="-100"/>
      <point x="1240" y="-58"/>
      <point x="1226" y="-19" type="curve"/>
      <point x="1206" y="-20"/>
      <point x="1186" y="-20"/>
      <point x="1166" y="-20" type="curve" smooth="yes"/>
      <point x="652" y="-20"/>
      <point x="166" y="256"/>
      <point x="166" y="700" type="curve" smooth="yes"/>
      <point x="166" y="1144"/>
      <point x="670" y="1420"/>
      <point x="1166" y="1420" type="curve" smooth="yes"/>
      <point x="1662" y="1420"/>
      <point x="2166" y="1144"/>
      <point x="2166" y="700" type="curve" smooth="yes"/>
      <point x="2166" y="352"/>
      <point x="1868" y="108"/>
    </contour>
  </outline>
</glyph>
<glyph name="R" format="2">
  <advance width="2340"/>
  <unicode hex="0052"/>
  <anchor x="594" y="0" name="cedilla"/>
  <anchor x="1246" y="0" name="bottom"/>
  <anchor x="1044" y="1400" name="top"/>
  <outline>
    <contour>
      <point x="1162" y="648" type="curve"/>
      <point x="1200" y="611"/>
      <point x="1238" y="555"/>
      <point x="1272" y="500" type="curve" smooth="yes"/>
      <point x="1469" y="173" type="line" smooth="yes"/>
      <point x="1519.19" y="89.6827"/>
      <point x="1577" y="30"/>
      <point x="1622" y="10" type="curve"/>
      <point x="2150" y="10" type="line"/>
      <point x="2052.52" y="29"/>
      <point x="2006.49" y="38.7949"/>
      <point x="1940" y="69" type="curve" smooth="yes"/>
      <point x="1900.33" y="87.0185"/>
      <point x="1858.19" y="101.104"/>
      <point x="1822" y="160" type="curve" smooth="yes"/>
      <point x="1568" y="570" type="line"/>
      <point x="1451" y="579"/>
      <point x="1321" y="600"/>
    </contour>
    <contour>
      <point x="1904" y="1024" type="curve" smooth="yes"/>
      <point x="1904" y="1278"/>
      <point x="1628" y="1371"/>
      <point x="1374" y="1384" type="curve"/>
      <point x="1529" y="1360"/>
      <point x="1624" y="1240"/>
      <point x="1624" y="1024" type="curve" smooth="yes"/>
      <point x="1624" y="810"/>
      <point x="1532" y="690"/>
      <point x="1374" y="666" type="curve"/>
      <point x="1608" y="669"/>
      <point x="1904" y="760"/>
    </contour>
    <contour>
      <point x="900" y="13" type="line"/>
      <point x="847.976" y="31"/>
      <point x="816.164" y="40.9365"/>
      <point x="777.708" y="56" type="curve" smooth="yes"/>
      <point x="699.731" y="86.5439"/>
      <point x="656" y="113"/>
      <point x="656" y="175" type="curve"/>
      <point x="656" y="10" type="line"/>
      <point x="900" y="10" type="line"/>
    </contour>
    <contour>
      <point x="100" y="1387" type="line"/>
      <point x="172.024" y="1379"/>
      <point x="223.182" y="1365.97"/>
      <point x="281.292" y="1343" type="curve" smooth="yes"/>
      <point x="379.861" y="1304.03"/>
      <point x="414" y="1287"/>
      <point x="414" y="1225" type="curve" smooth="yes"/>
      <point x="414" y="175" type="line" smooth="yes"/>
      <point x="414" y="113"/>
      <point x="379.861" y="95.9707"/>
      <point x="281.292" y="57" type="curve" smooth="yes"/>
      <point x="223.182" y="34.0254"/>
      <point x="172.024" y="21"/>
      <point x="100" y="13" type="curve"/>
      <point x="100" y="10" type="line"/>
      <point x="656" y="10" type="line"/>
      <point x="656" y="1390" type="line"/>
      <point x="100" y="1390" type="line"/>
    </contour>
    <contour>
      <point x="1130" y="20" type="curve"/>
      <point x="1130" y="0" type="line"/>
      <point x="80" y="0" type="line"/>
      <point x="80" y="20" type="line"/>
      <point x="161" y="29"/>
      <point x="211" y="39"/>
      <point x="276" y="65" type="curve" smooth="yes"/>
      <point x="376" y="104"/>
      <point x="404" y="120"/>
      <point x="404" y="175" type="curve" smooth="yes"/>
      <point x="404" y="1225" type="line" smooth="yes"/>
      <point x="404" y="1280"/>
      <point x="376" y="1296"/>
      <point x="276" y="1335" type="curve" smooth="yes"/>
      <point x="211" y="1361"/>
      <point x="161" y="1371"/>
      <point x="80" y="1380" type="curve"/>
      <point x="80" y="1400" type="line"/>
      <point x="524.667" y="1400"/>
      <point x="969.333" y="1400"/>
      <point x="1414" y="1400" type="curve" smooth="yes"/>
      <point x="1776" y="1400"/>
      <point x="2054" y="1284"/>
      <point x="2054" y="1024" type="curve" smooth="yes"/>
      <point x="2054" y="764"/>
      <point x="1776" y="648"/>
      <point x="1414" y="648" type="curve" smooth="yes"/>
      <point x="1229" y="648" type="line"/>
      <point x="1385" y="592"/>
      <point x="1560" y="575"/>
      <point x="1727" y="575" type="curve"/>
      <point x="1982" y="160" type="line" smooth="yes"/>
      <point x="2005" y="123"/>
      <point x="2043" y="102"/>
      <point x="2080" y="79" type="curve" smooth="yes"/>
      <point x="2123" y="53"/>
      <point x="2188" y="20"/>
      <point x="2242" y="20" type="curve" smooth="yes"/>
      <point x="2300" y="20" type="line"/>
      <point x="2300" y="0" type="line"/>
      <point x="2073.33" y="0"/>
      <point x="1846.67" y="0"/>
      <point x="1620" y="0" type="curve"/>
      <point x="1565" y="23"/>
      <point x="1521" y="68"/>
      <point x="1457" y="173" type="curve" smooth="yes"/>
      <point x="1260" y="500" type="line" smooth="yes"/>
      <point x="1226" y="555"/>
      <point x="1189" y="611"/>
      <point x="1151" y="648" type="curve"/>
      <point x="806" y="648" type="line"/>
      <point x="806" y="175" type="line" smooth="yes"/>
      <point x="806" y="120"/>
      <point x="834" y="104"/>
      <point x="934" y="65" type="curve" smooth="yes"/>
      <point x="999" y="39"/>
      <point x="1049" y="29"/>
    </contour>
    <contour>
      <point x="806" y="1370" type="line"/>
      <point x="806" y="678" type="line"/>
      <point x="1354" y="678" type="line" smooth="yes"/>
      <point x="1506" y="678"/>
      <point x="1614" y="796"/>
      <point x="1614" y="1024" type="curve" smooth="yes"/>
      <point x="1614" y="1252"/>
      <point x="1506" y="1370"/>
      <point x="1354" y="1370" type="curve" smooth="yes"/>
    </contour>
  </outline>
</glyph>
<glyph name="S" format="2">
  <advance width="1908"/>
  <unicode hex="0053"/>
  <anchor x="971" y="0" name="cedilla"/>
  <anchor x="971" y="0" name="bottom"/>
  <anchor x="984" y="1400" name="top"/>
  <outline>
    <contour>
      <point x="446" y="1356" type="curve"/>
      <point x="294" y="1305"/>
      <point x="150" y="1200"/>
      <point x="150" y="1010" type="curve" smooth="yes"/>
      <point x="150" y="700"/>
      <point x="427" y="614"/>
      <point x="970" y="565" type="curve" smooth="yes"/>
      <point x="1410" y="525"/>
      <point x="1640" y="433"/>
      <point x="1640" y="250" type="curve" smooth="yes"/>
      <point x="1640" y="102"/>
      <point x="1507" y="28"/>
      <point x="1335" y="2" type="curve"/>
      <point x="1507" y="12"/>
      <point x="1758" y="90"/>
      <point x="1758" y="370" type="curve" smooth="yes"/>
      <point x="1758" y="572"/>
      <point x="1620" y="740"/>
      <point x="1076" y="790" type="curve" smooth="yes"/>
      <point x="619" y="832"/>
      <point x="310" y="858"/>
      <point x="310" y="1130" type="curve" smooth="yes"/>
      <point x="310" y="1208"/>
      <point x="334" y="1276"/>
    </contour>
    <contour>
      <point x="470" y="165" type="curve"/>
      <point x="403" y="210"/>
      <point x="240" y="244"/>
      <point x="190" y="259" type="curve"/>
      <point x="190" y="9" type="line"/>
      <point x="274" y="86"/>
      <point x="376" y="172"/>
    </contour>
    <contour>
      <point x="1331" y="1273" type="curve"/>
      <point x="1400" y="1230"/>
      <point x="1488" y="1181"/>
      <point x="1548" y="1128" type="curve"/>
      <point x="1548" y="1314" type="line"/>
      <point x="1453" y="1249"/>
      <point x="1391" y="1255"/>
    </contour>
    <contour>
      <point x="1678" y="1440" type="curve"/>
      <point x="1698" y="1440" type="line"/>
      <point x="1698" y="988" type="line"/>
      <point x="1678" y="988" type="line"/>
      <point x="1498" y="1206"/>
      <point x="1127" y="1390"/>
      <point x="829" y="1390" type="curve" smooth="yes"/>
      <point x="537" y="1390"/>
      <point x="390" y="1298"/>
      <point x="390" y="1190" type="curve" smooth="yes"/>
      <point x="390" y="1038"/>
      <point x="619" y="962"/>
      <point x="1076" y="920" type="curve" smooth="yes"/>
      <point x="1620" y="870"/>
      <point x="1848" y="712"/>
      <point x="1848" y="430" type="curve" smooth="yes"/>
      <point x="1848" y="120"/>
      <point x="1537" y="-28"/>
      <point x="1175" y="-28" type="curve" smooth="yes"/>
      <point x="940" y="-28"/>
      <point x="725" y="44"/>
      <point x="534" y="137" type="curve" smooth="yes"/>
      <point x="519" y="144"/>
      <point x="495" y="155"/>
      <point x="466" y="155" type="curve" smooth="yes"/>
      <point x="381" y="155"/>
      <point x="281" y="77"/>
      <point x="198" y="0" type="curve"/>
      <point x="180" y="0" type="line"/>
      <point x="180" y="490" type="line"/>
      <point x="200" y="490" type="line"/>
      <point x="390" y="192"/>
      <point x="787" y="2"/>
      <point x="1175" y="2" type="curve" smooth="yes"/>
      <point x="1397" y="2"/>
      <point x="1630" y="62"/>
      <point x="1630" y="250" type="curve" smooth="yes"/>
      <point x="1630" y="424"/>
      <point x="1410" y="515"/>
      <point x="970" y="555" type="curve" smooth="yes"/>
      <point x="427" y="604"/>
      <point x="140" y="691"/>
      <point x="140" y="1010" type="curve" smooth="yes"/>
      <point x="140" y="1290"/>
      <point x="437" y="1420"/>
      <point x="829" y="1420" type="curve" smooth="yes"/>
      <point x="1002" y="1420"/>
      <point x="1196" y="1359"/>
      <point x="1330" y="1295" type="curve" smooth="yes"/>
      <point x="1354" y="1283"/>
      <point x="1388" y="1276"/>
      <point x="1411" y="1276" type="curve" smooth="yes"/>
      <point x="1517" y="1276"/>
      <point x="1605" y="1378"/>
    </contour>
  </outline>
</glyph>
<glyph name="T" format="2">
  <advance width="1870"/>
  <unicode hex="0054"/>
  <anchor x="935" y="0" name="cedilla"/>
  <anchor x="935" y="0" name="bottom"/>
  <anchor x="944" y="1400" name="top"/>
  <outline>
    <contour>
      <point x="396" y="20" type="line"/>
      <point x="477" y="29"/>
      <point x="527" y="39"/>
      <point x="592" y="65" type="curve" smooth="yes"/>
      <point x="692" y="104"/>
      <point x="720" y="120"/>
      <point x="720" y="175" type="curve" smooth="yes"/>
      <point x="720" y="1370" type="line"/>
      <point x="590" y="1370" type="line" smooth="yes"/>
      <point x="451" y="1370"/>
      <point x="358" y="1230"/>
      <point x="274" y="1129" type="curve" smooth="yes"/>
      <point x="187" y="1024"/>
      <point x="107" y="905"/>
      <point x="48" y="820" type="curve"/>
      <point x="28" y="820" type="line"/>
      <point x="28" y="1400" type="line"/>
      <point x="632.667" y="1400"/>
      <point x="1237.33" y="1400"/>
      <point x="1842" y="1400" type="curve"/>
      <point x="1842" y="820" type="line"/>
      <point x="1822" y="820" type="line"/>
      <point x="1763" y="905"/>
      <point x="1683" y="1024"/>
      <point x="1596" y="1129" type="curve" smooth="yes"/>
      <point x="1512" y="1230"/>
      <point x="1419" y="1370"/>
      <point x="1280" y="1370" type="curve" smooth="yes"/>
      <point x="1150" y="1370" type="line"/>
      <point x="1150" y="175" type="line" smooth="yes"/>
      <point x="1150" y="120"/>
      <point x="1178" y="104"/>
      <point x="1278" y="65" type="curve" smooth="yes"/>
      <point x="1343" y="39"/>
      <point x="1393" y="29"/>
      <point x="1474" y="20" type="curve"/>
      <point x="1474" y="0" type="line"/>
      <point x="396" y="0" type="line"/>
    </contour>
    <contour>
      <point x="416" y="13" type="curve"/>
      <point x="416" y="10" type="line"/>
      <point x="730" y="10" type="line"/>
      <point x="972" y="10" type="line"/>
      <point x="1216" y="10" type="line"/>
      <point x="1216" y="13" type="line"/>
      <point x="1163.98" y="31"/>
      <point x="1132.16" y="40.9365"/>
      <point x="1093.71" y="56" type="curve" smooth="yes"/>
      <point x="1015.73" y="86.5439"/>
      <point x="972" y="113"/>
      <point x="972" y="175" type="curve" smooth="yes"/>
      <point x="972" y="1370" type="line"/>
      <point x="730" y="1370" type="line"/>
      <point x="730" y="175" type="line" smooth="yes"/>
      <point x="730" y="113"/>
      <point x="695.861" y="95.9707"/>
      <point x="597.292" y="57" type="curve" smooth="yes"/>
      <point x="539.182" y="34.0254"/>
      <point x="488.024" y="21"/>
    </contour>
    <contour>
      <point x="1297" y="1390" type="line"/>
      <point x="1460" y="1351"/>
      <point x="1484" y="1284"/>
      <point x="1692" y="1032" type="curve"/>
      <point x="1692" y="1390" type="line"/>
    </contour>
    <contour>
      <point x="503" y="1390" type="curve"/>
      <point x="38" y="1390" type="line"/>
      <point x="38" y="1032" type="line"/>
      <point x="246" y="1284"/>
      <point x="340" y="1351"/>
    </contour>
  </outline>
</glyph>
<glyph name="U" format="2">
  <advance width="2214"/>
  <unicode hex="0055"/>
  <anchor x="1196" y="0" name="cedilla"/>
  <anchor x="1196" y="0" name="bottom"/>
  <anchor x="1234" y="1400" name="top"/>
  <outline>
    <contour>
      <point x="1837" y="1075" type="curve"/>
      <point x="1849.57" y="1189.47"/>
      <point x="1873.36" y="1334.02"/>
      <point x="1900" y="1390" type="curve"/>
      <point x="1609" y="1390" type="line"/>
      <point x="1675" y="1375"/>
      <point x="1692.92" y="1328.42"/>
      <point x="1757" y="1234" type="curve" smooth="yes"/>
      <point x="1801.07" y="1169.06"/>
      <point x="1826" y="1116"/>
    </contour>
    <contour>
      <point x="120" y="1387" type="line"/>
      <point x="202" y="1373"/>
      <point x="243.468" y="1357.57"/>
      <point x="282" y="1343" type="curve" smooth="yes"/>
      <point x="369.267" y="1309.99"/>
      <point x="414" y="1287"/>
      <point x="414" y="1225" type="curve"/>
      <point x="414" y="1390" type="line"/>
      <point x="120" y="1390" type="line"/>
    </contour>
    <contour>
      <point x="970" y="1387" type="curve"/>
      <point x="970" y="1390" type="line"/>
      <point x="414" y="1390" type="line"/>
      <point x="414" y="508" type="line" smooth="yes"/>
      <point x="414" y="198"/>
      <point x="632" y="34"/>
      <point x="970" y="-8" type="curve"/>
      <point x="970" y="-5" type="line"/>
      <point x="802" y="50"/>
      <point x="656" y="212"/>
      <point x="656" y="499" type="curve" smooth="yes"/>
      <point x="656" y="1225" type="line" smooth="yes"/>
      <point x="656" y="1287"/>
      <point x="690" y="1304"/>
      <point x="789" y="1343" type="curve" smooth="yes"/>
      <point x="847" y="1366"/>
      <point x="898" y="1379"/>
    </contour>
    <contour>
      <point x="2075" y="1377" type="line" smooth="yes"/>
      <point x="2028" y="1375"/>
      <point x="1999" y="1332"/>
      <point x="1962" y="1278" type="curve" smooth="yes"/>
      <point x="1940" y="1246"/>
      <point x="1885" y="1159"/>
      <point x="1865" y="1114" type="curve" smooth="yes"/>
      <point x="1858" y="1099"/>
      <point x="1854" y="1085"/>
      <point x="1854" y="1065" type="curve" smooth="yes"/>
      <point x="1854" y="510" type="line" smooth="yes"/>
      <point x="1854" y="180"/>
      <point x="1605" y="-28"/>
      <point x="1169" y="-28" type="curve" smooth="yes"/>
      <point x="663" y="-28"/>
      <point x="404" y="164"/>
      <point x="404" y="510" type="curve" smooth="yes"/>
      <point x="404" y="1225" type="line" smooth="yes"/>
      <point x="404" y="1280"/>
      <point x="376" y="1296"/>
      <point x="276" y="1335" type="curve" smooth="yes"/>
      <point x="211" y="1361"/>
      <point x="161" y="1371"/>
      <point x="80" y="1380" type="curve"/>
      <point x="80" y="1400" type="line"/>
      <point x="1130" y="1400" type="line"/>
      <point x="1130" y="1380" type="line"/>
      <point x="1049" y="1371"/>
      <point x="999" y="1361"/>
      <point x="934" y="1335" type="curve" smooth="yes"/>
      <point x="834" y="1295"/>
      <point x="806" y="1280"/>
      <point x="806" y="1225" type="curve" smooth="yes"/>
      <point x="806" y="480" type="line" smooth="yes"/>
      <point x="806" y="216"/>
      <point x="991" y="17"/>
      <point x="1289" y="17" type="curve" smooth="yes"/>
      <point x="1557" y="17"/>
      <point x="1824" y="186"/>
      <point x="1824" y="510" type="curve" smooth="yes"/>
      <point x="1824" y="1065" type="line" smooth="yes"/>
      <point x="1824" y="1085"/>
      <point x="1820" y="1099"/>
      <point x="1813" y="1114" type="curve" smooth="yes"/>
      <point x="1793" y="1159"/>
      <point x="1738" y="1246"/>
      <point x="1716" y="1278" type="curve" smooth="yes"/>
      <point x="1679" y="1332"/>
      <point x="1650" y="1375"/>
      <point x="1603" y="1377" type="curve" smooth="yes"/>
      <point x="1544" y="1380" type="line"/>
      <point x="1544" y="1400" type="line"/>
      <point x="2134" y="1400" type="line"/>
      <point x="2134" y="1380" type="line"/>
    </contour>
  </outline>
</glyph>
<glyph name="V" format="2">
  <advance width="2290"/>
  <unicode hex="0056"/>
  <anchor x="1231" y="0" name="bottom"/>
  <anchor x="1234" y="1400" name="top"/>
  <outline>
    <contour>
      <point x="1221" y="6" type="line"/>
      <point x="1374" y="260" type="line"/>
      <point x="693" y="1219" type="line" smooth="yes"/>
      <point x="657.831" y="1267.32"/>
      <point x="697.034" y="1306.75"/>
      <point x="755" y="1333" type="curve" smooth="yes"/>
      <point x="808" y="1357"/>
      <point x="881" y="1380"/>
      <point x="945" y="1390" type="curve"/>
      <point x="133" y="1390" type="line"/>
      <point x="195" y="1377"/>
      <point x="240.899" y="1352.82"/>
      <point x="284" y="1329" type="curve" smooth="yes"/>
      <point x="322" y="1308"/>
      <point x="349.093" y="1285.06"/>
      <point x="379" y="1241" type="curve" smooth="yes"/>
    </contour>
    <contour>
      <point x="1844" y="1027" type="curve"/>
      <point x="1856.82" y="1055.38"/>
      <point x="1940.58" y="1353.05"/>
      <point x="1980" y="1390" type="curve"/>
      <point x="1629" y="1390" type="line"/>
      <point x="1668.51" y="1370.2"/>
      <point x="1726.67" y="1296.57"/>
      <point x="1781" y="1212" type="curve" smooth="yes"/>
      <point x="1828.53" y="1138.01"/>
      <point x="1859" y="1078"/>
    </contour>
    <contour>
      <point x="2240" y="1380" type="line"/>
      <point x="2200" y="1380" type="line" smooth="yes"/>
      <point x="2144" y="1380"/>
      <point x="2082" y="1290"/>
      <point x="2007" y="1204" type="curve" smooth="yes"/>
      <point x="1933" y="1119"/>
      <point x="1868" y="1029"/>
      <point x="1847" y="996" type="curve" smooth="yes"/>
      <point x="1230" y="-30" type="line"/>
      <point x="368" y="1240" type="line" smooth="yes"/>
      <point x="339" y="1284"/>
      <point x="318" y="1300"/>
      <point x="280" y="1321" type="curve" smooth="yes"/>
      <point x="237" y="1345"/>
      <point x="172" y="1380"/>
      <point x="108" y="1380" type="curve" smooth="yes"/>
      <point x="50" y="1380" type="line"/>
      <point x="50" y="1400" type="line"/>
      <point x="1084" y="1400" type="line"/>
      <point x="1084" y="1380" type="line"/>
      <point x="1060" y="1380" type="line" smooth="yes"/>
      <point x="996" y="1380"/>
      <point x="931" y="1345"/>
      <point x="888" y="1321" type="curve" smooth="yes"/>
      <point x="833" y="1289"/>
      <point x="821" y="1258"/>
      <point x="843" y="1227" type="curve" smooth="yes"/>
      <point x="1444" y="377" type="line"/>
      <point x="1820" y="1003" type="line" smooth="yes"/>
      <point x="1857" y="1064"/>
      <point x="1817" y="1139"/>
      <point x="1767" y="1212" type="curve" smooth="yes"/>
      <point x="1712" y="1293"/>
      <point x="1674" y="1343"/>
      <point x="1639" y="1366" type="curve" smooth="yes"/>
      <point x="1629" y="1373"/>
      <point x="1613" y="1380"/>
      <point x="1584" y="1380" type="curve" smooth="yes"/>
      <point x="1540" y="1380" type="line"/>
      <point x="1540" y="1400" type="line"/>
      <point x="2240" y="1400" type="line"/>
    </contour>
  </outline>
</glyph>
<glyph name="W" format="2">
  <advance width="3160"/>
  <unicode hex="0057"/>
  <anchor x="1646" y="0" name="bottom"/>
  <anchor x="1704" y="1400" name="top"/>
  <outline>
    <contour>
      <point x="1614" y="932" type="line"/>
      <point x="2163" y="4" type="line"/>
      <point x="2297" y="268" type="line"/>
      <point x="1755" y="1221" type="line"/>
    </contour>
    <contour>
      <point x="2682" y="1027" type="curve"/>
      <point x="2692.93" y="1053.05"/>
      <point x="2784.76" y="1354.15"/>
      <point x="2823" y="1390" type="curve"/>
      <point x="2462" y="1390" type="line"/>
      <point x="2501.51" y="1377.2"/>
      <point x="2564.67" y="1296.57"/>
      <point x="2619" y="1212" type="curve" smooth="yes"/>
      <point x="2666.53" y="1138.01"/>
      <point x="2697" y="1078"/>
    </contour>
    <contour>
      <point x="1134" y="1" type="line"/>
      <point x="1268" y="270" type="line"/>
      <point x="693" y="1219" type="line" smooth="yes"/>
      <point x="658" y="1267"/>
      <point x="697" y="1307"/>
      <point x="755" y="1333" type="curve" smooth="yes"/>
      <point x="808" y="1357"/>
      <point x="881" y="1380"/>
      <point x="945" y="1390" type="curve"/>
      <point x="133" y="1390" type="line"/>
      <point x="195" y="1377"/>
      <point x="241" y="1353"/>
      <point x="284" y="1329" type="curve" smooth="yes"/>
      <point x="322" y="1308"/>
      <point x="349" y="1285"/>
      <point x="379" y="1241" type="curve" smooth="yes"/>
    </contour>
    <contour>
      <point x="3080" y="1380" type="line"/>
      <point x="3040" y="1380" type="line" smooth="yes"/>
      <point x="2984" y="1380"/>
      <point x="2922" y="1290"/>
      <point x="2847" y="1204" type="curve" smooth="yes"/>
      <point x="2773" y="1119"/>
      <point x="2708" y="1029"/>
      <point x="2687" y="996" type="curve"/>
      <point x="2170" y="-30" type="line"/>
      <point x="1606" y="921" type="line"/>
      <point x="1140" y="-30" type="line"/>
      <point x="368" y="1240" type="line"/>
      <point x="339" y="1284"/>
      <point x="318" y="1300"/>
      <point x="280" y="1321" type="curve" smooth="yes"/>
      <point x="237" y="1345"/>
      <point x="172" y="1380"/>
      <point x="108" y="1380" type="curve" smooth="yes"/>
      <point x="50" y="1380" type="line"/>
      <point x="50" y="1400" type="line"/>
      <point x="1084" y="1400" type="line"/>
      <point x="1084" y="1380" type="line"/>
      <point x="1060" y="1380" type="line" smooth="yes"/>
      <point x="996" y="1380"/>
      <point x="931" y="1345"/>
      <point x="888" y="1321" type="curve" smooth="yes"/>
      <point x="833" y="1289"/>
      <point x="821" y="1258"/>
      <point x="843" y="1227" type="curve"/>
      <point x="1326" y="400" type="line"/>
      <point x="1816" y="1400" type="line"/>
      <point x="2362" y="405" type="line"/>
      <point x="2660" y="1003" type="line"/>
      <point x="2697" y="1064"/>
      <point x="2657" y="1139"/>
      <point x="2607" y="1212" type="curve" smooth="yes"/>
      <point x="2552" y="1293"/>
      <point x="2514" y="1343"/>
      <point x="2479" y="1366" type="curve" smooth="yes"/>
      <point x="2469" y="1373"/>
      <point x="2453" y="1380"/>
      <point x="2424" y="1380" type="curve" smooth="yes"/>
      <point x="2380" y="1380" type="line"/>
      <point x="2380" y="1400" type="line"/>
      <point x="3080" y="1400" type="line"/>
    </contour>
  </outline>
</glyph>
<glyph name="X" format="2">
  <advance width="2350"/>
  <unicode hex="0058"/>
  <anchor x="1086" y="0" name="bottom"/>
  <anchor x="1184" y="1400" name="top"/>
  <outline>
    <contour>
      <point x="1565" y="1183" type="curve"/>
      <point x="1586" y="1210"/>
      <point x="1633.56" y="1263.61"/>
      <point x="1666" y="1294" type="curve" smooth="yes"/>
      <point x="1693.67" y="1319.91"/>
      <point x="1742" y="1365"/>
      <point x="1778" y="1390" type="curve"/>
      <point x="1367" y="1390" type="line"/>
      <point x="1415.51" y="1377.2"/>
      <point x="1438.71" y="1373.28"/>
      <point x="1501" y="1309" type="curve" smooth="yes"/>
      <point x="1557.09" y="1251.11"/>
      <point x="1571" y="1206"/>
    </contour>
    <contour>
      <point x="683" y="284" type="curve"/>
      <point x="632" y="239"/>
      <point x="504.352" y="150.098"/>
      <point x="467" y="126" type="curve" smooth="yes"/>
      <point x="380.335" y="70.0869"/>
      <point x="272" y="27"/>
      <point x="226" y="10" type="curve"/>
      <point x="733" y="10" type="line"/>
      <point x="706.491" y="24.8037"/>
      <point x="674" y="60"/>
      <point x="674" y="146" type="curve" smooth="yes"/>
      <point x="674" y="213.564"/>
      <point x="678" y="253"/>
    </contour>
    <contour>
      <point x="713" y="1219" type="line" smooth="yes"/>
      <point x="672" y="1262"/>
      <point x="717" y="1307"/>
      <point x="775" y="1333" type="curve" smooth="yes"/>
      <point x="828" y="1357"/>
      <point x="901" y="1380"/>
      <point x="965" y="1390" type="curve"/>
      <point x="133" y="1390" type="line"/>
      <point x="215" y="1376"/>
      <point x="245.496" y="1356.08"/>
      <point x="290" y="1335" type="curve" smooth="yes"/>
      <point x="328" y="1317"/>
      <point x="381.277" y="1285.55"/>
      <point x="418" y="1247" type="curve" smooth="yes"/>
      <point x="1424" y="182" type="line" smooth="yes"/>
      <point x="1462.4" y="141.535"/>
      <point x="1425" y="104"/>
      <point x="1377" y="70" type="curve" smooth="yes"/>
      <point x="1329.52" y="36.3701"/>
      <point x="1279" y="20"/>
      <point x="1215" y="10" type="curve"/>
      <point x="2037" y="10" type="line"/>
      <point x="1965" y="23"/>
      <point x="1884.95" y="50.8906"/>
      <point x="1840" y="71" type="curve" smooth="yes"/>
      <point x="1802" y="88"/>
      <point x="1757.72" y="120.452"/>
      <point x="1721" y="159" type="curve" smooth="yes"/>
    </contour>
    <contour>
      <point x="1942" y="160" type="line" smooth="yes"/>
      <point x="1977" y="123"/>
      <point x="2031" y="92"/>
      <point x="2090" y="64" type="curve" smooth="yes"/>
      <point x="2163" y="29"/>
      <point x="2196" y="25"/>
      <point x="2270" y="20" type="curve"/>
      <point x="2270" y="0" type="line"/>
      <point x="1186" y="0" type="line"/>
      <point x="1186" y="20" type="line"/>
      <point x="1270" y="22"/>
      <point x="1332" y="51"/>
      <point x="1372" y="79" type="curve" smooth="yes"/>
      <point x="1417" y="111"/>
      <point x="1442" y="146"/>
      <point x="1417" y="173" type="curve" smooth="yes"/>
      <point x="1038" y="575" type="line"/>
      <point x="705" y="283" type="line" smooth="yes"/>
      <point x="687" y="267"/>
      <point x="738" y="181"/>
      <point x="783" y="134" type="curve" smooth="yes"/>
      <point x="842" y="72"/>
      <point x="922" y="24"/>
      <point x="986" y="20" type="curve"/>
      <point x="986" y="0" type="line"/>
      <point x="212" y="0" type="line"/>
      <point x="212" y="20" type="line"/>
      <point x="248" y="24"/>
      <point x="374" y="79"/>
      <point x="462" y="135" type="curve" smooth="yes"/>
      <point x="538" y="183"/>
      <point x="630" y="252"/>
      <point x="681" y="300" type="curve"/>
      <point x="1018" y="596" type="line"/>
      <point x="408" y="1241" type="line" smooth="yes"/>
      <point x="373" y="1278"/>
      <point x="319" y="1309"/>
      <point x="260" y="1337" type="curve" smooth="yes"/>
      <point x="187" y="1372"/>
      <point x="154" y="1376"/>
      <point x="80" y="1381" type="curve"/>
      <point x="80" y="1401" type="line"/>
      <point x="1164" y="1401" type="line"/>
      <point x="1164" y="1381" type="line"/>
      <point x="1080" y="1379"/>
      <point x="1018" y="1350"/>
      <point x="978" y="1322" type="curve" smooth="yes"/>
      <point x="933" y="1290"/>
      <point x="908" y="1255"/>
      <point x="933" y="1228" type="curve" smooth="yes"/>
      <point x="1237" y="906" type="line"/>
      <point x="1551" y="1187" type="line" smooth="yes"/>
      <point x="1569" y="1203"/>
      <point x="1538" y="1259"/>
      <point x="1493" y="1306" type="curve" smooth="yes"/>
      <point x="1434" y="1368"/>
      <point x="1404" y="1376"/>
      <point x="1340" y="1380" type="curve"/>
      <point x="1340" y="1400" type="line"/>
      <point x="1974" y="1400" type="line"/>
      <point x="1974" y="1380" type="line"/>
      <point x="1938" y="1376"/>
      <point x="1864" y="1337"/>
      <point x="1784" y="1295" type="curve" smooth="yes"/>
      <point x="1717" y="1259"/>
      <point x="1626" y="1218"/>
      <point x="1575" y="1170" type="curve"/>
      <point x="1256" y="885" type="line"/>
    </contour>
  </outline>
</glyph>
<glyph name="Y" format="2">
  <advance width="2394"/>
  <unicode hex="0059"/>
  <anchor x="1286" y="0" name="bottom"/>
  <anchor x="1344" y="1400" name="top"/>
  <outline>
    <contour>
      <point x="1982" y="1188" type="curve"/>
      <point x="2003" y="1215"/>
      <point x="2023.56" y="1263.61"/>
      <point x="2056" y="1294" type="curve" smooth="yes"/>
      <point x="2083.67" y="1319.91"/>
      <point x="2132" y="1365"/>
      <point x="2168" y="1390" type="curve"/>
      <point x="1707" y="1390" type="line"/>
      <point x="1785.51" y="1377.2"/>
      <point x="1823.03" y="1375.6"/>
      <point x="1887" y="1313" type="curve" smooth="yes"/>
      <point x="1943.09" y="1258.11"/>
      <point x="1988" y="1211"/>
    </contour>
    <contour>
      <point x="1333" y="580" type="line"/>
      <point x="693" y="1219" type="line" smooth="yes"/>
      <point x="650.966" y="1260.97"/>
      <point x="697" y="1307"/>
      <point x="755" y="1333" type="curve" smooth="yes"/>
      <point x="808" y="1357"/>
      <point x="881" y="1380"/>
      <point x="945" y="1390" type="curve"/>
      <point x="103" y="1390" type="line"/>
      <point x="165" y="1380"/>
      <point x="201.276" y="1359.52"/>
      <point x="245" y="1339" type="curve" smooth="yes"/>
      <point x="294" y="1316"/>
      <point x="352" y="1280"/>
      <point x="389" y="1241" type="curve" smooth="yes"/>
      <point x="1091" y="495" type="line"/>
      <point x="1091" y="10" type="line"/>
      <point x="1333" y="10" type="line"/>
    </contour>
    <contour>
      <point x="1577" y="13" type="line"/>
      <point x="1524.98" y="31"/>
      <point x="1493.16" y="40.9365"/>
      <point x="1454.71" y="56" type="curve" smooth="yes"/>
      <point x="1376.73" y="86.5439"/>
      <point x="1333" y="113"/>
      <point x="1333" y="175" type="curve"/>
      <point x="1333" y="10" type="line"/>
      <point x="1577" y="10" type="line"/>
    </contour>
    <contour>
      <point x="777" y="13" type="curve"/>
      <point x="777" y="10" type="line"/>
      <point x="1091" y="10" type="line"/>
      <point x="1091" y="175" type="line"/>
      <point x="1091" y="113"/>
      <point x="1056.86" y="95.9707"/>
      <point x="958.292" y="57" type="curve" smooth="yes"/>
      <point x="900.182" y="34.0254"/>
      <point x="849.024" y="21"/>
    </contour>
    <contour>
      <point x="757" y="20" type="line"/>
      <point x="838" y="29"/>
      <point x="888" y="39"/>
      <point x="953" y="65" type="curve" smooth="yes"/>
      <point x="1053" y="104"/>
      <point x="1081" y="120"/>
      <point x="1081" y="175" type="curve" smooth="yes"/>
      <point x="1081" y="490" type="line"/>
      <point x="378" y="1240" type="line" smooth="yes"/>
      <point x="343" y="1277"/>
      <point x="289" y="1308"/>
      <point x="230" y="1336" type="curve" smooth="yes"/>
      <point x="157" y="1371"/>
      <point x="124" y="1375"/>
      <point x="50" y="1380" type="curve"/>
      <point x="50" y="1400" type="line"/>
      <point x="1134" y="1400" type="line"/>
      <point x="1134" y="1380" type="line"/>
      <point x="1050" y="1378"/>
      <point x="988" y="1349"/>
      <point x="948" y="1321" type="curve" smooth="yes"/>
      <point x="903" y="1289"/>
      <point x="877" y="1253"/>
      <point x="903" y="1227" type="curve" smooth="yes"/>
      <point x="1492" y="630" type="line"/>
      <point x="1966" y="1187" type="line" smooth="yes"/>
      <point x="1982" y="1206"/>
      <point x="1923" y="1259"/>
      <point x="1878" y="1306" type="curve" smooth="yes"/>
      <point x="1819" y="1368"/>
      <point x="1739" y="1376"/>
      <point x="1675" y="1380" type="curve"/>
      <point x="1675" y="1400" type="line"/>
      <point x="2399" y="1400" type="line"/>
      <point x="2399" y="1380" type="line"/>
      <point x="2363" y="1376"/>
      <point x="2279" y="1337"/>
      <point x="2199" y="1295" type="curve" smooth="yes"/>
      <point x="2132" y="1259"/>
      <point x="2035" y="1223"/>
      <point x="1990" y="1170" type="curve" smooth="yes"/>
      <point x="1511" y="610" type="line"/>
      <point x="1511" y="175" type="line" smooth="yes"/>
      <point x="1511" y="120"/>
      <point x="1539" y="104"/>
      <point x="1639" y="65" type="curve" smooth="yes"/>
      <point x="1704" y="39"/>
      <point x="1754" y="29"/>
      <point x="1835" y="20" type="curve"/>
      <point x="1835" y="0" type="line"/>
      <point x="757" y="0" type="line"/>
    </contour>
  </outline>
</glyph>
<glyph name="Z" format="2">
  <advance width="1962"/>
  <unicode hex="005A"/>
  <anchor x="956" y="0" name="bottom"/>
  <anchor x="954" y="1400" name="top"/>
  <outline>
    <contour>
      <point x="1254" y="10" type="curve"/>
      <point x="1662" y="10" type="line"/>
      <point x="1662" y="364" type="line"/>
      <point x="1482" y="126"/>
      <point x="1397" y="29"/>
    </contour>
    <contour>
      <point x="633" y="1390" type="curve"/>
      <point x="168" y="1390" type="line"/>
      <point x="168" y="1032" type="line"/>
      <point x="376" y="1284"/>
      <point x="470" y="1351"/>
    </contour>
    <contour>
      <point x="480" y="30" type="line"/>
      <point x="1614" y="1370" type="line"/>
      <point x="1275" y="1370" type="line"/>
      <point x="141" y="30" type="line"/>
    </contour>
    <contour>
      <point x="178" y="870" type="curve"/>
      <point x="158" y="870" type="line"/>
      <point x="158" y="1400" type="line"/>
      <point x="1806" y="1400" type="line"/>
      <point x="1806" y="1370" type="line"/>
      <point x="672" y="30" type="line"/>
      <point x="1250" y="30" type="line" smooth="yes"/>
      <point x="1389" y="30"/>
      <point x="1492" y="170"/>
      <point x="1576" y="271" type="curve" smooth="yes"/>
      <point x="1663.19" y="375.84"/>
      <point x="1733" y="495"/>
      <point x="1792" y="580" type="curve"/>
      <point x="1812" y="580" type="line"/>
      <point x="1812" y="0" type="line"/>
      <point x="120" y="0" type="line"/>
      <point x="120" y="30" type="line"/>
      <point x="1254" y="1370" type="line"/>
      <point x="790" y="1370" type="line" smooth="yes"/>
      <point x="604" y="1370"/>
      <point x="531" y="1275"/>
      <point x="418" y="1154" type="curve" smooth="yes"/>
      <point x="327" y="1057"/>
      <point x="227" y="941"/>
    </contour>
  </outline>
</glyph>
<glyph name="bracketleft" format="2">
  <advance width="768"/>
  <unicode hex="005B"/>
  <outline>
    <contour>
      <point x="118" y="1530" type="line"/>
      <point x="118" y="-220" type="line"/>
      <point x="350" y="-220" type="line"/>
      <point x="350" y="1530" type="line"/>
    </contour>
    <contour>
      <point x="710" y="-250" type="line"/>
      <point x="108" y="-250" type="line"/>
      <point x="108" y="-220" type="line"/>
      <point x="710" y="-220" type="line"/>
    </contour>
    <contour>
      <point x="710" y="1530" type="line"/>
      <point x="118" y="1530" type="line"/>
      <point x="108" y="1560" type="line"/>
      <point x="710" y="1560" type="line"/>
    </contour>
    <contour>
      <point x="500" y="1560" type="line"/>
      <point x="500" y="-250" type="line"/>
      <point x="108" y="-250" type="line"/>
      <point x="108" y="1560" type="line"/>
    </contour>
  </outline>
</glyph>
<glyph name="backslash" format="2">
  <advance width="1330"/>
  <unicode hex="005C"/>
  <outline>
    <contour>
      <point x="110" y="1400" type="line"/>
      <point x="150" y="1400" type="line"/>
      <point x="1220" y="0" type="line"/>
      <point x="1180" y="0" type="line"/>
    </contour>
  </outline>
</glyph>
<glyph name="bracketright" format="2">
  <advance width="768"/>
  <unicode hex="005D"/>
  <outline>
    <contour>
      <point x="512" y="-220" type="line"/>
      <point x="512" y="1530" type="line"/>
      <point x="280" y="1530" type="line"/>
      <point x="280" y="-220" type="line"/>
    </contour>
    <contour>
      <point x="60" y="1560" type="line"/>
      <point x="662" y="1560" type="line"/>
      <point x="662" y="1530" type="line"/>
      <point x="60" y="1530" type="line"/>
    </contour>
    <contour>
      <point x="60" y="-220" type="line"/>
      <point x="652" y="-220" type="line"/>
      <point x="662" y="-250" type="line"/>
      <point x="60" y="-250" type="line"/>
    </contour>
    <contour>
      <point x="270" y="-250" type="line"/>
      <point x="270" y="1560" type="line"/>
      <point x="662" y="1560" type="line"/>
      <point x="662" y="-250" type="line"/>
    </contour>
  </outline>
</glyph>
<glyph name="grave" format="2">
  <advance width="823"/>
  <unicode hex="0060"/>
  <outline>
    <contour>
      <point x="302" y="1380" type="curve" smooth="yes"/>
      <point x="573" y="1474" type="line"/>
      <point x="322" y="1636" type="line" smooth="yes"/>
      <point x="230" y="1695"/>
      <point x="110" y="1618"/>
      <point x="110" y="1520" type="curve" smooth="yes"/>
      <point x="110" y="1422"/>
      <point x="207.674" y="1347.28"/>
    </contour>
    <contour>
      <point x="292" y="1360" type="line" smooth="yes"/>
      <point x="193.184" y="1340.28"/>
      <point x="100" y="1422"/>
      <point x="100" y="1520" type="curve" smooth="yes"/>
      <point x="100" y="1618"/>
      <point x="212.084" y="1699.76"/>
      <point x="312" y="1656" type="curve" smooth="yes"/>
      <point x="723" y="1476" type="line"/>
      <point x="723" y="1446" type="line"/>
    </contour>
  </outline>
</glyph>
<glyph name="braceleft" format="2">
  <advance width="776"/>
  <unicode hex="007B"/>
  <outline>
    <contour>
      <point x="616" y="-238" type="curve"/>
      <point x="492" y="-208"/>
      <point x="350" y="-148"/>
      <point x="350" y="18" type="curve" smooth="yes"/>
      <point x="350" y="150"/>
      <point x="418" y="205"/>
      <point x="418" y="365" type="curve" smooth="yes"/>
      <point x="418" y="531"/>
      <point x="338" y="587"/>
      <point x="160" y="627" type="curve"/>
      <point x="203" y="599"/>
      <point x="232" y="557"/>
      <point x="232" y="495" type="curve" smooth="yes"/>
      <point x="232" y="369"/>
      <point x="110" y="304"/>
      <point x="110" y="70" type="curve" smooth="yes"/>
      <point x="110" y="-148"/>
      <point x="264" y="-223"/>
    </contour>
    <contour>
      <point x="616" y="1550" type="curve"/>
      <point x="264" y="1535"/>
      <point x="110" y="1460"/>
      <point x="110" y="1242" type="curve" smooth="yes"/>
      <point x="110" y="1008"/>
      <point x="232" y="943"/>
      <point x="232" y="817" type="curve" smooth="yes"/>
      <point x="232" y="755"/>
      <point x="203" y="713"/>
      <point x="160" y="685" type="curve"/>
      <point x="338" y="725"/>
      <point x="418" y="781"/>
      <point x="418" y="947" type="curve" smooth="yes"/>
      <point x="418" y="1107"/>
      <point x="350" y="1162"/>
      <point x="350" y="1294" type="curve" smooth="yes"/>
      <point x="350" y="1460"/>
      <point x="492" y="1520"/>
    </contour>
    <contour>
      <point x="716" y="1560" type="curve"/>
      <point x="716" y="1530" type="line"/>
      <point x="592" y="1530"/>
      <point x="500" y="1440"/>
      <point x="500" y="1314" type="curve" smooth="yes"/>
      <point x="500" y="1202"/>
      <point x="568" y="1107"/>
      <point x="568" y="947" type="curve" smooth="yes"/>
      <point x="568" y="781"/>
      <point x="488" y="690"/>
      <point x="100" y="650" type="curve"/>
      <point x="100" y="665" type="line"/>
      <point x="160" y="685"/>
      <point x="222" y="735"/>
      <point x="222" y="817" type="curve" smooth="yes"/>
      <point x="222" y="943"/>
      <point x="100" y="1008"/>
      <point x="100" y="1242" type="curve" smooth="yes"/>
      <point x="100" y="1460"/>
      <point x="244" y="1560"/>
    </contour>
    <contour>
      <point x="716" y="-250" type="line"/>
      <point x="244" y="-250"/>
      <point x="100" y="-148"/>
      <point x="100" y="70" type="curve" smooth="yes"/>
      <point x="100" y="304"/>
      <point x="222" y="371"/>
      <point x="222" y="497" type="curve" smooth="yes"/>
      <point x="222" y="579"/>
      <point x="160" y="625"/>
      <point x="100" y="645" type="curve"/>
      <point x="100" y="660" type="line"/>
      <point x="488" y="620"/>
      <point x="568" y="531"/>
      <point x="568" y="365" type="curve" smooth="yes"/>
      <point x="568" y="205"/>
      <point x="500" y="110"/>
      <point x="500" y="-2" type="curve" smooth="yes"/>
      <point x="500" y="-128"/>
      <point x="592" y="-220"/>
      <point x="716" y="-220" type="curve"/>
    </contour>
  </outline>
</glyph>
<glyph name="braceright" format="2">
  <advance width="776"/>
  <unicode hex="007D"/>
  <outline>
    <contour>
      <point x="90" y="-233" type="curve"/>
      <point x="442" y="-218"/>
      <point x="526" y="-150"/>
      <point x="526" y="68" type="curve" smooth="yes"/>
      <point x="526" y="302"/>
      <point x="404" y="359"/>
      <point x="404" y="485" type="curve" smooth="yes"/>
      <point x="404" y="547"/>
      <point x="433" y="589"/>
      <point x="476" y="617" type="curve"/>
      <point x="302" y="577"/>
      <point x="218" y="509"/>
      <point x="218" y="363" type="curve" smooth="yes"/>
      <point x="218" y="203"/>
      <point x="286" y="138"/>
      <point x="286" y="6" type="curve" smooth="yes"/>
      <point x="286" y="-140"/>
      <point x="214" y="-203"/>
    </contour>
    <contour>
      <point x="90" y="1541" type="curve"/>
      <point x="214" y="1511"/>
      <point x="286" y="1448"/>
      <point x="286" y="1302" type="curve" smooth="yes"/>
      <point x="286" y="1170"/>
      <point x="218" y="1105"/>
      <point x="218" y="945" type="curve" smooth="yes"/>
      <point x="218" y="799"/>
      <point x="302" y="731"/>
      <point x="476" y="691" type="curve"/>
      <point x="433" y="719"/>
      <point x="404" y="761"/>
      <point x="404" y="823" type="curve" smooth="yes"/>
      <point x="404" y="949"/>
      <point x="526" y="1006"/>
      <point x="526" y="1240" type="curve" smooth="yes"/>
      <point x="526" y="1458"/>
      <point x="442" y="1526"/>
    </contour>
    <contour>
      <point x="60" y="-250" type="curve"/>
      <point x="60" y="-220" type="line"/>
      <point x="184" y="-220"/>
      <point x="276" y="-130"/>
      <point x="276" y="-4" type="curve" smooth="yes"/>
      <point x="276" y="108"/>
      <point x="208" y="203"/>
      <point x="208" y="363" type="curve" smooth="yes"/>
      <point x="208" y="529"/>
      <point x="288" y="620"/>
      <point x="676" y="660" type="curve"/>
      <point x="676" y="645" type="line"/>
      <point x="616" y="625"/>
      <point x="554" y="575"/>
      <point x="554" y="493" type="curve" smooth="yes"/>
      <point x="554" y="367"/>
      <point x="676" y="302"/>
      <point x="676" y="68" type="curve" smooth="yes"/>
      <point x="676" y="-150"/>
      <point x="532" y="-250"/>
    </contour>
    <contour>
      <point x="60" y="1560" type="line"/>
      <point x="532" y="1560"/>
      <point x="676" y="1458"/>
      <point x="676" y="1240" type="curve" smooth="yes"/>
      <point x="676" y="1006"/>
      <point x="554" y="939"/>
      <point x="554" y="813" type="curve" smooth="yes"/>
      <point x="554" y="731"/>
      <point x="616" y="685"/>
      <point x="676" y="665" type="curve"/>
      <point x="676" y="650" type="line"/>
      <point x="288" y="690"/>
      <point x="208" y="779"/>
      <point x="208" y="945" type="curve" smooth="yes"/>
      <point x="208" y="1105"/>
      <point x="276" y="1200"/>
      <point x="276" y="1312" type="curve" smooth="yes"/>
      <point x="276" y="1438"/>
      <point x="184" y="1530"/>
      <point x="60" y="1530" type="curve"/>
    </contour>
  </outline>
</glyph>
<glyph name="asciitilde" format="2">
  <advance width="1374"/>
  <unicode hex="007E"/>
  <outline>
    <contour>
      <point x="410" y="824" type="curve" smooth="yes"/>
      <point x="626" y="824"/>
      <point x="634" y="636"/>
      <point x="878" y="636" type="curve" smooth="yes"/>
      <point x="1056" y="636"/>
      <point x="1143" y="776"/>
      <point x="1166" y="940" type="curve"/>
      <point x="1166" y="940" type="line"/>
      <point x="1126" y="856"/>
      <point x="1034" y="802"/>
      <point x="898" y="802" type="curve" smooth="yes"/>
      <point x="706" y="802"/>
      <point x="668" y="990"/>
      <point x="448" y="990" type="curve" smooth="yes"/>
      <point x="300" y="990"/>
      <point x="230" y="866"/>
      <point x="230" y="736" type="curve"/>
      <point x="230" y="736" type="line"/>
      <point x="250" y="790"/>
      <point x="314" y="824"/>
    </contour>
    <contour>
      <point x="410" y="814" type="curve" smooth="yes"/>
      <point x="314" y="814"/>
      <point x="230" y="770"/>
      <point x="230" y="686" type="curve"/>
      <point x="200" y="686" type="line"/>
      <point x="200" y="916"/>
      <point x="300" y="1080"/>
      <point x="498" y="1080" type="curve" smooth="yes"/>
      <point x="718" y="1080"/>
      <point x="756" y="892"/>
      <point x="948" y="892" type="curve" smooth="yes"/>
      <point x="1064" y="892"/>
      <point x="1146" y="936"/>
      <point x="1146" y="1020" type="curve"/>
      <point x="1176" y="1020" type="line"/>
      <point x="1176" y="790"/>
      <point x="1076" y="626"/>
      <point x="878" y="626" type="curve" smooth="yes"/>
      <point x="624" y="626"/>
      <point x="616" y="814"/>
    </contour>
  </outline>
</glyph>
<glyph name="exclamdown" format="2">
  <advance width="880"/>
  <unicode hex="00A1"/>
  <outline>
    <contour>
      <point x="210" y="1180" type="curve" smooth="yes"/>
      <point x="210" y="1074"/>
      <point x="293" y="965"/>
      <point x="395" y="965" type="curve" smooth="yes"/>
      <point x="497" y="965"/>
      <point x="550" y="1038"/>
      <point x="550" y="1180" type="curve" smooth="yes"/>
      <point x="550" y="1322"/>
      <point x="497" y="1395"/>
      <point x="395" y="1395" type="curve" smooth="yes"/>
      <point x="300" y="1395"/>
      <point x="210" y="1296"/>
    </contour>
    <contour>
      <point x="150" y="30" type="curve"/>
      <point x="350" y="30"/>
      <point x="390" y="30"/>
      <point x="590" y="30" type="curve"/>
      <point x="460" y="180"/>
      <point x="435" y="320"/>
      <point x="425" y="670" type="curve"/>
      <point x="393" y="435"/>
      <point x="350" y="320"/>
    </contour>
    <contour>
      <point x="200" y="1180" type="curve" smooth="yes"/>
      <point x="200" y="1312"/>
      <point x="308" y="1420"/>
      <point x="440" y="1420" type="curve" smooth="yes"/>
      <point x="572" y="1420"/>
      <point x="680" y="1312"/>
      <point x="680" y="1180" type="curve" smooth="yes"/>
      <point x="680" y="1048"/>
      <point x="572" y="940"/>
      <point x="440" y="940" type="curve" smooth="yes"/>
      <point x="308" y="940"/>
      <point x="200" y="1048"/>
    </contour>
    <contour>
      <point x="140" y="0" type="line"/>
      <point x="140" y="30" type="line"/>
      <point x="340" y="310"/>
      <point x="425" y="480"/>
      <point x="425" y="840" type="curve"/>
      <point x="455" y="840" type="line"/>
      <point x="455" y="480"/>
      <point x="540" y="260"/>
      <point x="740" y="30" type="curve"/>
      <point x="740" y="0" type="line"/>
    </contour>
  </outline>
</glyph>
<glyph name="cent" format="2">
  <advance width="2152"/>
  <unicode hex="00A2"/>
  <outline>
    <contour>
      <point x="1285" y="1027" type="curve" smooth="yes"/>
      <point x="1285" y="911"/>
      <point x="1363" y="854"/>
      <point x="1479" y="854" type="curve" smooth="yes"/>
      <point x="1597" y="854"/>
      <point x="1673" y="951"/>
      <point x="1673" y="1088" type="curve" smooth="yes"/>
      <point x="1673" y="1205"/>
      <point x="1643" y="1250"/>
      <point x="1613" y="1271" type="curve"/>
      <point x="1611" y="1269" type="line"/>
      <point x="1624" y="1255"/>
      <point x="1633" y="1240"/>
      <point x="1633" y="1229" type="curve" smooth="yes"/>
      <point x="1633" y="1184.94"/>
      <point x="1585" y="1219"/>
      <point x="1502" y="1219" type="curve" smooth="yes"/>
      <point x="1385.83" y="1219"/>
      <point x="1285" y="1148.06"/>
    </contour>
    <contour>
      <point x="480" y="700" type="curve" smooth="yes"/>
      <point x="480" y="974"/>
      <point x="562" y="1222"/>
      <point x="810" y="1372" type="curve"/>
      <point x="486" y="1300"/>
      <point x="170" y="1054"/>
      <point x="170" y="700" type="curve" smooth="yes"/>
      <point x="170" y="346"/>
      <point x="454" y="99"/>
      <point x="810" y="28" type="curve"/>
      <point x="562" y="178"/>
      <point x="480" y="426"/>
    </contour>
    <contour>
      <point x="1082" y="1500" type="line"/>
      <point x="1112" y="1500" type="line"/>
      <point x="1112" y="-190" type="line"/>
      <point x="1082" y="-190" type="line"/>
    </contour>
    <contour>
      <point x="1151" y="1395" type="curve"/>
      <point x="1140" y="1425" type="line"/>
      <point x="1499" y="1425"/>
      <point x="1773" y="1263"/>
      <point x="1773" y="1059" type="curve" smooth="yes"/>
      <point x="1773" y="895"/>
      <point x="1650" y="809"/>
      <point x="1520" y="809" type="curve" smooth="yes"/>
      <point x="1390" y="809"/>
      <point x="1275" y="887"/>
      <point x="1275" y="1027" type="curve" smooth="yes"/>
      <point x="1275" y="1157"/>
      <point x="1383" y="1229"/>
      <point x="1502" y="1229" type="curve" smooth="yes"/>
      <point x="1559.97" y="1229"/>
      <point x="1587.37" y="1214.49"/>
      <point x="1613" y="1214.49" type="curve" smooth="yes"/>
      <point x="1620" y="1214.49"/>
      <point x="1623" y="1220"/>
      <point x="1623" y="1229" type="curve" smooth="yes"/>
      <point x="1623" y="1297.46"/>
      <point x="1397.98" y="1395"/>
    </contour>
    <contour>
      <point x="1151" y="1395" type="line"/>
      <point x="883" y="1395"/>
      <point x="630" y="1134"/>
      <point x="630" y="700" type="curve" smooth="yes"/>
      <point x="630" y="266"/>
      <point x="843" y="21"/>
      <point x="1180" y="21" type="curve" smooth="yes"/>
      <point x="1474" y="21"/>
      <point x="1686" y="269"/>
      <point x="1742" y="412" type="curve"/>
      <point x="1772" y="412" type="line"/>
      <point x="1712" y="246"/>
      <point x="1486" y="-20"/>
      <point x="1120" y="-20" type="curve" smooth="yes"/>
      <point x="584" y="-20"/>
      <point x="160" y="256"/>
      <point x="160" y="700" type="curve" smooth="yes"/>
      <point x="160" y="1144"/>
      <point x="624" y="1425"/>
      <point x="1140" y="1425" type="curve"/>
    </contour>
  </outline>
</glyph>
<glyph name="sterling" format="2">
  <advance width="1848"/>
  <unicode hex="00A3"/>
  <outline>
    <contour>
      <point x="196" y="1001" type="curve" smooth="yes"/>
      <point x="196" y="771"/>
      <point x="338" y="770"/>
      <point x="338" y="541" type="curve" smooth="yes"/>
      <point x="338" y="483"/>
      <point x="332" y="457"/>
      <point x="260" y="320" type="curve"/>
      <point x="425" y="531"/>
      <point x="590" y="512"/>
      <point x="590" y="691" type="curve" smooth="yes"/>
      <point x="590" y="841"/>
      <point x="486" y="892"/>
      <point x="486" y="1060" type="curve" smooth="yes"/>
      <point x="486" y="1213"/>
      <point x="582" y="1330"/>
      <point x="744" y="1390" type="curve"/>
      <point x="486" y="1359"/>
      <point x="196" y="1221"/>
    </contour>
    <contour>
      <point x="50" y="705" type="line"/>
      <point x="50" y="735" type="line"/>
      <point x="285" y="735" type="line"/>
      <point x="300" y="705" type="line"/>
    </contour>
    <contour>
      <point x="180" y="0" type="line"/>
      <point x="180" y="234.628"/>
      <point x="448.868" y="424"/>
      <point x="798" y="424" type="curve" smooth="yes"/>
      <point x="1114.89" y="424"/>
      <point x="1230.24" y="240"/>
      <point x="1491" y="240" type="curve" smooth="yes"/>
      <point x="1629" y="240"/>
      <point x="1678" y="312"/>
      <point x="1688" y="456" type="curve"/>
      <point x="1708" y="456" type="line"/>
      <point x="1708" y="158.214"/>
      <point x="1590.84" y="-50"/>
      <point x="1221" y="-50" type="curve" smooth="yes"/>
      <point x="758.452" y="-50"/>
      <point x="736.582" y="224"/>
      <point x="448" y="224" type="curve" smooth="yes"/>
      <point x="356" y="224"/>
      <point x="210" y="180"/>
      <point x="200" y="0" type="curve"/>
    </contour>
    <contour>
      <point x="730" y="705" type="line"/>
      <point x="730" y="735" type="line"/>
      <point x="1080" y="735" type="line"/>
      <point x="1080" y="705" type="line"/>
    </contour>
    <contour>
      <point x="304" y="204" type="curve"/>
      <point x="359" y="226"/>
      <point x="402" y="234"/>
      <point x="448" y="234" type="curve" smooth="yes"/>
      <point x="746" y="234"/>
      <point x="767" y="-40"/>
      <point x="1221" y="-40" type="curve" smooth="yes"/>
      <point x="1449" y="-40"/>
      <point x="1623" y="45"/>
      <point x="1675" y="264" type="curve"/>
      <point x="1635" y="168"/>
      <point x="1528" y="100"/>
      <point x="1392" y="100" type="curve" smooth="yes"/>
      <point x="1059" y="100"/>
      <point x="1016" y="354"/>
      <point x="688" y="354" type="curve" smooth="yes"/>
      <point x="522" y="354"/>
      <point x="393" y="302"/>
    </contour>
    <contour>
      <point x="1159" y="1022" type="curve" smooth="yes"/>
      <point x="1159" y="906"/>
      <point x="1237" y="849"/>
      <point x="1353" y="849" type="curve" smooth="yes"/>
      <point x="1471" y="849"/>
      <point x="1547" y="946"/>
      <point x="1547" y="1083" type="curve" smooth="yes"/>
      <point x="1547" y="1200"/>
      <point x="1517" y="1245"/>
      <point x="1487" y="1266" type="curve"/>
      <point x="1485" y="1264" type="line"/>
      <point x="1498" y="1250"/>
      <point x="1507" y="1235"/>
      <point x="1507" y="1224" type="curve" smooth="yes"/>
      <point x="1507" y="1179.94"/>
      <point x="1459" y="1214"/>
      <point x="1376" y="1214" type="curve" smooth="yes"/>
      <point x="1259.83" y="1214"/>
      <point x="1159" y="1143.06"/>
    </contour>
    <contour>
      <point x="186" y="1001" type="curve" smooth="yes"/>
      <point x="186" y="1261"/>
      <point x="552" y="1420"/>
      <point x="1014" y="1420" type="curve" smooth="yes"/>
      <point x="1373" y="1420"/>
      <point x="1647" y="1258"/>
      <point x="1647" y="1054" type="curve" smooth="yes"/>
      <point x="1647" y="890"/>
      <point x="1524" y="804"/>
      <point x="1394" y="804" type="curve" smooth="yes"/>
      <point x="1264" y="804"/>
      <point x="1149" y="882"/>
      <point x="1149" y="1022" type="curve" smooth="yes"/>
      <point x="1149" y="1152"/>
      <point x="1257" y="1224"/>
      <point x="1376" y="1224" type="curve" smooth="yes"/>
      <point x="1433.97" y="1224"/>
      <point x="1461.37" y="1209.49"/>
      <point x="1487" y="1209.49" type="curve" smooth="yes"/>
      <point x="1494" y="1209.49"/>
      <point x="1497" y="1215"/>
      <point x="1497" y="1224" type="curve" smooth="yes"/>
      <point x="1497" y="1292.46"/>
      <point x="1270.98" y="1387"/>
      <point x="1024" y="1387" type="curve" smooth="yes"/>
      <point x="792" y="1387"/>
      <point x="636" y="1303"/>
      <point x="636" y="1090" type="curve" smooth="yes"/>
      <point x="636" y="922"/>
      <point x="740" y="871"/>
      <point x="740" y="721" type="curve" smooth="yes"/>
      <point x="740" y="402"/>
      <point x="155" y="441"/>
      <point x="190" y="0" type="curve"/>
      <point x="170" y="0" type="line"/>
      <point x="132" y="277"/>
      <point x="328" y="353"/>
      <point x="328" y="541" type="curve" smooth="yes"/>
      <point x="328" y="770"/>
      <point x="186" y="771"/>
    </contour>
  </outline>
</glyph>
<glyph name="yen" format="2">
  <advance width="2394"/>
  <unicode hex="00A5"/>
  <outline>
    <contour>
      <point x="1511" y="380" type="line"/>
      <point x="1511" y="410" type="line"/>
      <point x="2221" y="410" type="line"/>
      <point x="2221" y="380" type="line"/>
    </contour>
    <contour>
      <point x="1511" y="580" type="line"/>
      <point x="1511" y="610" type="line"/>
      <point x="2221" y="610" type="line"/>
      <point x="2221" y="580" type="line"/>
    </contour>
    <contour>
      <point x="221" y="380" type="line"/>
      <point x="221" y="410" type="line"/>
      <point x="1081" y="410" type="line"/>
      <point x="1081" y="380" type="line"/>
    </contour>
    <contour>
      <point x="221" y="580" type="line"/>
      <point x="221" y="610" type="line"/>
      <point x="981" y="610" type="line"/>
      <point x="1001" y="580" type="line"/>
    </contour>
    <component base="Y"/>
  </outline>
</glyph>
<glyph name="brokenbar" format="2">
  <advance width="608"/>
  <unicode hex="00A6"/>
  <outline>
    <contour>
      <point x="210" y="1550" type="line"/>
      <point x="210" y="770" type="line"/>
      <point x="328" y="770" type="line"/>
      <point x="328" y="1550" type="line"/>
    </contour>
    <contour>
      <point x="210" y="350" type="line"/>
      <point x="210" y="-430" type="line"/>
      <point x="328" y="-430" type="line"/>
      <point x="328" y="350" type="line"/>
    </contour>
    <contour>
      <point x="200" y="1560" type="line"/>
      <point x="408" y="1560" type="line"/>
      <point x="408" y="760" type="line"/>
      <point x="200" y="760" type="line"/>
    </contour>
    <contour>
      <point x="200" y="360" type="line"/>
      <point x="408" y="360" type="line"/>
      <point x="408" y="-440" type="line"/>
      <point x="200" y="-440" type="line"/>
    </contour>
  </outline>
</glyph>
<glyph name="guillemotleft" format="2">
  <advance width="1507"/>
  <unicode hex="00AB"/>
  <outline>
    <contour>
      <point x="912" y="776" type="line"/>
      <point x="1365" y="1230" type="line"/>
      <point x="620" y="775" type="line"/>
      <point x="1365" y="320" type="line"/>
    </contour>
    <contour>
      <point x="352" y="776" type="line"/>
      <point x="805" y="1230" type="line"/>
      <point x="60" y="775" type="line"/>
      <point x="805" y="320" type="line"/>
    </contour>
    <contour>
      <point x="1102" y="776" type="line"/>
      <point x="1405" y="305" type="line"/>
      <point x="1392" y="290" type="line"/>
      <point x="608" y="765" type="line"/>
      <point x="608" y="785" type="line"/>
      <point x="1392" y="1260" type="line"/>
      <point x="1407" y="1245" type="line"/>
    </contour>
    <contour>
      <point x="502" y="776" type="line"/>
      <point x="845" y="305" type="line"/>
      <point x="830" y="290" type="line"/>
      <point x="50" y="765" type="line"/>
      <point x="50" y="785" type="line"/>
      <point x="830" y="1260" type="line"/>
      <point x="845" y="1245" type="line"/>
    </contour>
  </outline>
</glyph>
<glyph name="logicalnot" format="2">
  <advance width="1070"/>
  <unicode hex="00AC"/>
  <outline>
    <contour>
      <point x="762" y="1040" type="line"/>
      <point x="762" y="756" type="line"/>
      <point x="872" y="756" type="line"/>
      <point x="872" y="1220" type="line"/>
      <point x="130" y="1220" type="line"/>
      <point x="130" y="1040" type="line"/>
    </contour>
    <contour>
      <point x="752" y="1030" type="line"/>
      <point x="120" y="1030" type="line"/>
      <point x="120" y="1230" type="line"/>
      <point x="952" y="1230" type="line"/>
      <point x="952" y="746" type="line"/>
      <point x="752" y="746" type="line"/>
    </contour>
  </outline>
</glyph>
<glyph name="macron" format="2">
  <advance width="738"/>
  <unicode hex="00AF"/>
  <outline>
    <contour>
      <point x="50" y="780" type="line"/>
      <point x="548" y="780" type="line"/>
      <point x="548" y="940" type="line"/>
      <point x="50" y="940" type="line"/>
    </contour>
    <contour>
      <point x="40" y="770" type="line"/>
      <point x="40" y="970" type="line"/>
      <point x="698" y="970" type="line"/>
      <point x="698" y="770" type="line"/>
    </contour>
  </outline>
</glyph>
<glyph name="plusminus" format="2">
  <advance width="1072"/>
  <unicode hex="00B1"/>
  <outline>
    <contour>
      <point x="50" y="70" type="line"/>
      <point x="880" y="70" type="line"/>
      <point x="880" y="230" type="line"/>
      <point x="50" y="230" type="line"/>
    </contour>
    <contour>
      <point x="40" y="60" type="line"/>
      <point x="40" y="260" type="line"/>
      <point x="1030" y="260" type="line"/>
      <point x="1030" y="60" type="line"/>
    </contour>
    <component base="plus" xOffset="-140" yOffset="420"/>
  </outline>
</glyph>
